<svg xmlns="http://www.w3.org/2000/svg" xmlns:xlink="http://www.w3.org/1999/xlink" viewBox="0 0 2068 847"><defs><style>.a{fill:url(#a);}</style><linearGradient id="a" x1="1" y1="0.292" x2="0.108" y2="0.892" gradientUnits="objectBoundingBox"><stop offset="0" stop-color="#eb51b8"/><stop offset="1" stop-color="#ffbb54"/></linearGradient></defs><g transform="translate(92 -6486)"><path class="a" d="M65,0A65,65,0,1,1,0,65,65,65,0,0,1,65,0Z" transform="translate(383 6661)"/><path class="a" d="M185,0C287.173,0,370,82.827,370,185S287.173,370,185,370,0,287.173,0,185,82.827,0,185,0Z" transform="translate(-92 6963)"/><path class="a" d="M75,0A75,75,0,1,1,0,75,75,75,0,0,1,75,0Z" transform="translate(1514 6841)"/><path class="a" d="M50,0A50,50,0,1,1,0,50,50,50,0,0,1,50,0Z" transform="translate(1790 7193)"/><path class="a" d="M99,0A99,99,0,1,1,0,99,99,99,0,0,1,99,0Z" transform="translate(1778 6486)"/><path class="a" d="M99,0A99,99,0,1,1,0,99,99,99,0,0,1,99,0Z" transform="translate(558 7106)"/></g></svg>