<svg xmlns="http://www.w3.org/2000/svg" xmlns:xlink="http://www.w3.org/1999/xlink" viewBox="0 0 1920 887"><defs><style>.a,.c{fill:none;}.b{clip-path:url(#c);}.c{opacity:0.62;}.d{clip-path:url(#a);}.e{fill:#363636;opacity:0.13;}</style><clipPath id="a"><rect class="a" width="1026" height="689"/></clipPath><clipPath id="c"><rect width="1920" height="887"/></clipPath></defs><g id="b" class="b"><g transform="translate(-64 -80)"><circle class="c" cx="454" cy="454" r="454" transform="translate(-255 106)"/></g><g class="d" transform="translate(-335 99)"><g transform="translate(-818 -409)"><circle class="e" cx="2.5" cy="2.5" r="2.5" transform="translate(818 409)"/></g><g transform="translate(-788 -409)"><circle class="e" cx="2.5" cy="2.5" r="2.5" transform="translate(818 409)"/></g><g transform="translate(-758 -409)"><circle class="e" cx="2.5" cy="2.5" r="2.5" transform="translate(818 409)"/></g><g transform="translate(-728 -409)"><circle class="e" cx="2.5" cy="2.5" r="2.5" transform="translate(818 409)"/></g><g transform="translate(-698 -409)"><circle class="e" cx="2.5" cy="2.5" r="2.5" transform="translate(818 409)"/></g><g transform="translate(-668 -409)"><circle class="e" cx="2.5" cy="2.5" r="2.5" transform="translate(818 409)"/></g><g transform="translate(-638 -409)"><circle class="e" cx="2.5" cy="2.5" r="2.5" transform="translate(818 409)"/></g><g transform="translate(-608 -409)"><circle class="e" cx="2.5" cy="2.5" r="2.5" transform="translate(818 409)"/></g><g transform="translate(-578 -409)"><circle class="e" cx="2.5" cy="2.5" r="2.5" transform="translate(818 409)"/></g><g transform="translate(-548 -409)"><circle class="e" cx="2.5" cy="2.5" r="2.5" transform="translate(818 409)"/></g><g transform="translate(-518 -409)"><circle class="e" cx="2.5" cy="2.5" r="2.5" transform="translate(818 409)"/></g><g transform="translate(-488 -409)"><circle class="e" cx="2.5" cy="2.5" r="2.5" transform="translate(818 409)"/></g><g transform="translate(-458 -409)"><circle class="e" cx="2.5" cy="2.5" r="2.5" transform="translate(818 409)"/></g><g transform="translate(-428 -409)"><circle class="e" cx="2.5" cy="2.5" r="2.5" transform="translate(818 409)"/></g><g transform="translate(-398 -409)"><circle class="e" cx="2.5" cy="2.5" r="2.5" transform="translate(818 409)"/></g><g transform="translate(-368 -409)"><circle class="e" cx="2.5" cy="2.5" r="2.5" transform="translate(818 409)"/></g><g transform="translate(-338 -409)"><circle class="e" cx="2.5" cy="2.5" r="2.5" transform="translate(818 409)"/></g><g transform="translate(-308 -409)"><circle class="e" cx="2.5" cy="2.5" r="2.5" transform="translate(818 409)"/></g><g transform="translate(-278 -409)"><circle class="e" cx="2.5" cy="2.5" r="2.5" transform="translate(818 409)"/></g><g transform="translate(-248 -409)"><circle class="e" cx="2.5" cy="2.5" r="2.5" transform="translate(818 409)"/></g><g transform="translate(-218 -409)"><circle class="e" cx="2.5" cy="2.5" r="2.5" transform="translate(818 409)"/></g><g transform="translate(-188 -409)"><circle class="e" cx="2.5" cy="2.5" r="2.5" transform="translate(818 409)"/></g><g transform="translate(-158 -409)"><circle class="e" cx="2.5" cy="2.5" r="2.5" transform="translate(818 409)"/></g><g transform="translate(-128 -409)"><circle class="e" cx="2.5" cy="2.5" r="2.5" transform="translate(818 409)"/></g><g transform="translate(-98 -409)"><circle class="e" cx="2.5" cy="2.5" r="2.5" transform="translate(818 409)"/></g><g transform="translate(-68 -409)"><circle class="e" cx="2.5" cy="2.5" r="2.5" transform="translate(818 409)"/></g><g transform="translate(-38 -409)"><circle class="e" cx="2.5" cy="2.5" r="2.5" transform="translate(818 409)"/></g><g transform="translate(-8 -409)"><circle class="e" cx="2.5" cy="2.5" r="2.5" transform="translate(818 409)"/></g><g transform="translate(22 -409)"><circle class="e" cx="2.5" cy="2.5" r="2.5" transform="translate(818 409)"/></g><g transform="translate(52 -409)"><circle class="e" cx="2.5" cy="2.5" r="2.5" transform="translate(818 409)"/></g><g transform="translate(82 -409)"><circle class="e" cx="2.5" cy="2.5" r="2.5" transform="translate(818 409)"/></g><g transform="translate(112 -409)"><circle class="e" cx="2.5" cy="2.5" r="2.5" transform="translate(818 409)"/></g><g transform="translate(142 -409)"><circle class="e" cx="2.5" cy="2.5" r="2.5" transform="translate(818 409)"/></g><g transform="translate(172 -409)"><circle class="e" cx="2.5" cy="2.5" r="2.5" transform="translate(818 409)"/></g><g transform="translate(202 -409)"><circle class="e" cx="2.5" cy="2.5" r="2.5" transform="translate(818 409)"/></g><g transform="translate(-818 -379)"><circle class="e" cx="2.5" cy="2.5" r="2.5" transform="translate(818 409)"/></g><g transform="translate(-788 -379)"><circle class="e" cx="2.5" cy="2.5" r="2.5" transform="translate(818 409)"/></g><g transform="translate(-758 -379)"><circle class="e" cx="2.5" cy="2.5" r="2.5" transform="translate(818 409)"/></g><g transform="translate(-728 -379)"><circle class="e" cx="2.5" cy="2.5" r="2.5" transform="translate(818 409)"/></g><g transform="translate(-698 -379)"><circle class="e" cx="2.5" cy="2.5" r="2.5" transform="translate(818 409)"/></g><g transform="translate(-668 -379)"><circle class="e" cx="2.5" cy="2.5" r="2.5" transform="translate(818 409)"/></g><g transform="translate(-638 -379)"><circle class="e" cx="2.5" cy="2.5" r="2.5" transform="translate(818 409)"/></g><g transform="translate(-608 -379)"><circle class="e" cx="2.5" cy="2.5" r="2.5" transform="translate(818 409)"/></g><g transform="translate(-578 -379)"><circle class="e" cx="2.5" cy="2.5" r="2.5" transform="translate(818 409)"/></g><g transform="translate(-548 -379)"><circle class="e" cx="2.5" cy="2.5" r="2.5" transform="translate(818 409)"/></g><g transform="translate(-518 -379)"><circle class="e" cx="2.5" cy="2.5" r="2.5" transform="translate(818 409)"/></g><g transform="translate(-488 -379)"><circle class="e" cx="2.5" cy="2.5" r="2.5" transform="translate(818 409)"/></g><g transform="translate(-458 -379)"><circle class="e" cx="2.5" cy="2.5" r="2.5" transform="translate(818 409)"/></g><g transform="translate(-428 -379)"><circle class="e" cx="2.5" cy="2.5" r="2.5" transform="translate(818 409)"/></g><g transform="translate(-398 -379)"><circle class="e" cx="2.5" cy="2.5" r="2.5" transform="translate(818 409)"/></g><g transform="translate(-368 -379)"><circle class="e" cx="2.5" cy="2.5" r="2.5" transform="translate(818 409)"/></g><g transform="translate(-338 -379)"><circle class="e" cx="2.5" cy="2.5" r="2.5" transform="translate(818 409)"/></g><g transform="translate(-308 -379)"><circle class="e" cx="2.5" cy="2.5" r="2.5" transform="translate(818 409)"/></g><g transform="translate(-278 -379)"><circle class="e" cx="2.5" cy="2.5" r="2.5" transform="translate(818 409)"/></g><g transform="translate(-248 -379)"><circle class="e" cx="2.5" cy="2.5" r="2.5" transform="translate(818 409)"/></g><g transform="translate(-218 -379)"><circle class="e" cx="2.5" cy="2.5" r="2.5" transform="translate(818 409)"/></g><g transform="translate(-188 -379)"><circle class="e" cx="2.5" cy="2.5" r="2.5" transform="translate(818 409)"/></g><g transform="translate(-158 -379)"><circle class="e" cx="2.5" cy="2.5" r="2.5" transform="translate(818 409)"/></g><g transform="translate(-128 -379)"><circle class="e" cx="2.5" cy="2.5" r="2.5" transform="translate(818 409)"/></g><g transform="translate(-98 -379)"><circle class="e" cx="2.5" cy="2.5" r="2.5" transform="translate(818 409)"/></g><g transform="translate(-68 -379)"><circle class="e" cx="2.5" cy="2.5" r="2.5" transform="translate(818 409)"/></g><g transform="translate(-38 -379)"><circle class="e" cx="2.5" cy="2.5" r="2.5" transform="translate(818 409)"/></g><g transform="translate(-8 -379)"><circle class="e" cx="2.5" cy="2.5" r="2.5" transform="translate(818 409)"/></g><g transform="translate(22 -379)"><circle class="e" cx="2.5" cy="2.5" r="2.5" transform="translate(818 409)"/></g><g transform="translate(52 -379)"><circle class="e" cx="2.5" cy="2.5" r="2.5" transform="translate(818 409)"/></g><g transform="translate(82 -379)"><circle class="e" cx="2.5" cy="2.5" r="2.5" transform="translate(818 409)"/></g><g transform="translate(112 -379)"><circle class="e" cx="2.5" cy="2.5" r="2.5" transform="translate(818 409)"/></g><g transform="translate(142 -379)"><circle class="e" cx="2.5" cy="2.5" r="2.5" transform="translate(818 409)"/></g><g transform="translate(172 -379)"><circle class="e" cx="2.5" cy="2.5" r="2.5" transform="translate(818 409)"/></g><g transform="translate(202 -379)"><circle class="e" cx="2.5" cy="2.5" r="2.5" transform="translate(818 409)"/></g><g transform="translate(-818 -349)"><circle class="e" cx="2.5" cy="2.5" r="2.5" transform="translate(818 409)"/></g><g transform="translate(-788 -349)"><circle class="e" cx="2.5" cy="2.5" r="2.5" transform="translate(818 409)"/></g><g transform="translate(-758 -349)"><circle class="e" cx="2.5" cy="2.5" r="2.5" transform="translate(818 409)"/></g><g transform="translate(-728 -349)"><circle class="e" cx="2.5" cy="2.5" r="2.5" transform="translate(818 409)"/></g><g transform="translate(-698 -349)"><circle class="e" cx="2.5" cy="2.5" r="2.5" transform="translate(818 409)"/></g><g transform="translate(-668 -349)"><circle class="e" cx="2.5" cy="2.5" r="2.5" transform="translate(818 409)"/></g><g transform="translate(-638 -349)"><circle class="e" cx="2.5" cy="2.5" r="2.5" transform="translate(818 409)"/></g><g transform="translate(-608 -349)"><circle class="e" cx="2.5" cy="2.5" r="2.5" transform="translate(818 409)"/></g><g transform="translate(-578 -349)"><circle class="e" cx="2.5" cy="2.5" r="2.5" transform="translate(818 409)"/></g><g transform="translate(-548 -349)"><circle class="e" cx="2.5" cy="2.5" r="2.5" transform="translate(818 409)"/></g><g transform="translate(-518 -349)"><circle class="e" cx="2.5" cy="2.5" r="2.5" transform="translate(818 409)"/></g><g transform="translate(-488 -349)"><circle class="e" cx="2.5" cy="2.5" r="2.5" transform="translate(818 409)"/></g><g transform="translate(-458 -349)"><circle class="e" cx="2.5" cy="2.5" r="2.5" transform="translate(818 409)"/></g><g transform="translate(-428 -349)"><circle class="e" cx="2.5" cy="2.5" r="2.5" transform="translate(818 409)"/></g><g transform="translate(-398 -349)"><circle class="e" cx="2.5" cy="2.5" r="2.5" transform="translate(818 409)"/></g><g transform="translate(-368 -349)"><circle class="e" cx="2.5" cy="2.5" r="2.5" transform="translate(818 409)"/></g><g transform="translate(-338 -349)"><circle class="e" cx="2.5" cy="2.5" r="2.5" transform="translate(818 409)"/></g><g transform="translate(-308 -349)"><circle class="e" cx="2.5" cy="2.5" r="2.5" transform="translate(818 409)"/></g><g transform="translate(-278 -349)"><circle class="e" cx="2.5" cy="2.5" r="2.5" transform="translate(818 409)"/></g><g transform="translate(-248 -349)"><circle class="e" cx="2.5" cy="2.5" r="2.5" transform="translate(818 409)"/></g><g transform="translate(-218 -349)"><circle class="e" cx="2.5" cy="2.5" r="2.5" transform="translate(818 409)"/></g><g transform="translate(-188 -349)"><circle class="e" cx="2.5" cy="2.5" r="2.5" transform="translate(818 409)"/></g><g transform="translate(-158 -349)"><circle class="e" cx="2.5" cy="2.5" r="2.5" transform="translate(818 409)"/></g><g transform="translate(-128 -349)"><circle class="e" cx="2.5" cy="2.5" r="2.5" transform="translate(818 409)"/></g><g transform="translate(-98 -349)"><circle class="e" cx="2.5" cy="2.5" r="2.5" transform="translate(818 409)"/></g><g transform="translate(-68 -349)"><circle class="e" cx="2.5" cy="2.5" r="2.5" transform="translate(818 409)"/></g><g transform="translate(-38 -349)"><circle class="e" cx="2.5" cy="2.5" r="2.5" transform="translate(818 409)"/></g><g transform="translate(-8 -349)"><circle class="e" cx="2.5" cy="2.5" r="2.5" transform="translate(818 409)"/></g><g transform="translate(22 -349)"><circle class="e" cx="2.5" cy="2.5" r="2.5" transform="translate(818 409)"/></g><g transform="translate(52 -349)"><circle class="e" cx="2.5" cy="2.5" r="2.5" transform="translate(818 409)"/></g><g transform="translate(82 -349)"><circle class="e" cx="2.5" cy="2.5" r="2.5" transform="translate(818 409)"/></g><g transform="translate(112 -349)"><circle class="e" cx="2.5" cy="2.5" r="2.5" transform="translate(818 409)"/></g><g transform="translate(142 -349)"><circle class="e" cx="2.5" cy="2.5" r="2.5" transform="translate(818 409)"/></g><g transform="translate(172 -349)"><circle class="e" cx="2.5" cy="2.5" r="2.5" transform="translate(818 409)"/></g><g transform="translate(202 -349)"><circle class="e" cx="2.5" cy="2.5" r="2.5" transform="translate(818 409)"/></g><g transform="translate(-818 -319)"><circle class="e" cx="2.5" cy="2.5" r="2.5" transform="translate(818 409)"/></g><g transform="translate(-788 -319)"><circle class="e" cx="2.5" cy="2.5" r="2.5" transform="translate(818 409)"/></g><g transform="translate(-758 -319)"><circle class="e" cx="2.5" cy="2.5" r="2.5" transform="translate(818 409)"/></g><g transform="translate(-728 -319)"><circle class="e" cx="2.5" cy="2.5" r="2.5" transform="translate(818 409)"/></g><g transform="translate(-698 -319)"><circle class="e" cx="2.5" cy="2.5" r="2.5" transform="translate(818 409)"/></g><g transform="translate(-668 -319)"><circle class="e" cx="2.5" cy="2.5" r="2.5" transform="translate(818 409)"/></g><g transform="translate(-638 -319)"><circle class="e" cx="2.5" cy="2.5" r="2.5" transform="translate(818 409)"/></g><g transform="translate(-608 -319)"><circle class="e" cx="2.5" cy="2.5" r="2.5" transform="translate(818 409)"/></g><g transform="translate(-578 -319)"><circle class="e" cx="2.5" cy="2.5" r="2.5" transform="translate(818 409)"/></g><g transform="translate(-548 -319)"><circle class="e" cx="2.5" cy="2.5" r="2.5" transform="translate(818 409)"/></g><g transform="translate(-518 -319)"><circle class="e" cx="2.5" cy="2.5" r="2.5" transform="translate(818 409)"/></g><g transform="translate(-488 -319)"><circle class="e" cx="2.5" cy="2.5" r="2.5" transform="translate(818 409)"/></g><g transform="translate(-458 -319)"><circle class="e" cx="2.5" cy="2.5" r="2.5" transform="translate(818 409)"/></g><g transform="translate(-428 -319)"><circle class="e" cx="2.5" cy="2.5" r="2.5" transform="translate(818 409)"/></g><g transform="translate(-398 -319)"><circle class="e" cx="2.5" cy="2.5" r="2.5" transform="translate(818 409)"/></g><g transform="translate(-368 -319)"><circle class="e" cx="2.5" cy="2.5" r="2.5" transform="translate(818 409)"/></g><g transform="translate(-338 -319)"><circle class="e" cx="2.5" cy="2.5" r="2.5" transform="translate(818 409)"/></g><g transform="translate(-308 -319)"><circle class="e" cx="2.5" cy="2.5" r="2.5" transform="translate(818 409)"/></g><g transform="translate(-278 -319)"><circle class="e" cx="2.5" cy="2.5" r="2.5" transform="translate(818 409)"/></g><g transform="translate(-248 -319)"><circle class="e" cx="2.5" cy="2.5" r="2.5" transform="translate(818 409)"/></g><g transform="translate(-218 -319)"><circle class="e" cx="2.5" cy="2.5" r="2.5" transform="translate(818 409)"/></g><g transform="translate(-188 -319)"><circle class="e" cx="2.5" cy="2.5" r="2.5" transform="translate(818 409)"/></g><g transform="translate(-158 -319)"><circle class="e" cx="2.5" cy="2.5" r="2.5" transform="translate(818 409)"/></g><g transform="translate(-128 -319)"><circle class="e" cx="2.5" cy="2.5" r="2.5" transform="translate(818 409)"/></g><g transform="translate(-98 -319)"><circle class="e" cx="2.5" cy="2.5" r="2.5" transform="translate(818 409)"/></g><g transform="translate(-68 -319)"><circle class="e" cx="2.5" cy="2.5" r="2.5" transform="translate(818 409)"/></g><g transform="translate(-38 -319)"><circle class="e" cx="2.5" cy="2.5" r="2.5" transform="translate(818 409)"/></g><g transform="translate(-8 -319)"><circle class="e" cx="2.5" cy="2.5" r="2.5" transform="translate(818 409)"/></g><g transform="translate(22 -319)"><circle class="e" cx="2.5" cy="2.5" r="2.5" transform="translate(818 409)"/></g><g transform="translate(52 -319)"><circle class="e" cx="2.5" cy="2.5" r="2.5" transform="translate(818 409)"/></g><g transform="translate(82 -319)"><circle class="e" cx="2.5" cy="2.5" r="2.5" transform="translate(818 409)"/></g><g transform="translate(112 -319)"><circle class="e" cx="2.5" cy="2.5" r="2.5" transform="translate(818 409)"/></g><g transform="translate(142 -319)"><circle class="e" cx="2.5" cy="2.5" r="2.5" transform="translate(818 409)"/></g><g transform="translate(172 -319)"><circle class="e" cx="2.5" cy="2.5" r="2.5" transform="translate(818 409)"/></g><g transform="translate(202 -319)"><circle class="e" cx="2.5" cy="2.5" r="2.5" transform="translate(818 409)"/></g><g transform="translate(-818 -289)"><circle class="e" cx="2.5" cy="2.5" r="2.5" transform="translate(818 409)"/></g><g transform="translate(-788 -289)"><circle class="e" cx="2.5" cy="2.5" r="2.5" transform="translate(818 409)"/></g><g transform="translate(-758 -289)"><circle class="e" cx="2.5" cy="2.5" r="2.5" transform="translate(818 409)"/></g><g transform="translate(-728 -289)"><circle class="e" cx="2.5" cy="2.5" r="2.5" transform="translate(818 409)"/></g><g transform="translate(-698 -289)"><circle class="e" cx="2.5" cy="2.5" r="2.5" transform="translate(818 409)"/></g><g transform="translate(-668 -289)"><circle class="e" cx="2.5" cy="2.5" r="2.5" transform="translate(818 409)"/></g><g transform="translate(-638 -289)"><circle class="e" cx="2.5" cy="2.5" r="2.5" transform="translate(818 409)"/></g><g transform="translate(-608 -289)"><circle class="e" cx="2.5" cy="2.5" r="2.5" transform="translate(818 409)"/></g><g transform="translate(-578 -289)"><circle class="e" cx="2.5" cy="2.5" r="2.5" transform="translate(818 409)"/></g><g transform="translate(-548 -289)"><circle class="e" cx="2.5" cy="2.5" r="2.5" transform="translate(818 409)"/></g><g transform="translate(-518 -289)"><circle class="e" cx="2.5" cy="2.5" r="2.5" transform="translate(818 409)"/></g><g transform="translate(-488 -289)"><circle class="e" cx="2.5" cy="2.5" r="2.5" transform="translate(818 409)"/></g><g transform="translate(-458 -289)"><circle class="e" cx="2.5" cy="2.5" r="2.5" transform="translate(818 409)"/></g><g transform="translate(-428 -289)"><circle class="e" cx="2.5" cy="2.5" r="2.5" transform="translate(818 409)"/></g><g transform="translate(-398 -289)"><circle class="e" cx="2.5" cy="2.5" r="2.5" transform="translate(818 409)"/></g><g transform="translate(-368 -289)"><circle class="e" cx="2.5" cy="2.5" r="2.5" transform="translate(818 409)"/></g><g transform="translate(-338 -289)"><circle class="e" cx="2.5" cy="2.5" r="2.5" transform="translate(818 409)"/></g><g transform="translate(-308 -289)"><circle class="e" cx="2.5" cy="2.5" r="2.5" transform="translate(818 409)"/></g><g transform="translate(-278 -289)"><circle class="e" cx="2.5" cy="2.5" r="2.5" transform="translate(818 409)"/></g><g transform="translate(-248 -289)"><circle class="e" cx="2.5" cy="2.5" r="2.5" transform="translate(818 409)"/></g><g transform="translate(-218 -289)"><circle class="e" cx="2.5" cy="2.5" r="2.5" transform="translate(818 409)"/></g><g transform="translate(-188 -289)"><circle class="e" cx="2.5" cy="2.5" r="2.5" transform="translate(818 409)"/></g><g transform="translate(-158 -289)"><circle class="e" cx="2.5" cy="2.5" r="2.5" transform="translate(818 409)"/></g><g transform="translate(-128 -289)"><circle class="e" cx="2.5" cy="2.5" r="2.5" transform="translate(818 409)"/></g><g transform="translate(-98 -289)"><circle class="e" cx="2.5" cy="2.5" r="2.5" transform="translate(818 409)"/></g><g transform="translate(-68 -289)"><circle class="e" cx="2.5" cy="2.5" r="2.5" transform="translate(818 409)"/></g><g transform="translate(-38 -289)"><circle class="e" cx="2.5" cy="2.5" r="2.5" transform="translate(818 409)"/></g><g transform="translate(-8 -289)"><circle class="e" cx="2.5" cy="2.5" r="2.5" transform="translate(818 409)"/></g><g transform="translate(22 -289)"><circle class="e" cx="2.5" cy="2.5" r="2.5" transform="translate(818 409)"/></g><g transform="translate(52 -289)"><circle class="e" cx="2.5" cy="2.5" r="2.5" transform="translate(818 409)"/></g><g transform="translate(82 -289)"><circle class="e" cx="2.5" cy="2.5" r="2.5" transform="translate(818 409)"/></g><g transform="translate(112 -289)"><circle class="e" cx="2.5" cy="2.5" r="2.5" transform="translate(818 409)"/></g><g transform="translate(142 -289)"><circle class="e" cx="2.5" cy="2.5" r="2.5" transform="translate(818 409)"/></g><g transform="translate(172 -289)"><circle class="e" cx="2.5" cy="2.5" r="2.5" transform="translate(818 409)"/></g><g transform="translate(202 -289)"><circle class="e" cx="2.5" cy="2.5" r="2.5" transform="translate(818 409)"/></g><g transform="translate(-818 -259)"><circle class="e" cx="2.5" cy="2.5" r="2.5" transform="translate(818 409)"/></g><g transform="translate(-788 -259)"><circle class="e" cx="2.5" cy="2.5" r="2.5" transform="translate(818 409)"/></g><g transform="translate(-758 -259)"><circle class="e" cx="2.5" cy="2.5" r="2.5" transform="translate(818 409)"/></g><g transform="translate(-728 -259)"><circle class="e" cx="2.5" cy="2.5" r="2.5" transform="translate(818 409)"/></g><g transform="translate(-698 -259)"><circle class="e" cx="2.5" cy="2.5" r="2.5" transform="translate(818 409)"/></g><g transform="translate(-668 -259)"><circle class="e" cx="2.5" cy="2.5" r="2.5" transform="translate(818 409)"/></g><g transform="translate(-638 -259)"><circle class="e" cx="2.5" cy="2.5" r="2.5" transform="translate(818 409)"/></g><g transform="translate(-608 -259)"><circle class="e" cx="2.5" cy="2.5" r="2.5" transform="translate(818 409)"/></g><g transform="translate(-578 -259)"><circle class="e" cx="2.5" cy="2.5" r="2.5" transform="translate(818 409)"/></g><g transform="translate(-548 -259)"><circle class="e" cx="2.5" cy="2.5" r="2.5" transform="translate(818 409)"/></g><g transform="translate(-518 -259)"><circle class="e" cx="2.5" cy="2.5" r="2.5" transform="translate(818 409)"/></g><g transform="translate(-488 -259)"><circle class="e" cx="2.5" cy="2.5" r="2.5" transform="translate(818 409)"/></g><g transform="translate(-458 -259)"><circle class="e" cx="2.5" cy="2.5" r="2.5" transform="translate(818 409)"/></g><g transform="translate(-428 -259)"><circle class="e" cx="2.5" cy="2.5" r="2.5" transform="translate(818 409)"/></g><g transform="translate(-398 -259)"><circle class="e" cx="2.5" cy="2.5" r="2.5" transform="translate(818 409)"/></g><g transform="translate(-368 -259)"><circle class="e" cx="2.5" cy="2.5" r="2.5" transform="translate(818 409)"/></g><g transform="translate(-338 -259)"><circle class="e" cx="2.5" cy="2.5" r="2.5" transform="translate(818 409)"/></g><g transform="translate(-308 -259)"><circle class="e" cx="2.5" cy="2.5" r="2.5" transform="translate(818 409)"/></g><g transform="translate(-278 -259)"><circle class="e" cx="2.5" cy="2.5" r="2.5" transform="translate(818 409)"/></g><g transform="translate(-248 -259)"><circle class="e" cx="2.5" cy="2.5" r="2.5" transform="translate(818 409)"/></g><g transform="translate(-218 -259)"><circle class="e" cx="2.5" cy="2.5" r="2.5" transform="translate(818 409)"/></g><g transform="translate(-188 -259)"><circle class="e" cx="2.5" cy="2.5" r="2.5" transform="translate(818 409)"/></g><g transform="translate(-158 -259)"><circle class="e" cx="2.5" cy="2.5" r="2.5" transform="translate(818 409)"/></g><g transform="translate(-128 -259)"><circle class="e" cx="2.5" cy="2.5" r="2.5" transform="translate(818 409)"/></g><g transform="translate(-98 -259)"><circle class="e" cx="2.5" cy="2.5" r="2.5" transform="translate(818 409)"/></g><g transform="translate(-68 -259)"><circle class="e" cx="2.5" cy="2.5" r="2.5" transform="translate(818 409)"/></g><g transform="translate(-38 -259)"><circle class="e" cx="2.5" cy="2.5" r="2.5" transform="translate(818 409)"/></g><g transform="translate(-8 -259)"><circle class="e" cx="2.5" cy="2.5" r="2.5" transform="translate(818 409)"/></g><g transform="translate(22 -259)"><circle class="e" cx="2.5" cy="2.5" r="2.5" transform="translate(818 409)"/></g><g transform="translate(52 -259)"><circle class="e" cx="2.5" cy="2.5" r="2.5" transform="translate(818 409)"/></g><g transform="translate(82 -259)"><circle class="e" cx="2.5" cy="2.5" r="2.5" transform="translate(818 409)"/></g><g transform="translate(112 -259)"><circle class="e" cx="2.5" cy="2.5" r="2.5" transform="translate(818 409)"/></g><g transform="translate(142 -259)"><circle class="e" cx="2.5" cy="2.5" r="2.5" transform="translate(818 409)"/></g><g transform="translate(172 -259)"><circle class="e" cx="2.5" cy="2.5" r="2.5" transform="translate(818 409)"/></g><g transform="translate(202 -259)"><circle class="e" cx="2.5" cy="2.5" r="2.5" transform="translate(818 409)"/></g><g transform="translate(-818 -229)"><circle class="e" cx="2.5" cy="2.5" r="2.5" transform="translate(818 409)"/></g><g transform="translate(-788 -229)"><circle class="e" cx="2.5" cy="2.5" r="2.5" transform="translate(818 409)"/></g><g transform="translate(-758 -229)"><circle class="e" cx="2.5" cy="2.5" r="2.5" transform="translate(818 409)"/></g><g transform="translate(-728 -229)"><circle class="e" cx="2.5" cy="2.5" r="2.5" transform="translate(818 409)"/></g><g transform="translate(-698 -229)"><circle class="e" cx="2.5" cy="2.5" r="2.5" transform="translate(818 409)"/></g><g transform="translate(-668 -229)"><circle class="e" cx="2.5" cy="2.5" r="2.5" transform="translate(818 409)"/></g><g transform="translate(-638 -229)"><circle class="e" cx="2.5" cy="2.5" r="2.5" transform="translate(818 409)"/></g><g transform="translate(-608 -229)"><circle class="e" cx="2.5" cy="2.5" r="2.5" transform="translate(818 409)"/></g><g transform="translate(-578 -229)"><circle class="e" cx="2.5" cy="2.5" r="2.5" transform="translate(818 409)"/></g><g transform="translate(-548 -229)"><circle class="e" cx="2.5" cy="2.5" r="2.5" transform="translate(818 409)"/></g><g transform="translate(-518 -229)"><circle class="e" cx="2.5" cy="2.5" r="2.5" transform="translate(818 409)"/></g><g transform="translate(-488 -229)"><circle class="e" cx="2.5" cy="2.5" r="2.5" transform="translate(818 409)"/></g><g transform="translate(-458 -229)"><circle class="e" cx="2.5" cy="2.5" r="2.5" transform="translate(818 409)"/></g><g transform="translate(-428 -229)"><circle class="e" cx="2.5" cy="2.5" r="2.5" transform="translate(818 409)"/></g><g transform="translate(-398 -229)"><circle class="e" cx="2.5" cy="2.5" r="2.5" transform="translate(818 409)"/></g><g transform="translate(-368 -229)"><circle class="e" cx="2.5" cy="2.5" r="2.5" transform="translate(818 409)"/></g><g transform="translate(-338 -229)"><circle class="e" cx="2.5" cy="2.5" r="2.5" transform="translate(818 409)"/></g><g transform="translate(-308 -229)"><circle class="e" cx="2.5" cy="2.5" r="2.5" transform="translate(818 409)"/></g><g transform="translate(-278 -229)"><circle class="e" cx="2.5" cy="2.5" r="2.5" transform="translate(818 409)"/></g><g transform="translate(-248 -229)"><circle class="e" cx="2.5" cy="2.5" r="2.5" transform="translate(818 409)"/></g><g transform="translate(-218 -229)"><circle class="e" cx="2.5" cy="2.5" r="2.5" transform="translate(818 409)"/></g><g transform="translate(-188 -229)"><circle class="e" cx="2.5" cy="2.5" r="2.5" transform="translate(818 409)"/></g><g transform="translate(-158 -229)"><circle class="e" cx="2.5" cy="2.5" r="2.5" transform="translate(818 409)"/></g><g transform="translate(-128 -229)"><circle class="e" cx="2.5" cy="2.5" r="2.5" transform="translate(818 409)"/></g><g transform="translate(-98 -229)"><circle class="e" cx="2.5" cy="2.5" r="2.5" transform="translate(818 409)"/></g><g transform="translate(-68 -229)"><circle class="e" cx="2.5" cy="2.5" r="2.5" transform="translate(818 409)"/></g><g transform="translate(-38 -229)"><circle class="e" cx="2.5" cy="2.5" r="2.5" transform="translate(818 409)"/></g><g transform="translate(-8 -229)"><circle class="e" cx="2.5" cy="2.5" r="2.5" transform="translate(818 409)"/></g><g transform="translate(22 -229)"><circle class="e" cx="2.5" cy="2.5" r="2.5" transform="translate(818 409)"/></g><g transform="translate(52 -229)"><circle class="e" cx="2.5" cy="2.5" r="2.5" transform="translate(818 409)"/></g><g transform="translate(82 -229)"><circle class="e" cx="2.5" cy="2.5" r="2.5" transform="translate(818 409)"/></g><g transform="translate(112 -229)"><circle class="e" cx="2.5" cy="2.5" r="2.5" transform="translate(818 409)"/></g><g transform="translate(142 -229)"><circle class="e" cx="2.5" cy="2.5" r="2.5" transform="translate(818 409)"/></g><g transform="translate(172 -229)"><circle class="e" cx="2.5" cy="2.5" r="2.5" transform="translate(818 409)"/></g><g transform="translate(202 -229)"><circle class="e" cx="2.5" cy="2.5" r="2.5" transform="translate(818 409)"/></g><g transform="translate(-818 -199)"><circle class="e" cx="2.5" cy="2.5" r="2.5" transform="translate(818 409)"/></g><g transform="translate(-788 -199)"><circle class="e" cx="2.5" cy="2.5" r="2.5" transform="translate(818 409)"/></g><g transform="translate(-758 -199)"><circle class="e" cx="2.5" cy="2.5" r="2.5" transform="translate(818 409)"/></g><g transform="translate(-728 -199)"><circle class="e" cx="2.5" cy="2.5" r="2.5" transform="translate(818 409)"/></g><g transform="translate(-698 -199)"><circle class="e" cx="2.5" cy="2.5" r="2.5" transform="translate(818 409)"/></g><g transform="translate(-668 -199)"><circle class="e" cx="2.5" cy="2.5" r="2.5" transform="translate(818 409)"/></g><g transform="translate(-638 -199)"><circle class="e" cx="2.5" cy="2.5" r="2.5" transform="translate(818 409)"/></g><g transform="translate(-608 -199)"><circle class="e" cx="2.5" cy="2.5" r="2.5" transform="translate(818 409)"/></g><g transform="translate(-578 -199)"><circle class="e" cx="2.5" cy="2.5" r="2.5" transform="translate(818 409)"/></g><g transform="translate(-548 -199)"><circle class="e" cx="2.5" cy="2.5" r="2.5" transform="translate(818 409)"/></g><g transform="translate(-518 -199)"><circle class="e" cx="2.5" cy="2.5" r="2.5" transform="translate(818 409)"/></g><g transform="translate(-488 -199)"><circle class="e" cx="2.5" cy="2.5" r="2.5" transform="translate(818 409)"/></g><g transform="translate(-458 -199)"><circle class="e" cx="2.5" cy="2.5" r="2.5" transform="translate(818 409)"/></g><g transform="translate(-428 -199)"><circle class="e" cx="2.5" cy="2.5" r="2.5" transform="translate(818 409)"/></g><g transform="translate(-398 -199)"><circle class="e" cx="2.5" cy="2.5" r="2.5" transform="translate(818 409)"/></g><g transform="translate(-368 -199)"><circle class="e" cx="2.5" cy="2.5" r="2.5" transform="translate(818 409)"/></g><g transform="translate(-338 -199)"><circle class="e" cx="2.5" cy="2.5" r="2.5" transform="translate(818 409)"/></g><g transform="translate(-308 -199)"><circle class="e" cx="2.5" cy="2.5" r="2.5" transform="translate(818 409)"/></g><g transform="translate(-278 -199)"><circle class="e" cx="2.5" cy="2.5" r="2.5" transform="translate(818 409)"/></g><g transform="translate(-248 -199)"><circle class="e" cx="2.5" cy="2.5" r="2.5" transform="translate(818 409)"/></g><g transform="translate(-218 -199)"><circle class="e" cx="2.5" cy="2.5" r="2.5" transform="translate(818 409)"/></g><g transform="translate(-188 -199)"><circle class="e" cx="2.5" cy="2.5" r="2.5" transform="translate(818 409)"/></g><g transform="translate(-158 -199)"><circle class="e" cx="2.5" cy="2.5" r="2.5" transform="translate(818 409)"/></g><g transform="translate(-128 -199)"><circle class="e" cx="2.5" cy="2.5" r="2.5" transform="translate(818 409)"/></g><g transform="translate(-98 -199)"><circle class="e" cx="2.5" cy="2.5" r="2.5" transform="translate(818 409)"/></g><g transform="translate(-68 -199)"><circle class="e" cx="2.5" cy="2.5" r="2.5" transform="translate(818 409)"/></g><g transform="translate(-38 -199)"><circle class="e" cx="2.5" cy="2.5" r="2.5" transform="translate(818 409)"/></g><g transform="translate(-8 -199)"><circle class="e" cx="2.5" cy="2.5" r="2.5" transform="translate(818 409)"/></g><g transform="translate(22 -199)"><circle class="e" cx="2.5" cy="2.5" r="2.5" transform="translate(818 409)"/></g><g transform="translate(52 -199)"><circle class="e" cx="2.5" cy="2.5" r="2.5" transform="translate(818 409)"/></g><g transform="translate(82 -199)"><circle class="e" cx="2.5" cy="2.5" r="2.5" transform="translate(818 409)"/></g><g transform="translate(112 -199)"><circle class="e" cx="2.5" cy="2.5" r="2.5" transform="translate(818 409)"/></g><g transform="translate(142 -199)"><circle class="e" cx="2.5" cy="2.5" r="2.5" transform="translate(818 409)"/></g><g transform="translate(172 -199)"><circle class="e" cx="2.5" cy="2.5" r="2.5" transform="translate(818 409)"/></g><g transform="translate(202 -199)"><circle class="e" cx="2.5" cy="2.5" r="2.5" transform="translate(818 409)"/></g><g transform="translate(-818 -169)"><circle class="e" cx="2.5" cy="2.5" r="2.5" transform="translate(818 409)"/></g><g transform="translate(-788 -169)"><circle class="e" cx="2.5" cy="2.5" r="2.5" transform="translate(818 409)"/></g><g transform="translate(-758 -169)"><circle class="e" cx="2.5" cy="2.5" r="2.5" transform="translate(818 409)"/></g><g transform="translate(-728 -169)"><circle class="e" cx="2.5" cy="2.5" r="2.5" transform="translate(818 409)"/></g><g transform="translate(-698 -169)"><circle class="e" cx="2.5" cy="2.5" r="2.5" transform="translate(818 409)"/></g><g transform="translate(-668 -169)"><circle class="e" cx="2.5" cy="2.5" r="2.5" transform="translate(818 409)"/></g><g transform="translate(-638 -169)"><circle class="e" cx="2.5" cy="2.5" r="2.5" transform="translate(818 409)"/></g><g transform="translate(-608 -169)"><circle class="e" cx="2.5" cy="2.5" r="2.5" transform="translate(818 409)"/></g><g transform="translate(-578 -169)"><circle class="e" cx="2.5" cy="2.5" r="2.5" transform="translate(818 409)"/></g><g transform="translate(-548 -169)"><circle class="e" cx="2.5" cy="2.5" r="2.5" transform="translate(818 409)"/></g><g transform="translate(-518 -169)"><circle class="e" cx="2.5" cy="2.5" r="2.5" transform="translate(818 409)"/></g><g transform="translate(-488 -169)"><circle class="e" cx="2.5" cy="2.5" r="2.5" transform="translate(818 409)"/></g><g transform="translate(-458 -169)"><circle class="e" cx="2.5" cy="2.5" r="2.5" transform="translate(818 409)"/></g><g transform="translate(-428 -169)"><circle class="e" cx="2.5" cy="2.5" r="2.5" transform="translate(818 409)"/></g><g transform="translate(-398 -169)"><circle class="e" cx="2.5" cy="2.5" r="2.5" transform="translate(818 409)"/></g><g transform="translate(-368 -169)"><circle class="e" cx="2.5" cy="2.5" r="2.5" transform="translate(818 409)"/></g><g transform="translate(-338 -169)"><circle class="e" cx="2.5" cy="2.5" r="2.5" transform="translate(818 409)"/></g><g transform="translate(-308 -169)"><circle class="e" cx="2.5" cy="2.5" r="2.5" transform="translate(818 409)"/></g><g transform="translate(-278 -169)"><circle class="e" cx="2.5" cy="2.5" r="2.5" transform="translate(818 409)"/></g><g transform="translate(-248 -169)"><circle class="e" cx="2.5" cy="2.5" r="2.5" transform="translate(818 409)"/></g><g transform="translate(-218 -169)"><circle class="e" cx="2.5" cy="2.5" r="2.5" transform="translate(818 409)"/></g><g transform="translate(-188 -169)"><circle class="e" cx="2.5" cy="2.5" r="2.5" transform="translate(818 409)"/></g><g transform="translate(-158 -169)"><circle class="e" cx="2.5" cy="2.5" r="2.5" transform="translate(818 409)"/></g><g transform="translate(-128 -169)"><circle class="e" cx="2.5" cy="2.5" r="2.5" transform="translate(818 409)"/></g><g transform="translate(-98 -169)"><circle class="e" cx="2.5" cy="2.5" r="2.5" transform="translate(818 409)"/></g><g transform="translate(-68 -169)"><circle class="e" cx="2.5" cy="2.5" r="2.5" transform="translate(818 409)"/></g><g transform="translate(-38 -169)"><circle class="e" cx="2.5" cy="2.5" r="2.5" transform="translate(818 409)"/></g><g transform="translate(-8 -169)"><circle class="e" cx="2.5" cy="2.5" r="2.5" transform="translate(818 409)"/></g><g transform="translate(22 -169)"><circle class="e" cx="2.5" cy="2.5" r="2.5" transform="translate(818 409)"/></g><g transform="translate(52 -169)"><circle class="e" cx="2.5" cy="2.5" r="2.5" transform="translate(818 409)"/></g><g transform="translate(82 -169)"><circle class="e" cx="2.5" cy="2.5" r="2.5" transform="translate(818 409)"/></g><g transform="translate(112 -169)"><circle class="e" cx="2.5" cy="2.5" r="2.5" transform="translate(818 409)"/></g><g transform="translate(142 -169)"><circle class="e" cx="2.5" cy="2.5" r="2.5" transform="translate(818 409)"/></g><g transform="translate(172 -169)"><circle class="e" cx="2.5" cy="2.5" r="2.5" transform="translate(818 409)"/></g><g transform="translate(202 -169)"><circle class="e" cx="2.5" cy="2.5" r="2.5" transform="translate(818 409)"/></g><g transform="translate(-818 -139)"><circle class="e" cx="2.5" cy="2.5" r="2.5" transform="translate(818 409)"/></g><g transform="translate(-788 -139)"><circle class="e" cx="2.5" cy="2.5" r="2.5" transform="translate(818 409)"/></g><g transform="translate(-758 -139)"><circle class="e" cx="2.5" cy="2.5" r="2.5" transform="translate(818 409)"/></g><g transform="translate(-728 -139)"><circle class="e" cx="2.5" cy="2.5" r="2.5" transform="translate(818 409)"/></g><g transform="translate(-698 -139)"><circle class="e" cx="2.5" cy="2.5" r="2.5" transform="translate(818 409)"/></g><g transform="translate(-668 -139)"><circle class="e" cx="2.5" cy="2.5" r="2.5" transform="translate(818 409)"/></g><g transform="translate(-638 -139)"><circle class="e" cx="2.5" cy="2.5" r="2.5" transform="translate(818 409)"/></g><g transform="translate(-608 -139)"><circle class="e" cx="2.5" cy="2.5" r="2.5" transform="translate(818 409)"/></g><g transform="translate(-578 -139)"><circle class="e" cx="2.5" cy="2.5" r="2.5" transform="translate(818 409)"/></g><g transform="translate(-548 -139)"><circle class="e" cx="2.5" cy="2.5" r="2.5" transform="translate(818 409)"/></g><g transform="translate(-518 -139)"><circle class="e" cx="2.5" cy="2.5" r="2.5" transform="translate(818 409)"/></g><g transform="translate(-488 -139)"><circle class="e" cx="2.5" cy="2.5" r="2.5" transform="translate(818 409)"/></g><g transform="translate(-458 -139)"><circle class="e" cx="2.5" cy="2.5" r="2.5" transform="translate(818 409)"/></g><g transform="translate(-428 -139)"><circle class="e" cx="2.5" cy="2.5" r="2.5" transform="translate(818 409)"/></g><g transform="translate(-398 -139)"><circle class="e" cx="2.5" cy="2.5" r="2.5" transform="translate(818 409)"/></g><g transform="translate(-368 -139)"><circle class="e" cx="2.5" cy="2.5" r="2.5" transform="translate(818 409)"/></g><g transform="translate(-338 -139)"><circle class="e" cx="2.5" cy="2.5" r="2.5" transform="translate(818 409)"/></g><g transform="translate(-308 -139)"><circle class="e" cx="2.5" cy="2.5" r="2.5" transform="translate(818 409)"/></g><g transform="translate(-278 -139)"><circle class="e" cx="2.5" cy="2.5" r="2.5" transform="translate(818 409)"/></g><g transform="translate(-248 -139)"><circle class="e" cx="2.5" cy="2.5" r="2.5" transform="translate(818 409)"/></g><g transform="translate(-218 -139)"><circle class="e" cx="2.5" cy="2.5" r="2.5" transform="translate(818 409)"/></g><g transform="translate(-188 -139)"><circle class="e" cx="2.5" cy="2.5" r="2.5" transform="translate(818 409)"/></g><g transform="translate(-158 -139)"><circle class="e" cx="2.5" cy="2.5" r="2.5" transform="translate(818 409)"/></g><g transform="translate(-128 -139)"><circle class="e" cx="2.5" cy="2.5" r="2.5" transform="translate(818 409)"/></g><g transform="translate(-98 -139)"><circle class="e" cx="2.5" cy="2.5" r="2.5" transform="translate(818 409)"/></g><g transform="translate(-68 -139)"><circle class="e" cx="2.5" cy="2.5" r="2.5" transform="translate(818 409)"/></g><g transform="translate(-38 -139)"><circle class="e" cx="2.5" cy="2.5" r="2.5" transform="translate(818 409)"/></g><g transform="translate(-8 -139)"><circle class="e" cx="2.5" cy="2.5" r="2.5" transform="translate(818 409)"/></g><g transform="translate(22 -139)"><circle class="e" cx="2.5" cy="2.5" r="2.5" transform="translate(818 409)"/></g><g transform="translate(52 -139)"><circle class="e" cx="2.5" cy="2.5" r="2.5" transform="translate(818 409)"/></g><g transform="translate(82 -139)"><circle class="e" cx="2.5" cy="2.5" r="2.5" transform="translate(818 409)"/></g><g transform="translate(112 -139)"><circle class="e" cx="2.5" cy="2.5" r="2.5" transform="translate(818 409)"/></g><g transform="translate(142 -139)"><circle class="e" cx="2.5" cy="2.5" r="2.5" transform="translate(818 409)"/></g><g transform="translate(172 -139)"><circle class="e" cx="2.5" cy="2.5" r="2.5" transform="translate(818 409)"/></g><g transform="translate(202 -139)"><circle class="e" cx="2.5" cy="2.5" r="2.5" transform="translate(818 409)"/></g><g transform="translate(-818 -109)"><circle class="e" cx="2.5" cy="2.5" r="2.5" transform="translate(818 409)"/></g><g transform="translate(-788 -109)"><circle class="e" cx="2.5" cy="2.5" r="2.5" transform="translate(818 409)"/></g><g transform="translate(-758 -109)"><circle class="e" cx="2.5" cy="2.5" r="2.5" transform="translate(818 409)"/></g><g transform="translate(-728 -109)"><circle class="e" cx="2.5" cy="2.5" r="2.5" transform="translate(818 409)"/></g><g transform="translate(-698 -109)"><circle class="e" cx="2.5" cy="2.5" r="2.5" transform="translate(818 409)"/></g><g transform="translate(-668 -109)"><circle class="e" cx="2.5" cy="2.5" r="2.5" transform="translate(818 409)"/></g><g transform="translate(-638 -109)"><circle class="e" cx="2.5" cy="2.5" r="2.5" transform="translate(818 409)"/></g><g transform="translate(-608 -109)"><circle class="e" cx="2.5" cy="2.5" r="2.5" transform="translate(818 409)"/></g><g transform="translate(-578 -109)"><circle class="e" cx="2.5" cy="2.5" r="2.5" transform="translate(818 409)"/></g><g transform="translate(-548 -109)"><circle class="e" cx="2.5" cy="2.5" r="2.5" transform="translate(818 409)"/></g><g transform="translate(-518 -109)"><circle class="e" cx="2.5" cy="2.5" r="2.5" transform="translate(818 409)"/></g><g transform="translate(-488 -109)"><circle class="e" cx="2.5" cy="2.5" r="2.5" transform="translate(818 409)"/></g><g transform="translate(-458 -109)"><circle class="e" cx="2.5" cy="2.5" r="2.5" transform="translate(818 409)"/></g><g transform="translate(-428 -109)"><circle class="e" cx="2.5" cy="2.5" r="2.5" transform="translate(818 409)"/></g><g transform="translate(-398 -109)"><circle class="e" cx="2.5" cy="2.5" r="2.5" transform="translate(818 409)"/></g><g transform="translate(-368 -109)"><circle class="e" cx="2.5" cy="2.5" r="2.5" transform="translate(818 409)"/></g><g transform="translate(-338 -109)"><circle class="e" cx="2.5" cy="2.5" r="2.5" transform="translate(818 409)"/></g><g transform="translate(-308 -109)"><circle class="e" cx="2.5" cy="2.5" r="2.5" transform="translate(818 409)"/></g><g transform="translate(-278 -109)"><circle class="e" cx="2.5" cy="2.5" r="2.5" transform="translate(818 409)"/></g><g transform="translate(-248 -109)"><circle class="e" cx="2.5" cy="2.5" r="2.5" transform="translate(818 409)"/></g><g transform="translate(-218 -109)"><circle class="e" cx="2.5" cy="2.5" r="2.5" transform="translate(818 409)"/></g><g transform="translate(-188 -109)"><circle class="e" cx="2.5" cy="2.5" r="2.5" transform="translate(818 409)"/></g><g transform="translate(-158 -109)"><circle class="e" cx="2.5" cy="2.5" r="2.5" transform="translate(818 409)"/></g><g transform="translate(-128 -109)"><circle class="e" cx="2.5" cy="2.5" r="2.5" transform="translate(818 409)"/></g><g transform="translate(-98 -109)"><circle class="e" cx="2.5" cy="2.5" r="2.5" transform="translate(818 409)"/></g><g transform="translate(-68 -109)"><circle class="e" cx="2.5" cy="2.5" r="2.5" transform="translate(818 409)"/></g><g transform="translate(-38 -109)"><circle class="e" cx="2.5" cy="2.5" r="2.5" transform="translate(818 409)"/></g><g transform="translate(-8 -109)"><circle class="e" cx="2.5" cy="2.5" r="2.5" transform="translate(818 409)"/></g><g transform="translate(22 -109)"><circle class="e" cx="2.5" cy="2.5" r="2.5" transform="translate(818 409)"/></g><g transform="translate(52 -109)"><circle class="e" cx="2.5" cy="2.5" r="2.5" transform="translate(818 409)"/></g><g transform="translate(82 -109)"><circle class="e" cx="2.5" cy="2.5" r="2.5" transform="translate(818 409)"/></g><g transform="translate(112 -109)"><circle class="e" cx="2.5" cy="2.5" r="2.5" transform="translate(818 409)"/></g><g transform="translate(142 -109)"><circle class="e" cx="2.5" cy="2.5" r="2.5" transform="translate(818 409)"/></g><g transform="translate(172 -109)"><circle class="e" cx="2.5" cy="2.5" r="2.5" transform="translate(818 409)"/></g><g transform="translate(202 -109)"><circle class="e" cx="2.5" cy="2.5" r="2.5" transform="translate(818 409)"/></g><g transform="translate(-818 -79)"><circle class="e" cx="2.5" cy="2.5" r="2.5" transform="translate(818 409)"/></g><g transform="translate(-788 -79)"><circle class="e" cx="2.5" cy="2.5" r="2.5" transform="translate(818 409)"/></g><g transform="translate(-758 -79)"><circle class="e" cx="2.5" cy="2.5" r="2.5" transform="translate(818 409)"/></g><g transform="translate(-728 -79)"><circle class="e" cx="2.5" cy="2.5" r="2.5" transform="translate(818 409)"/></g><g transform="translate(-698 -79)"><circle class="e" cx="2.5" cy="2.5" r="2.5" transform="translate(818 409)"/></g><g transform="translate(-668 -79)"><circle class="e" cx="2.5" cy="2.5" r="2.5" transform="translate(818 409)"/></g><g transform="translate(-638 -79)"><circle class="e" cx="2.5" cy="2.5" r="2.5" transform="translate(818 409)"/></g><g transform="translate(-608 -79)"><circle class="e" cx="2.5" cy="2.5" r="2.5" transform="translate(818 409)"/></g><g transform="translate(-578 -79)"><circle class="e" cx="2.5" cy="2.5" r="2.5" transform="translate(818 409)"/></g><g transform="translate(-548 -79)"><circle class="e" cx="2.5" cy="2.5" r="2.5" transform="translate(818 409)"/></g><g transform="translate(-518 -79)"><circle class="e" cx="2.5" cy="2.5" r="2.5" transform="translate(818 409)"/></g><g transform="translate(-488 -79)"><circle class="e" cx="2.5" cy="2.5" r="2.5" transform="translate(818 409)"/></g><g transform="translate(-458 -79)"><circle class="e" cx="2.5" cy="2.5" r="2.5" transform="translate(818 409)"/></g><g transform="translate(-428 -79)"><circle class="e" cx="2.5" cy="2.5" r="2.5" transform="translate(818 409)"/></g><g transform="translate(-398 -79)"><circle class="e" cx="2.5" cy="2.5" r="2.5" transform="translate(818 409)"/></g><g transform="translate(-368 -79)"><circle class="e" cx="2.5" cy="2.5" r="2.5" transform="translate(818 409)"/></g><g transform="translate(-338 -79)"><circle class="e" cx="2.5" cy="2.5" r="2.5" transform="translate(818 409)"/></g><g transform="translate(-308 -79)"><circle class="e" cx="2.5" cy="2.5" r="2.5" transform="translate(818 409)"/></g><g transform="translate(-278 -79)"><circle class="e" cx="2.5" cy="2.5" r="2.5" transform="translate(818 409)"/></g><g transform="translate(-248 -79)"><circle class="e" cx="2.5" cy="2.5" r="2.5" transform="translate(818 409)"/></g><g transform="translate(-218 -79)"><circle class="e" cx="2.5" cy="2.5" r="2.5" transform="translate(818 409)"/></g><g transform="translate(-188 -79)"><circle class="e" cx="2.5" cy="2.5" r="2.5" transform="translate(818 409)"/></g><g transform="translate(-158 -79)"><circle class="e" cx="2.5" cy="2.5" r="2.5" transform="translate(818 409)"/></g><g transform="translate(-128 -79)"><circle class="e" cx="2.5" cy="2.5" r="2.5" transform="translate(818 409)"/></g><g transform="translate(-98 -79)"><circle class="e" cx="2.5" cy="2.5" r="2.5" transform="translate(818 409)"/></g><g transform="translate(-68 -79)"><circle class="e" cx="2.5" cy="2.5" r="2.5" transform="translate(818 409)"/></g><g transform="translate(-38 -79)"><circle class="e" cx="2.5" cy="2.5" r="2.5" transform="translate(818 409)"/></g><g transform="translate(-8 -79)"><circle class="e" cx="2.5" cy="2.5" r="2.5" transform="translate(818 409)"/></g><g transform="translate(22 -79)"><circle class="e" cx="2.5" cy="2.5" r="2.5" transform="translate(818 409)"/></g><g transform="translate(52 -79)"><circle class="e" cx="2.5" cy="2.5" r="2.5" transform="translate(818 409)"/></g><g transform="translate(82 -79)"><circle class="e" cx="2.5" cy="2.5" r="2.5" transform="translate(818 409)"/></g><g transform="translate(112 -79)"><circle class="e" cx="2.5" cy="2.5" r="2.5" transform="translate(818 409)"/></g><g transform="translate(142 -79)"><circle class="e" cx="2.5" cy="2.5" r="2.5" transform="translate(818 409)"/></g><g transform="translate(172 -79)"><circle class="e" cx="2.5" cy="2.5" r="2.5" transform="translate(818 409)"/></g><g transform="translate(202 -79)"><circle class="e" cx="2.5" cy="2.5" r="2.5" transform="translate(818 409)"/></g><g transform="translate(-818 -49)"><circle class="e" cx="2.5" cy="2.5" r="2.5" transform="translate(818 409)"/></g><g transform="translate(-788 -49)"><circle class="e" cx="2.5" cy="2.5" r="2.5" transform="translate(818 409)"/></g><g transform="translate(-758 -49)"><circle class="e" cx="2.5" cy="2.5" r="2.5" transform="translate(818 409)"/></g><g transform="translate(-728 -49)"><circle class="e" cx="2.5" cy="2.5" r="2.5" transform="translate(818 409)"/></g><g transform="translate(-698 -49)"><circle class="e" cx="2.5" cy="2.5" r="2.5" transform="translate(818 409)"/></g><g transform="translate(-668 -49)"><circle class="e" cx="2.5" cy="2.5" r="2.5" transform="translate(818 409)"/></g><g transform="translate(-638 -49)"><circle class="e" cx="2.5" cy="2.5" r="2.5" transform="translate(818 409)"/></g><g transform="translate(-608 -49)"><circle class="e" cx="2.5" cy="2.5" r="2.5" transform="translate(818 409)"/></g><g transform="translate(-578 -49)"><circle class="e" cx="2.5" cy="2.5" r="2.5" transform="translate(818 409)"/></g><g transform="translate(-548 -49)"><circle class="e" cx="2.5" cy="2.5" r="2.5" transform="translate(818 409)"/></g><g transform="translate(-518 -49)"><circle class="e" cx="2.5" cy="2.5" r="2.5" transform="translate(818 409)"/></g><g transform="translate(-488 -49)"><circle class="e" cx="2.5" cy="2.5" r="2.5" transform="translate(818 409)"/></g><g transform="translate(-458 -49)"><circle class="e" cx="2.5" cy="2.5" r="2.5" transform="translate(818 409)"/></g><g transform="translate(-428 -49)"><circle class="e" cx="2.5" cy="2.5" r="2.5" transform="translate(818 409)"/></g><g transform="translate(-398 -49)"><circle class="e" cx="2.5" cy="2.5" r="2.5" transform="translate(818 409)"/></g><g transform="translate(-368 -49)"><circle class="e" cx="2.5" cy="2.5" r="2.5" transform="translate(818 409)"/></g><g transform="translate(-338 -49)"><circle class="e" cx="2.5" cy="2.5" r="2.5" transform="translate(818 409)"/></g><g transform="translate(-308 -49)"><circle class="e" cx="2.5" cy="2.5" r="2.5" transform="translate(818 409)"/></g><g transform="translate(-278 -49)"><circle class="e" cx="2.5" cy="2.5" r="2.5" transform="translate(818 409)"/></g><g transform="translate(-248 -49)"><circle class="e" cx="2.5" cy="2.5" r="2.5" transform="translate(818 409)"/></g><g transform="translate(-218 -49)"><circle class="e" cx="2.5" cy="2.5" r="2.5" transform="translate(818 409)"/></g><g transform="translate(-188 -49)"><circle class="e" cx="2.5" cy="2.5" r="2.5" transform="translate(818 409)"/></g><g transform="translate(-158 -49)"><circle class="e" cx="2.5" cy="2.5" r="2.5" transform="translate(818 409)"/></g><g transform="translate(-128 -49)"><circle class="e" cx="2.5" cy="2.5" r="2.5" transform="translate(818 409)"/></g><g transform="translate(-98 -49)"><circle class="e" cx="2.5" cy="2.5" r="2.5" transform="translate(818 409)"/></g><g transform="translate(-68 -49)"><circle class="e" cx="2.5" cy="2.5" r="2.5" transform="translate(818 409)"/></g><g transform="translate(-38 -49)"><circle class="e" cx="2.5" cy="2.5" r="2.5" transform="translate(818 409)"/></g><g transform="translate(-8 -49)"><circle class="e" cx="2.5" cy="2.5" r="2.5" transform="translate(818 409)"/></g><g transform="translate(22 -49)"><circle class="e" cx="2.5" cy="2.5" r="2.5" transform="translate(818 409)"/></g><g transform="translate(52 -49)"><circle class="e" cx="2.5" cy="2.5" r="2.5" transform="translate(818 409)"/></g><g transform="translate(82 -49)"><circle class="e" cx="2.5" cy="2.5" r="2.5" transform="translate(818 409)"/></g><g transform="translate(112 -49)"><circle class="e" cx="2.5" cy="2.5" r="2.5" transform="translate(818 409)"/></g><g transform="translate(142 -49)"><circle class="e" cx="2.5" cy="2.5" r="2.5" transform="translate(818 409)"/></g><g transform="translate(172 -49)"><circle class="e" cx="2.5" cy="2.5" r="2.5" transform="translate(818 409)"/></g><g transform="translate(202 -49)"><circle class="e" cx="2.5" cy="2.5" r="2.5" transform="translate(818 409)"/></g><g transform="translate(-818 -19)"><circle class="e" cx="2.5" cy="2.5" r="2.5" transform="translate(818 409)"/></g><g transform="translate(-788 -19)"><circle class="e" cx="2.5" cy="2.5" r="2.5" transform="translate(818 409)"/></g><g transform="translate(-758 -19)"><circle class="e" cx="2.5" cy="2.5" r="2.5" transform="translate(818 409)"/></g><g transform="translate(-728 -19)"><circle class="e" cx="2.5" cy="2.5" r="2.5" transform="translate(818 409)"/></g><g transform="translate(-698 -19)"><circle class="e" cx="2.5" cy="2.5" r="2.5" transform="translate(818 409)"/></g><g transform="translate(-668 -19)"><circle class="e" cx="2.5" cy="2.5" r="2.5" transform="translate(818 409)"/></g><g transform="translate(-638 -19)"><circle class="e" cx="2.5" cy="2.5" r="2.5" transform="translate(818 409)"/></g><g transform="translate(-608 -19)"><circle class="e" cx="2.5" cy="2.5" r="2.5" transform="translate(818 409)"/></g><g transform="translate(-578 -19)"><circle class="e" cx="2.5" cy="2.5" r="2.5" transform="translate(818 409)"/></g><g transform="translate(-548 -19)"><circle class="e" cx="2.5" cy="2.5" r="2.5" transform="translate(818 409)"/></g><g transform="translate(-518 -19)"><circle class="e" cx="2.5" cy="2.5" r="2.5" transform="translate(818 409)"/></g><g transform="translate(-488 -19)"><circle class="e" cx="2.5" cy="2.5" r="2.5" transform="translate(818 409)"/></g><g transform="translate(-458 -19)"><circle class="e" cx="2.5" cy="2.5" r="2.5" transform="translate(818 409)"/></g><g transform="translate(-428 -19)"><circle class="e" cx="2.5" cy="2.5" r="2.5" transform="translate(818 409)"/></g><g transform="translate(-398 -19)"><circle class="e" cx="2.5" cy="2.5" r="2.5" transform="translate(818 409)"/></g><g transform="translate(-368 -19)"><circle class="e" cx="2.5" cy="2.5" r="2.5" transform="translate(818 409)"/></g><g transform="translate(-338 -19)"><circle class="e" cx="2.5" cy="2.5" r="2.5" transform="translate(818 409)"/></g><g transform="translate(-308 -19)"><circle class="e" cx="2.5" cy="2.5" r="2.5" transform="translate(818 409)"/></g><g transform="translate(-278 -19)"><circle class="e" cx="2.5" cy="2.5" r="2.5" transform="translate(818 409)"/></g><g transform="translate(-248 -19)"><circle class="e" cx="2.5" cy="2.5" r="2.5" transform="translate(818 409)"/></g><g transform="translate(-218 -19)"><circle class="e" cx="2.5" cy="2.5" r="2.5" transform="translate(818 409)"/></g><g transform="translate(-188 -19)"><circle class="e" cx="2.5" cy="2.5" r="2.5" transform="translate(818 409)"/></g><g transform="translate(-158 -19)"><circle class="e" cx="2.5" cy="2.5" r="2.5" transform="translate(818 409)"/></g><g transform="translate(-128 -19)"><circle class="e" cx="2.5" cy="2.5" r="2.5" transform="translate(818 409)"/></g><g transform="translate(-98 -19)"><circle class="e" cx="2.5" cy="2.5" r="2.5" transform="translate(818 409)"/></g><g transform="translate(-68 -19)"><circle class="e" cx="2.5" cy="2.5" r="2.5" transform="translate(818 409)"/></g><g transform="translate(-38 -19)"><circle class="e" cx="2.5" cy="2.5" r="2.5" transform="translate(818 409)"/></g><g transform="translate(-8 -19)"><circle class="e" cx="2.5" cy="2.5" r="2.5" transform="translate(818 409)"/></g><g transform="translate(22 -19)"><circle class="e" cx="2.5" cy="2.5" r="2.5" transform="translate(818 409)"/></g><g transform="translate(52 -19)"><circle class="e" cx="2.5" cy="2.5" r="2.5" transform="translate(818 409)"/></g><g transform="translate(82 -19)"><circle class="e" cx="2.5" cy="2.5" r="2.5" transform="translate(818 409)"/></g><g transform="translate(112 -19)"><circle class="e" cx="2.5" cy="2.5" r="2.5" transform="translate(818 409)"/></g><g transform="translate(142 -19)"><circle class="e" cx="2.5" cy="2.5" r="2.5" transform="translate(818 409)"/></g><g transform="translate(172 -19)"><circle class="e" cx="2.5" cy="2.5" r="2.5" transform="translate(818 409)"/></g><g transform="translate(202 -19)"><circle class="e" cx="2.5" cy="2.5" r="2.5" transform="translate(818 409)"/></g><g transform="translate(-818 11)"><circle class="e" cx="2.5" cy="2.5" r="2.5" transform="translate(818 409)"/></g><g transform="translate(-788 11)"><circle class="e" cx="2.5" cy="2.5" r="2.5" transform="translate(818 409)"/></g><g transform="translate(-758 11)"><circle class="e" cx="2.5" cy="2.5" r="2.5" transform="translate(818 409)"/></g><g transform="translate(-728 11)"><circle class="e" cx="2.5" cy="2.5" r="2.5" transform="translate(818 409)"/></g><g transform="translate(-698 11)"><circle class="e" cx="2.5" cy="2.5" r="2.5" transform="translate(818 409)"/></g><g transform="translate(-668 11)"><circle class="e" cx="2.5" cy="2.5" r="2.5" transform="translate(818 409)"/></g><g transform="translate(-638 11)"><circle class="e" cx="2.5" cy="2.5" r="2.5" transform="translate(818 409)"/></g><g transform="translate(-608 11)"><circle class="e" cx="2.5" cy="2.5" r="2.5" transform="translate(818 409)"/></g><g transform="translate(-578 11)"><circle class="e" cx="2.5" cy="2.5" r="2.5" transform="translate(818 409)"/></g><g transform="translate(-548 11)"><circle class="e" cx="2.5" cy="2.5" r="2.5" transform="translate(818 409)"/></g><g transform="translate(-518 11)"><circle class="e" cx="2.5" cy="2.5" r="2.5" transform="translate(818 409)"/></g><g transform="translate(-488 11)"><circle class="e" cx="2.5" cy="2.5" r="2.5" transform="translate(818 409)"/></g><g transform="translate(-458 11)"><circle class="e" cx="2.5" cy="2.5" r="2.5" transform="translate(818 409)"/></g><g transform="translate(-428 11)"><circle class="e" cx="2.5" cy="2.5" r="2.5" transform="translate(818 409)"/></g><g transform="translate(-398 11)"><circle class="e" cx="2.5" cy="2.5" r="2.5" transform="translate(818 409)"/></g><g transform="translate(-368 11)"><circle class="e" cx="2.5" cy="2.5" r="2.5" transform="translate(818 409)"/></g><g transform="translate(-338 11)"><circle class="e" cx="2.5" cy="2.5" r="2.5" transform="translate(818 409)"/></g><g transform="translate(-308 11)"><circle class="e" cx="2.5" cy="2.5" r="2.5" transform="translate(818 409)"/></g><g transform="translate(-278 11)"><circle class="e" cx="2.5" cy="2.5" r="2.5" transform="translate(818 409)"/></g><g transform="translate(-248 11)"><circle class="e" cx="2.5" cy="2.5" r="2.5" transform="translate(818 409)"/></g><g transform="translate(-218 11)"><circle class="e" cx="2.5" cy="2.5" r="2.5" transform="translate(818 409)"/></g><g transform="translate(-188 11)"><circle class="e" cx="2.5" cy="2.5" r="2.5" transform="translate(818 409)"/></g><g transform="translate(-158 11)"><circle class="e" cx="2.5" cy="2.5" r="2.5" transform="translate(818 409)"/></g><g transform="translate(-128 11)"><circle class="e" cx="2.5" cy="2.5" r="2.5" transform="translate(818 409)"/></g><g transform="translate(-98 11)"><circle class="e" cx="2.5" cy="2.5" r="2.5" transform="translate(818 409)"/></g><g transform="translate(-68 11)"><circle class="e" cx="2.5" cy="2.5" r="2.5" transform="translate(818 409)"/></g><g transform="translate(-38 11)"><circle class="e" cx="2.5" cy="2.5" r="2.5" transform="translate(818 409)"/></g><g transform="translate(-8 11)"><circle class="e" cx="2.5" cy="2.5" r="2.5" transform="translate(818 409)"/></g><g transform="translate(22 11)"><circle class="e" cx="2.5" cy="2.5" r="2.5" transform="translate(818 409)"/></g><g transform="translate(52 11)"><circle class="e" cx="2.5" cy="2.5" r="2.5" transform="translate(818 409)"/></g><g transform="translate(82 11)"><circle class="e" cx="2.5" cy="2.5" r="2.5" transform="translate(818 409)"/></g><g transform="translate(112 11)"><circle class="e" cx="2.5" cy="2.5" r="2.5" transform="translate(818 409)"/></g><g transform="translate(142 11)"><circle class="e" cx="2.5" cy="2.5" r="2.5" transform="translate(818 409)"/></g><g transform="translate(172 11)"><circle class="e" cx="2.5" cy="2.5" r="2.5" transform="translate(818 409)"/></g><g transform="translate(202 11)"><circle class="e" cx="2.5" cy="2.5" r="2.5" transform="translate(818 409)"/></g><g transform="translate(-818 41)"><circle class="e" cx="2.5" cy="2.5" r="2.5" transform="translate(818 409)"/></g><g transform="translate(-788 41)"><circle class="e" cx="2.5" cy="2.5" r="2.5" transform="translate(818 409)"/></g><g transform="translate(-758 41)"><circle class="e" cx="2.5" cy="2.5" r="2.5" transform="translate(818 409)"/></g><g transform="translate(-728 41)"><circle class="e" cx="2.5" cy="2.5" r="2.5" transform="translate(818 409)"/></g><g transform="translate(-698 41)"><circle class="e" cx="2.5" cy="2.5" r="2.5" transform="translate(818 409)"/></g><g transform="translate(-668 41)"><circle class="e" cx="2.5" cy="2.5" r="2.5" transform="translate(818 409)"/></g><g transform="translate(-638 41)"><circle class="e" cx="2.5" cy="2.5" r="2.5" transform="translate(818 409)"/></g><g transform="translate(-608 41)"><circle class="e" cx="2.5" cy="2.5" r="2.5" transform="translate(818 409)"/></g><g transform="translate(-578 41)"><circle class="e" cx="2.5" cy="2.5" r="2.5" transform="translate(818 409)"/></g><g transform="translate(-548 41)"><circle class="e" cx="2.5" cy="2.5" r="2.5" transform="translate(818 409)"/></g><g transform="translate(-518 41)"><circle class="e" cx="2.5" cy="2.5" r="2.5" transform="translate(818 409)"/></g><g transform="translate(-488 41)"><circle class="e" cx="2.5" cy="2.5" r="2.5" transform="translate(818 409)"/></g><g transform="translate(-458 41)"><circle class="e" cx="2.5" cy="2.5" r="2.5" transform="translate(818 409)"/></g><g transform="translate(-428 41)"><circle class="e" cx="2.5" cy="2.5" r="2.5" transform="translate(818 409)"/></g><g transform="translate(-398 41)"><circle class="e" cx="2.5" cy="2.5" r="2.5" transform="translate(818 409)"/></g><g transform="translate(-368 41)"><circle class="e" cx="2.5" cy="2.5" r="2.5" transform="translate(818 409)"/></g><g transform="translate(-338 41)"><circle class="e" cx="2.5" cy="2.5" r="2.5" transform="translate(818 409)"/></g><g transform="translate(-308 41)"><circle class="e" cx="2.5" cy="2.5" r="2.5" transform="translate(818 409)"/></g><g transform="translate(-278 41)"><circle class="e" cx="2.5" cy="2.5" r="2.5" transform="translate(818 409)"/></g><g transform="translate(-248 41)"><circle class="e" cx="2.5" cy="2.5" r="2.5" transform="translate(818 409)"/></g><g transform="translate(-218 41)"><circle class="e" cx="2.5" cy="2.5" r="2.5" transform="translate(818 409)"/></g><g transform="translate(-188 41)"><circle class="e" cx="2.5" cy="2.5" r="2.5" transform="translate(818 409)"/></g><g transform="translate(-158 41)"><circle class="e" cx="2.5" cy="2.5" r="2.5" transform="translate(818 409)"/></g><g transform="translate(-128 41)"><circle class="e" cx="2.5" cy="2.5" r="2.5" transform="translate(818 409)"/></g><g transform="translate(-98 41)"><circle class="e" cx="2.5" cy="2.5" r="2.5" transform="translate(818 409)"/></g><g transform="translate(-68 41)"><circle class="e" cx="2.5" cy="2.5" r="2.5" transform="translate(818 409)"/></g><g transform="translate(-38 41)"><circle class="e" cx="2.5" cy="2.5" r="2.5" transform="translate(818 409)"/></g><g transform="translate(-8 41)"><circle class="e" cx="2.5" cy="2.5" r="2.5" transform="translate(818 409)"/></g><g transform="translate(22 41)"><circle class="e" cx="2.5" cy="2.5" r="2.5" transform="translate(818 409)"/></g><g transform="translate(52 41)"><circle class="e" cx="2.5" cy="2.5" r="2.5" transform="translate(818 409)"/></g><g transform="translate(82 41)"><circle class="e" cx="2.5" cy="2.5" r="2.5" transform="translate(818 409)"/></g><g transform="translate(112 41)"><circle class="e" cx="2.5" cy="2.5" r="2.5" transform="translate(818 409)"/></g><g transform="translate(142 41)"><circle class="e" cx="2.5" cy="2.5" r="2.5" transform="translate(818 409)"/></g><g transform="translate(172 41)"><circle class="e" cx="2.5" cy="2.5" r="2.5" transform="translate(818 409)"/></g><g transform="translate(202 41)"><circle class="e" cx="2.5" cy="2.5" r="2.5" transform="translate(818 409)"/></g><g transform="translate(-818 71)"><circle class="e" cx="2.5" cy="2.5" r="2.5" transform="translate(818 409)"/></g><g transform="translate(-788 71)"><circle class="e" cx="2.5" cy="2.5" r="2.5" transform="translate(818 409)"/></g><g transform="translate(-758 71)"><circle class="e" cx="2.5" cy="2.5" r="2.5" transform="translate(818 409)"/></g><g transform="translate(-728 71)"><circle class="e" cx="2.5" cy="2.5" r="2.5" transform="translate(818 409)"/></g><g transform="translate(-698 71)"><circle class="e" cx="2.5" cy="2.5" r="2.5" transform="translate(818 409)"/></g><g transform="translate(-668 71)"><circle class="e" cx="2.5" cy="2.5" r="2.5" transform="translate(818 409)"/></g><g transform="translate(-638 71)"><circle class="e" cx="2.5" cy="2.5" r="2.5" transform="translate(818 409)"/></g><g transform="translate(-608 71)"><circle class="e" cx="2.5" cy="2.5" r="2.5" transform="translate(818 409)"/></g><g transform="translate(-578 71)"><circle class="e" cx="2.5" cy="2.5" r="2.5" transform="translate(818 409)"/></g><g transform="translate(-548 71)"><circle class="e" cx="2.5" cy="2.5" r="2.5" transform="translate(818 409)"/></g><g transform="translate(-518 71)"><circle class="e" cx="2.5" cy="2.5" r="2.5" transform="translate(818 409)"/></g><g transform="translate(-488 71)"><circle class="e" cx="2.5" cy="2.5" r="2.5" transform="translate(818 409)"/></g><g transform="translate(-458 71)"><circle class="e" cx="2.5" cy="2.5" r="2.5" transform="translate(818 409)"/></g><g transform="translate(-428 71)"><circle class="e" cx="2.5" cy="2.5" r="2.5" transform="translate(818 409)"/></g><g transform="translate(-398 71)"><circle class="e" cx="2.5" cy="2.5" r="2.5" transform="translate(818 409)"/></g><g transform="translate(-368 71)"><circle class="e" cx="2.5" cy="2.5" r="2.5" transform="translate(818 409)"/></g><g transform="translate(-338 71)"><circle class="e" cx="2.5" cy="2.5" r="2.5" transform="translate(818 409)"/></g><g transform="translate(-308 71)"><circle class="e" cx="2.5" cy="2.5" r="2.5" transform="translate(818 409)"/></g><g transform="translate(-278 71)"><circle class="e" cx="2.5" cy="2.5" r="2.5" transform="translate(818 409)"/></g><g transform="translate(-248 71)"><circle class="e" cx="2.5" cy="2.5" r="2.5" transform="translate(818 409)"/></g><g transform="translate(-218 71)"><circle class="e" cx="2.5" cy="2.5" r="2.5" transform="translate(818 409)"/></g><g transform="translate(-188 71)"><circle class="e" cx="2.5" cy="2.5" r="2.5" transform="translate(818 409)"/></g><g transform="translate(-158 71)"><circle class="e" cx="2.5" cy="2.5" r="2.5" transform="translate(818 409)"/></g><g transform="translate(-128 71)"><circle class="e" cx="2.5" cy="2.5" r="2.5" transform="translate(818 409)"/></g><g transform="translate(-98 71)"><circle class="e" cx="2.5" cy="2.5" r="2.5" transform="translate(818 409)"/></g><g transform="translate(-68 71)"><circle class="e" cx="2.5" cy="2.5" r="2.5" transform="translate(818 409)"/></g><g transform="translate(-38 71)"><circle class="e" cx="2.5" cy="2.5" r="2.5" transform="translate(818 409)"/></g><g transform="translate(-8 71)"><circle class="e" cx="2.5" cy="2.5" r="2.5" transform="translate(818 409)"/></g><g transform="translate(22 71)"><circle class="e" cx="2.5" cy="2.5" r="2.5" transform="translate(818 409)"/></g><g transform="translate(52 71)"><circle class="e" cx="2.5" cy="2.5" r="2.5" transform="translate(818 409)"/></g><g transform="translate(82 71)"><circle class="e" cx="2.5" cy="2.5" r="2.5" transform="translate(818 409)"/></g><g transform="translate(112 71)"><circle class="e" cx="2.5" cy="2.5" r="2.5" transform="translate(818 409)"/></g><g transform="translate(142 71)"><circle class="e" cx="2.5" cy="2.5" r="2.5" transform="translate(818 409)"/></g><g transform="translate(172 71)"><circle class="e" cx="2.5" cy="2.5" r="2.5" transform="translate(818 409)"/></g><g transform="translate(202 71)"><circle class="e" cx="2.5" cy="2.5" r="2.5" transform="translate(818 409)"/></g><g transform="translate(-818 101)"><circle class="e" cx="2.5" cy="2.5" r="2.5" transform="translate(818 409)"/></g><g transform="translate(-788 101)"><circle class="e" cx="2.5" cy="2.5" r="2.5" transform="translate(818 409)"/></g><g transform="translate(-758 101)"><circle class="e" cx="2.5" cy="2.5" r="2.5" transform="translate(818 409)"/></g><g transform="translate(-728 101)"><circle class="e" cx="2.5" cy="2.5" r="2.5" transform="translate(818 409)"/></g><g transform="translate(-698 101)"><circle class="e" cx="2.5" cy="2.5" r="2.5" transform="translate(818 409)"/></g><g transform="translate(-668 101)"><circle class="e" cx="2.5" cy="2.5" r="2.5" transform="translate(818 409)"/></g><g transform="translate(-638 101)"><circle class="e" cx="2.5" cy="2.5" r="2.5" transform="translate(818 409)"/></g><g transform="translate(-608 101)"><circle class="e" cx="2.5" cy="2.5" r="2.5" transform="translate(818 409)"/></g><g transform="translate(-578 101)"><circle class="e" cx="2.5" cy="2.5" r="2.5" transform="translate(818 409)"/></g><g transform="translate(-548 101)"><circle class="e" cx="2.5" cy="2.5" r="2.5" transform="translate(818 409)"/></g><g transform="translate(-518 101)"><circle class="e" cx="2.5" cy="2.5" r="2.5" transform="translate(818 409)"/></g><g transform="translate(-488 101)"><circle class="e" cx="2.5" cy="2.5" r="2.5" transform="translate(818 409)"/></g><g transform="translate(-458 101)"><circle class="e" cx="2.5" cy="2.5" r="2.5" transform="translate(818 409)"/></g><g transform="translate(-428 101)"><circle class="e" cx="2.5" cy="2.5" r="2.5" transform="translate(818 409)"/></g><g transform="translate(-398 101)"><circle class="e" cx="2.5" cy="2.5" r="2.5" transform="translate(818 409)"/></g><g transform="translate(-368 101)"><circle class="e" cx="2.5" cy="2.5" r="2.5" transform="translate(818 409)"/></g><g transform="translate(-338 101)"><circle class="e" cx="2.5" cy="2.5" r="2.5" transform="translate(818 409)"/></g><g transform="translate(-308 101)"><circle class="e" cx="2.5" cy="2.5" r="2.5" transform="translate(818 409)"/></g><g transform="translate(-278 101)"><circle class="e" cx="2.5" cy="2.5" r="2.5" transform="translate(818 409)"/></g><g transform="translate(-248 101)"><circle class="e" cx="2.5" cy="2.5" r="2.5" transform="translate(818 409)"/></g><g transform="translate(-218 101)"><circle class="e" cx="2.5" cy="2.5" r="2.5" transform="translate(818 409)"/></g><g transform="translate(-188 101)"><circle class="e" cx="2.5" cy="2.5" r="2.5" transform="translate(818 409)"/></g><g transform="translate(-158 101)"><circle class="e" cx="2.5" cy="2.5" r="2.5" transform="translate(818 409)"/></g><g transform="translate(-128 101)"><circle class="e" cx="2.5" cy="2.5" r="2.5" transform="translate(818 409)"/></g><g transform="translate(-98 101)"><circle class="e" cx="2.5" cy="2.5" r="2.5" transform="translate(818 409)"/></g><g transform="translate(-68 101)"><circle class="e" cx="2.5" cy="2.5" r="2.5" transform="translate(818 409)"/></g><g transform="translate(-38 101)"><circle class="e" cx="2.5" cy="2.5" r="2.5" transform="translate(818 409)"/></g><g transform="translate(-8 101)"><circle class="e" cx="2.5" cy="2.5" r="2.5" transform="translate(818 409)"/></g><g transform="translate(22 101)"><circle class="e" cx="2.5" cy="2.5" r="2.5" transform="translate(818 409)"/></g><g transform="translate(52 101)"><circle class="e" cx="2.5" cy="2.5" r="2.5" transform="translate(818 409)"/></g><g transform="translate(82 101)"><circle class="e" cx="2.5" cy="2.5" r="2.5" transform="translate(818 409)"/></g><g transform="translate(112 101)"><circle class="e" cx="2.5" cy="2.5" r="2.5" transform="translate(818 409)"/></g><g transform="translate(142 101)"><circle class="e" cx="2.5" cy="2.5" r="2.5" transform="translate(818 409)"/></g><g transform="translate(172 101)"><circle class="e" cx="2.5" cy="2.5" r="2.5" transform="translate(818 409)"/></g><g transform="translate(202 101)"><circle class="e" cx="2.5" cy="2.5" r="2.5" transform="translate(818 409)"/></g><g transform="translate(-818 131)"><circle class="e" cx="2.5" cy="2.5" r="2.5" transform="translate(818 409)"/></g><g transform="translate(-788 131)"><circle class="e" cx="2.5" cy="2.5" r="2.5" transform="translate(818 409)"/></g><g transform="translate(-758 131)"><circle class="e" cx="2.5" cy="2.5" r="2.5" transform="translate(818 409)"/></g><g transform="translate(-728 131)"><circle class="e" cx="2.5" cy="2.5" r="2.5" transform="translate(818 409)"/></g><g transform="translate(-698 131)"><circle class="e" cx="2.5" cy="2.5" r="2.5" transform="translate(818 409)"/></g><g transform="translate(-668 131)"><circle class="e" cx="2.5" cy="2.5" r="2.5" transform="translate(818 409)"/></g><g transform="translate(-638 131)"><circle class="e" cx="2.5" cy="2.5" r="2.5" transform="translate(818 409)"/></g><g transform="translate(-608 131)"><circle class="e" cx="2.5" cy="2.5" r="2.5" transform="translate(818 409)"/></g><g transform="translate(-578 131)"><circle class="e" cx="2.5" cy="2.5" r="2.5" transform="translate(818 409)"/></g><g transform="translate(-548 131)"><circle class="e" cx="2.5" cy="2.5" r="2.5" transform="translate(818 409)"/></g><g transform="translate(-518 131)"><circle class="e" cx="2.5" cy="2.5" r="2.5" transform="translate(818 409)"/></g><g transform="translate(-488 131)"><circle class="e" cx="2.5" cy="2.5" r="2.5" transform="translate(818 409)"/></g><g transform="translate(-458 131)"><circle class="e" cx="2.5" cy="2.5" r="2.5" transform="translate(818 409)"/></g><g transform="translate(-428 131)"><circle class="e" cx="2.5" cy="2.5" r="2.5" transform="translate(818 409)"/></g><g transform="translate(-398 131)"><circle class="e" cx="2.5" cy="2.5" r="2.5" transform="translate(818 409)"/></g><g transform="translate(-368 131)"><circle class="e" cx="2.5" cy="2.5" r="2.5" transform="translate(818 409)"/></g><g transform="translate(-338 131)"><circle class="e" cx="2.5" cy="2.5" r="2.5" transform="translate(818 409)"/></g><g transform="translate(-308 131)"><circle class="e" cx="2.5" cy="2.5" r="2.5" transform="translate(818 409)"/></g><g transform="translate(-278 131)"><circle class="e" cx="2.5" cy="2.5" r="2.5" transform="translate(818 409)"/></g><g transform="translate(-248 131)"><circle class="e" cx="2.5" cy="2.5" r="2.5" transform="translate(818 409)"/></g><g transform="translate(-218 131)"><circle class="e" cx="2.5" cy="2.5" r="2.5" transform="translate(818 409)"/></g><g transform="translate(-188 131)"><circle class="e" cx="2.5" cy="2.5" r="2.5" transform="translate(818 409)"/></g><g transform="translate(-158 131)"><circle class="e" cx="2.5" cy="2.5" r="2.5" transform="translate(818 409)"/></g><g transform="translate(-128 131)"><circle class="e" cx="2.5" cy="2.5" r="2.5" transform="translate(818 409)"/></g><g transform="translate(-98 131)"><circle class="e" cx="2.5" cy="2.5" r="2.5" transform="translate(818 409)"/></g><g transform="translate(-68 131)"><circle class="e" cx="2.5" cy="2.5" r="2.5" transform="translate(818 409)"/></g><g transform="translate(-38 131)"><circle class="e" cx="2.5" cy="2.5" r="2.5" transform="translate(818 409)"/></g><g transform="translate(-8 131)"><circle class="e" cx="2.5" cy="2.5" r="2.5" transform="translate(818 409)"/></g><g transform="translate(22 131)"><circle class="e" cx="2.5" cy="2.5" r="2.5" transform="translate(818 409)"/></g><g transform="translate(52 131)"><circle class="e" cx="2.5" cy="2.5" r="2.5" transform="translate(818 409)"/></g><g transform="translate(82 131)"><circle class="e" cx="2.5" cy="2.5" r="2.5" transform="translate(818 409)"/></g><g transform="translate(112 131)"><circle class="e" cx="2.5" cy="2.5" r="2.5" transform="translate(818 409)"/></g><g transform="translate(142 131)"><circle class="e" cx="2.5" cy="2.5" r="2.5" transform="translate(818 409)"/></g><g transform="translate(172 131)"><circle class="e" cx="2.5" cy="2.5" r="2.5" transform="translate(818 409)"/></g><g transform="translate(202 131)"><circle class="e" cx="2.5" cy="2.5" r="2.5" transform="translate(818 409)"/></g><g transform="translate(-818 161)"><circle class="e" cx="2.5" cy="2.5" r="2.5" transform="translate(818 409)"/></g><g transform="translate(-788 161)"><circle class="e" cx="2.5" cy="2.5" r="2.5" transform="translate(818 409)"/></g><g transform="translate(-758 161)"><circle class="e" cx="2.5" cy="2.5" r="2.5" transform="translate(818 409)"/></g><g transform="translate(-728 161)"><circle class="e" cx="2.5" cy="2.5" r="2.5" transform="translate(818 409)"/></g><g transform="translate(-698 161)"><circle class="e" cx="2.5" cy="2.5" r="2.5" transform="translate(818 409)"/></g><g transform="translate(-668 161)"><circle class="e" cx="2.5" cy="2.5" r="2.5" transform="translate(818 409)"/></g><g transform="translate(-638 161)"><circle class="e" cx="2.5" cy="2.5" r="2.5" transform="translate(818 409)"/></g><g transform="translate(-608 161)"><circle class="e" cx="2.5" cy="2.5" r="2.5" transform="translate(818 409)"/></g><g transform="translate(-578 161)"><circle class="e" cx="2.5" cy="2.5" r="2.5" transform="translate(818 409)"/></g><g transform="translate(-548 161)"><circle class="e" cx="2.5" cy="2.5" r="2.5" transform="translate(818 409)"/></g><g transform="translate(-518 161)"><circle class="e" cx="2.5" cy="2.5" r="2.5" transform="translate(818 409)"/></g><g transform="translate(-488 161)"><circle class="e" cx="2.5" cy="2.5" r="2.5" transform="translate(818 409)"/></g><g transform="translate(-458 161)"><circle class="e" cx="2.5" cy="2.5" r="2.5" transform="translate(818 409)"/></g><g transform="translate(-428 161)"><circle class="e" cx="2.5" cy="2.5" r="2.5" transform="translate(818 409)"/></g><g transform="translate(-398 161)"><circle class="e" cx="2.5" cy="2.5" r="2.5" transform="translate(818 409)"/></g><g transform="translate(-368 161)"><circle class="e" cx="2.5" cy="2.5" r="2.5" transform="translate(818 409)"/></g><g transform="translate(-338 161)"><circle class="e" cx="2.5" cy="2.5" r="2.5" transform="translate(818 409)"/></g><g transform="translate(-308 161)"><circle class="e" cx="2.5" cy="2.5" r="2.5" transform="translate(818 409)"/></g><g transform="translate(-278 161)"><circle class="e" cx="2.5" cy="2.5" r="2.5" transform="translate(818 409)"/></g><g transform="translate(-248 161)"><circle class="e" cx="2.5" cy="2.5" r="2.5" transform="translate(818 409)"/></g><g transform="translate(-218 161)"><circle class="e" cx="2.5" cy="2.5" r="2.5" transform="translate(818 409)"/></g><g transform="translate(-188 161)"><circle class="e" cx="2.5" cy="2.5" r="2.5" transform="translate(818 409)"/></g><g transform="translate(-158 161)"><circle class="e" cx="2.5" cy="2.5" r="2.5" transform="translate(818 409)"/></g><g transform="translate(-128 161)"><circle class="e" cx="2.5" cy="2.5" r="2.5" transform="translate(818 409)"/></g><g transform="translate(-98 161)"><circle class="e" cx="2.5" cy="2.5" r="2.5" transform="translate(818 409)"/></g><g transform="translate(-68 161)"><circle class="e" cx="2.5" cy="2.5" r="2.5" transform="translate(818 409)"/></g><g transform="translate(-38 161)"><circle class="e" cx="2.5" cy="2.5" r="2.5" transform="translate(818 409)"/></g><g transform="translate(-8 161)"><circle class="e" cx="2.5" cy="2.5" r="2.5" transform="translate(818 409)"/></g><g transform="translate(22 161)"><circle class="e" cx="2.5" cy="2.5" r="2.5" transform="translate(818 409)"/></g><g transform="translate(52 161)"><circle class="e" cx="2.5" cy="2.5" r="2.5" transform="translate(818 409)"/></g><g transform="translate(82 161)"><circle class="e" cx="2.5" cy="2.5" r="2.5" transform="translate(818 409)"/></g><g transform="translate(112 161)"><circle class="e" cx="2.5" cy="2.5" r="2.5" transform="translate(818 409)"/></g><g transform="translate(142 161)"><circle class="e" cx="2.5" cy="2.5" r="2.5" transform="translate(818 409)"/></g><g transform="translate(172 161)"><circle class="e" cx="2.5" cy="2.5" r="2.5" transform="translate(818 409)"/></g><g transform="translate(202 161)"><circle class="e" cx="2.5" cy="2.5" r="2.5" transform="translate(818 409)"/></g><g transform="translate(-818 191)"><circle class="e" cx="2.5" cy="2.5" r="2.5" transform="translate(818 409)"/></g><g transform="translate(-788 191)"><circle class="e" cx="2.5" cy="2.5" r="2.5" transform="translate(818 409)"/></g><g transform="translate(-758 191)"><circle class="e" cx="2.5" cy="2.5" r="2.5" transform="translate(818 409)"/></g><g transform="translate(-728 191)"><circle class="e" cx="2.5" cy="2.5" r="2.5" transform="translate(818 409)"/></g><g transform="translate(-698 191)"><circle class="e" cx="2.5" cy="2.5" r="2.5" transform="translate(818 409)"/></g><g transform="translate(-668 191)"><circle class="e" cx="2.5" cy="2.5" r="2.5" transform="translate(818 409)"/></g><g transform="translate(-638 191)"><circle class="e" cx="2.5" cy="2.5" r="2.5" transform="translate(818 409)"/></g><g transform="translate(-608 191)"><circle class="e" cx="2.5" cy="2.5" r="2.5" transform="translate(818 409)"/></g><g transform="translate(-578 191)"><circle class="e" cx="2.5" cy="2.5" r="2.5" transform="translate(818 409)"/></g><g transform="translate(-548 191)"><circle class="e" cx="2.5" cy="2.5" r="2.5" transform="translate(818 409)"/></g><g transform="translate(-518 191)"><circle class="e" cx="2.5" cy="2.5" r="2.5" transform="translate(818 409)"/></g><g transform="translate(-488 191)"><circle class="e" cx="2.5" cy="2.5" r="2.5" transform="translate(818 409)"/></g><g transform="translate(-458 191)"><circle class="e" cx="2.5" cy="2.5" r="2.5" transform="translate(818 409)"/></g><g transform="translate(-428 191)"><circle class="e" cx="2.5" cy="2.5" r="2.5" transform="translate(818 409)"/></g><g transform="translate(-398 191)"><circle class="e" cx="2.5" cy="2.5" r="2.5" transform="translate(818 409)"/></g><g transform="translate(-368 191)"><circle class="e" cx="2.5" cy="2.5" r="2.5" transform="translate(818 409)"/></g><g transform="translate(-338 191)"><circle class="e" cx="2.5" cy="2.5" r="2.5" transform="translate(818 409)"/></g><g transform="translate(-308 191)"><circle class="e" cx="2.5" cy="2.5" r="2.5" transform="translate(818 409)"/></g><g transform="translate(-278 191)"><circle class="e" cx="2.5" cy="2.5" r="2.5" transform="translate(818 409)"/></g><g transform="translate(-248 191)"><circle class="e" cx="2.5" cy="2.5" r="2.5" transform="translate(818 409)"/></g><g transform="translate(-218 191)"><circle class="e" cx="2.5" cy="2.5" r="2.5" transform="translate(818 409)"/></g><g transform="translate(-188 191)"><circle class="e" cx="2.5" cy="2.5" r="2.5" transform="translate(818 409)"/></g><g transform="translate(-158 191)"><circle class="e" cx="2.5" cy="2.5" r="2.5" transform="translate(818 409)"/></g><g transform="translate(-128 191)"><circle class="e" cx="2.5" cy="2.5" r="2.5" transform="translate(818 409)"/></g><g transform="translate(-98 191)"><circle class="e" cx="2.5" cy="2.5" r="2.5" transform="translate(818 409)"/></g><g transform="translate(-68 191)"><circle class="e" cx="2.5" cy="2.5" r="2.5" transform="translate(818 409)"/></g><g transform="translate(-38 191)"><circle class="e" cx="2.5" cy="2.5" r="2.5" transform="translate(818 409)"/></g><g transform="translate(-8 191)"><circle class="e" cx="2.5" cy="2.5" r="2.5" transform="translate(818 409)"/></g><g transform="translate(22 191)"><circle class="e" cx="2.5" cy="2.5" r="2.5" transform="translate(818 409)"/></g><g transform="translate(52 191)"><circle class="e" cx="2.5" cy="2.5" r="2.5" transform="translate(818 409)"/></g><g transform="translate(82 191)"><circle class="e" cx="2.5" cy="2.5" r="2.5" transform="translate(818 409)"/></g><g transform="translate(112 191)"><circle class="e" cx="2.5" cy="2.5" r="2.5" transform="translate(818 409)"/></g><g transform="translate(142 191)"><circle class="e" cx="2.5" cy="2.5" r="2.5" transform="translate(818 409)"/></g><g transform="translate(172 191)"><circle class="e" cx="2.5" cy="2.5" r="2.5" transform="translate(818 409)"/></g><g transform="translate(202 191)"><circle class="e" cx="2.5" cy="2.5" r="2.5" transform="translate(818 409)"/></g><g transform="translate(-818 221)"><circle class="e" cx="2.5" cy="2.5" r="2.5" transform="translate(818 409)"/></g><g transform="translate(-788 221)"><circle class="e" cx="2.5" cy="2.5" r="2.5" transform="translate(818 409)"/></g><g transform="translate(-758 221)"><circle class="e" cx="2.5" cy="2.5" r="2.5" transform="translate(818 409)"/></g><g transform="translate(-728 221)"><circle class="e" cx="2.5" cy="2.5" r="2.5" transform="translate(818 409)"/></g><g transform="translate(-698 221)"><circle class="e" cx="2.5" cy="2.5" r="2.5" transform="translate(818 409)"/></g><g transform="translate(-668 221)"><circle class="e" cx="2.5" cy="2.5" r="2.5" transform="translate(818 409)"/></g><g transform="translate(-638 221)"><circle class="e" cx="2.5" cy="2.5" r="2.5" transform="translate(818 409)"/></g><g transform="translate(-608 221)"><circle class="e" cx="2.5" cy="2.5" r="2.5" transform="translate(818 409)"/></g><g transform="translate(-578 221)"><circle class="e" cx="2.5" cy="2.5" r="2.5" transform="translate(818 409)"/></g><g transform="translate(-548 221)"><circle class="e" cx="2.5" cy="2.5" r="2.5" transform="translate(818 409)"/></g><g transform="translate(-518 221)"><circle class="e" cx="2.5" cy="2.5" r="2.5" transform="translate(818 409)"/></g><g transform="translate(-488 221)"><circle class="e" cx="2.5" cy="2.5" r="2.5" transform="translate(818 409)"/></g><g transform="translate(-458 221)"><circle class="e" cx="2.5" cy="2.5" r="2.5" transform="translate(818 409)"/></g><g transform="translate(-428 221)"><circle class="e" cx="2.5" cy="2.5" r="2.5" transform="translate(818 409)"/></g><g transform="translate(-398 221)"><circle class="e" cx="2.5" cy="2.5" r="2.5" transform="translate(818 409)"/></g><g transform="translate(-368 221)"><circle class="e" cx="2.5" cy="2.5" r="2.5" transform="translate(818 409)"/></g><g transform="translate(-338 221)"><circle class="e" cx="2.5" cy="2.5" r="2.5" transform="translate(818 409)"/></g><g transform="translate(-308 221)"><circle class="e" cx="2.5" cy="2.5" r="2.5" transform="translate(818 409)"/></g><g transform="translate(-278 221)"><circle class="e" cx="2.5" cy="2.5" r="2.5" transform="translate(818 409)"/></g><g transform="translate(-248 221)"><circle class="e" cx="2.5" cy="2.5" r="2.5" transform="translate(818 409)"/></g><g transform="translate(-218 221)"><circle class="e" cx="2.5" cy="2.5" r="2.5" transform="translate(818 409)"/></g><g transform="translate(-188 221)"><circle class="e" cx="2.5" cy="2.5" r="2.5" transform="translate(818 409)"/></g><g transform="translate(-158 221)"><circle class="e" cx="2.5" cy="2.5" r="2.5" transform="translate(818 409)"/></g><g transform="translate(-128 221)"><circle class="e" cx="2.5" cy="2.5" r="2.5" transform="translate(818 409)"/></g><g transform="translate(-98 221)"><circle class="e" cx="2.5" cy="2.5" r="2.5" transform="translate(818 409)"/></g><g transform="translate(-68 221)"><circle class="e" cx="2.5" cy="2.5" r="2.5" transform="translate(818 409)"/></g><g transform="translate(-38 221)"><circle class="e" cx="2.5" cy="2.5" r="2.5" transform="translate(818 409)"/></g><g transform="translate(-8 221)"><circle class="e" cx="2.5" cy="2.5" r="2.5" transform="translate(818 409)"/></g><g transform="translate(22 221)"><circle class="e" cx="2.5" cy="2.5" r="2.5" transform="translate(818 409)"/></g><g transform="translate(52 221)"><circle class="e" cx="2.5" cy="2.5" r="2.5" transform="translate(818 409)"/></g><g transform="translate(82 221)"><circle class="e" cx="2.5" cy="2.5" r="2.5" transform="translate(818 409)"/></g><g transform="translate(112 221)"><circle class="e" cx="2.5" cy="2.5" r="2.5" transform="translate(818 409)"/></g><g transform="translate(142 221)"><circle class="e" cx="2.5" cy="2.5" r="2.5" transform="translate(818 409)"/></g><g transform="translate(172 221)"><circle class="e" cx="2.5" cy="2.5" r="2.5" transform="translate(818 409)"/></g><g transform="translate(202 221)"><circle class="e" cx="2.5" cy="2.5" r="2.5" transform="translate(818 409)"/></g><g transform="translate(-818 251)"><circle class="e" cx="2.5" cy="2.5" r="2.5" transform="translate(818 409)"/></g><g transform="translate(-788 251)"><circle class="e" cx="2.5" cy="2.5" r="2.5" transform="translate(818 409)"/></g><g transform="translate(-758 251)"><circle class="e" cx="2.5" cy="2.5" r="2.5" transform="translate(818 409)"/></g><g transform="translate(-728 251)"><circle class="e" cx="2.5" cy="2.5" r="2.5" transform="translate(818 409)"/></g><g transform="translate(-698 251)"><circle class="e" cx="2.5" cy="2.5" r="2.5" transform="translate(818 409)"/></g><g transform="translate(-668 251)"><circle class="e" cx="2.5" cy="2.5" r="2.5" transform="translate(818 409)"/></g><g transform="translate(-638 251)"><circle class="e" cx="2.5" cy="2.5" r="2.5" transform="translate(818 409)"/></g><g transform="translate(-608 251)"><circle class="e" cx="2.5" cy="2.5" r="2.5" transform="translate(818 409)"/></g><g transform="translate(-578 251)"><circle class="e" cx="2.5" cy="2.5" r="2.5" transform="translate(818 409)"/></g><g transform="translate(-548 251)"><circle class="e" cx="2.5" cy="2.5" r="2.5" transform="translate(818 409)"/></g><g transform="translate(-518 251)"><circle class="e" cx="2.5" cy="2.5" r="2.5" transform="translate(818 409)"/></g><g transform="translate(-488 251)"><circle class="e" cx="2.5" cy="2.5" r="2.5" transform="translate(818 409)"/></g><g transform="translate(-458 251)"><circle class="e" cx="2.5" cy="2.5" r="2.5" transform="translate(818 409)"/></g><g transform="translate(-428 251)"><circle class="e" cx="2.5" cy="2.5" r="2.5" transform="translate(818 409)"/></g><g transform="translate(-398 251)"><circle class="e" cx="2.5" cy="2.5" r="2.5" transform="translate(818 409)"/></g><g transform="translate(-368 251)"><circle class="e" cx="2.5" cy="2.5" r="2.5" transform="translate(818 409)"/></g><g transform="translate(-338 251)"><circle class="e" cx="2.5" cy="2.5" r="2.5" transform="translate(818 409)"/></g><g transform="translate(-308 251)"><circle class="e" cx="2.5" cy="2.5" r="2.5" transform="translate(818 409)"/></g><g transform="translate(-278 251)"><circle class="e" cx="2.5" cy="2.5" r="2.5" transform="translate(818 409)"/></g><g transform="translate(-248 251)"><circle class="e" cx="2.5" cy="2.5" r="2.5" transform="translate(818 409)"/></g><g transform="translate(-218 251)"><circle class="e" cx="2.5" cy="2.5" r="2.5" transform="translate(818 409)"/></g><g transform="translate(-188 251)"><circle class="e" cx="2.5" cy="2.5" r="2.5" transform="translate(818 409)"/></g><g transform="translate(-158 251)"><circle class="e" cx="2.5" cy="2.5" r="2.5" transform="translate(818 409)"/></g><g transform="translate(-128 251)"><circle class="e" cx="2.5" cy="2.5" r="2.5" transform="translate(818 409)"/></g><g transform="translate(-98 251)"><circle class="e" cx="2.5" cy="2.5" r="2.5" transform="translate(818 409)"/></g><g transform="translate(-68 251)"><circle class="e" cx="2.5" cy="2.5" r="2.5" transform="translate(818 409)"/></g><g transform="translate(-38 251)"><circle class="e" cx="2.5" cy="2.5" r="2.5" transform="translate(818 409)"/></g><g transform="translate(-8 251)"><circle class="e" cx="2.5" cy="2.5" r="2.5" transform="translate(818 409)"/></g><g transform="translate(22 251)"><circle class="e" cx="2.5" cy="2.5" r="2.5" transform="translate(818 409)"/></g><g transform="translate(52 251)"><circle class="e" cx="2.5" cy="2.5" r="2.5" transform="translate(818 409)"/></g><g transform="translate(82 251)"><circle class="e" cx="2.5" cy="2.5" r="2.5" transform="translate(818 409)"/></g><g transform="translate(112 251)"><circle class="e" cx="2.5" cy="2.5" r="2.5" transform="translate(818 409)"/></g><g transform="translate(142 251)"><circle class="e" cx="2.5" cy="2.5" r="2.5" transform="translate(818 409)"/></g><g transform="translate(172 251)"><circle class="e" cx="2.5" cy="2.5" r="2.5" transform="translate(818 409)"/></g><g transform="translate(202 251)"><circle class="e" cx="2.5" cy="2.5" r="2.5" transform="translate(818 409)"/></g></g></g></svg>