<svg xmlns="http://www.w3.org/2000/svg" xmlns:xlink="http://www.w3.org/1999/xlink" viewBox="0 0 1920 264"><defs><style>.a{clip-path:url(#j);}.b{fill:url(#a);}.c{opacity:0.23;fill:url(#b);}.d{fill:url(#c);}.e{opacity:0.41;}.e,.f{fill:url(#d);}.f{opacity:0.26;}.g{filter:url(#g);}</style><linearGradient id="a" x1="1" x2="0" y2="1" gradientUnits="objectBoundingBox"><stop offset="0" stop-color="#eb51b8"/><stop offset="1" stop-color="#ffbb54"/></linearGradient><linearGradient id="b" x1="1.005" y1="0.566" x2="0.005" y2="0.543" xlink:href="#a"/><linearGradient id="c" x1="0.707" y1="0.214" x2="0.271" y2="0.947" gradientUnits="objectBoundingBox"><stop offset="0" stop-color="#fff"/><stop offset="1" stop-color="#f9e8e7"/></linearGradient><linearGradient id="d" x1="0.707" y1="0.214" x2="0.271" y2="0.947" xlink:href="#a"/><filter id="g" x="1421.426" y="23.951" width="272.932" height="272.932" filterUnits="userSpaceOnUse"><feOffset dy="31" input="SourceAlpha"/><feGaussianBlur stdDeviation="25.5" result="h"/><feFlood flood-opacity="0.161"/><feComposite operator="in" in2="h"/><feComposite in="SourceGraphic"/></filter><clipPath id="j"><rect width="1920" height="264"/></clipPath></defs><g id="i" class="a"><rect class="b" width="1920" height="268"/><path class="c" d="M65.781-7.114,685,0,646.892,103.733,0,93Z" transform="matrix(0.966, -0.259, 0.259, 0.966, 1061.635, 111.23)"/><ellipse class="d" cx="133" cy="131" rx="133" ry="131" transform="translate(959.832 12.693) rotate(-13)"/><ellipse class="e" cx="133" cy="131" rx="133" ry="131" transform="translate(1299.887 -65.814) rotate(-13)"/><ellipse class="f" cx="133" cy="131" rx="133" ry="131" transform="translate(1639.942 -144.323) rotate(-13)"/><g class="g" transform="matrix(1, 0, 0, 1, 0, 0)"><circle class="d" cx="50" cy="50" r="50" transform="translate(1497.93 91.95) rotate(-13)"/></g></g></svg>