<svg xmlns="http://www.w3.org/2000/svg" viewBox="0 0 112 174"><defs><style>.a,.c{opacity:0.35;}.b,.c{fill:#b4b4b4;}</style></defs><g transform="translate(-246.5 -556.5)"><g class="a" transform="translate(-98.5 1623.5) rotate(-90)"><circle class="b" cx="2" cy="2" r="2" transform="translate(953 345)"/><circle class="b" cx="2" cy="2" r="2" transform="translate(963 345)"/><circle class="b" cx="2" cy="2" r="2" transform="translate(973 345)"/><circle class="b" cx="2" cy="2" r="2" transform="translate(983 345)"/><circle class="b" cx="2" cy="2" r="2" transform="translate(993 345)"/><circle class="b" cx="2" cy="2" r="2" transform="translate(1003 345)"/><circle class="b" cx="2" cy="2" r="2" transform="translate(1013 345)"/><circle class="b" cx="2" cy="2" r="2" transform="translate(1023 345)"/><circle class="b" cx="2" cy="2" r="2" transform="translate(1033 345)"/><circle class="b" cx="2" cy="2" r="2" transform="translate(1043 345)"/><circle class="b" cx="2" cy="2" r="2" transform="translate(1053 345)"/><circle class="b" cx="2" cy="2" r="2" transform="translate(1063 345)"/><circle class="b" cx="2" cy="2" r="2" transform="translate(953 354)"/><circle class="b" cx="2" cy="2" r="2" transform="translate(963 354)"/><circle class="b" cx="2" cy="2" r="2" transform="translate(973 354)"/><circle class="b" cx="2" cy="2" r="2" transform="translate(983 354)"/><circle class="b" cx="2" cy="2" r="2" transform="translate(993 354)"/><circle class="b" cx="2" cy="2" r="2" transform="translate(1003 354)"/><circle class="b" cx="2" cy="2" r="2" transform="translate(1013 354)"/><circle class="b" cx="2" cy="2" r="2" transform="translate(1023 354)"/><circle class="b" cx="2" cy="2" r="2" transform="translate(1033 354)"/><circle class="b" cx="2" cy="2" r="2" transform="translate(1043 354)"/><circle class="b" cx="2" cy="2" r="2" transform="translate(1053 354)"/><circle class="b" cx="2" cy="2" r="2" transform="translate(1063 354)"/><circle class="b" cx="2" cy="2" r="2" transform="translate(953 363)"/><circle class="b" cx="2" cy="2" r="2" transform="translate(963 363)"/><circle class="b" cx="2" cy="2" r="2" transform="translate(973 363)"/><circle class="b" cx="2" cy="2" r="2" transform="translate(983 363)"/><circle class="b" cx="2" cy="2" r="2" transform="translate(993 363)"/><circle class="b" cx="2" cy="2" r="2" transform="translate(1003 363)"/><circle class="b" cx="2" cy="2" r="2" transform="translate(1013 363)"/><circle class="b" cx="2" cy="2" r="2" transform="translate(1023 363)"/><circle class="b" cx="2" cy="2" r="2" transform="translate(1033 363)"/><circle class="b" cx="2" cy="2" r="2" transform="translate(1043 363)"/><circle class="b" cx="2" cy="2" r="2" transform="translate(1053 363)"/><circle class="b" cx="2" cy="2" r="2" transform="translate(1063 363)"/><circle class="b" cx="2" cy="2" r="2" transform="translate(953 372)"/><circle class="b" cx="2" cy="2" r="2" transform="translate(963 372)"/><circle class="b" cx="2" cy="2" r="2" transform="translate(973 372)"/><circle class="b" cx="2" cy="2" r="2" transform="translate(983 372)"/><circle class="b" cx="2" cy="2" r="2" transform="translate(993 372)"/><circle class="b" cx="2" cy="2" r="2" transform="translate(1003 372)"/><circle class="b" cx="2" cy="2" r="2" transform="translate(1013 372)"/><circle class="b" cx="2" cy="2" r="2" transform="translate(1023 372)"/><circle class="b" cx="2" cy="2" r="2" transform="translate(1033 372)"/><circle class="b" cx="2" cy="2" r="2" transform="translate(1043 372)"/><circle class="b" cx="2" cy="2" r="2" transform="translate(1053 372)"/><circle class="b" cx="2" cy="2" r="2" transform="translate(1063 372)"/><circle class="b" cx="2" cy="2" r="2" transform="translate(953 381)"/><circle class="b" cx="2" cy="2" r="2" transform="translate(963 381)"/><circle class="b" cx="2" cy="2" r="2" transform="translate(973 381)"/><circle class="b" cx="2" cy="2" r="2" transform="translate(983 381)"/><circle class="b" cx="2" cy="2" r="2" transform="translate(993 381)"/><circle class="b" cx="2" cy="2" r="2" transform="translate(1003 381)"/><circle class="b" cx="2" cy="2" r="2" transform="translate(1013 381)"/><circle class="b" cx="2" cy="2" r="2" transform="translate(1023 381)"/><circle class="b" cx="2" cy="2" r="2" transform="translate(1033 381)"/><circle class="b" cx="2" cy="2" r="2" transform="translate(1043 381)"/><circle class="b" cx="2" cy="2" r="2" transform="translate(1053 381)"/><circle class="b" cx="2" cy="2" r="2" transform="translate(1063 381)"/><circle class="b" cx="2" cy="2" r="2" transform="translate(1013 390)"/><circle class="b" cx="2" cy="2" r="2" transform="translate(1023 390)"/><circle class="b" cx="2" cy="2" r="2" transform="translate(1033 390)"/><circle class="b" cx="2" cy="2" r="2" transform="translate(1043 390)"/><circle class="b" cx="2" cy="2" r="2" transform="translate(1053 390)"/><circle class="b" cx="2" cy="2" r="2" transform="translate(1063 390)"/><circle class="b" cx="2" cy="2" r="2" transform="translate(1013 399)"/><circle class="b" cx="2" cy="2" r="2" transform="translate(1023 399)"/><circle class="b" cx="2" cy="2" r="2" transform="translate(1033 399)"/><circle class="b" cx="2" cy="2" r="2" transform="translate(1043 399)"/><circle class="b" cx="2" cy="2" r="2" transform="translate(1053 399)"/><circle class="b" cx="2" cy="2" r="2" transform="translate(1063 399)"/><circle class="b" cx="2" cy="2" r="2" transform="translate(1013 408)"/><circle class="b" cx="2" cy="2" r="2" transform="translate(1023 408)"/><circle class="b" cx="2" cy="2" r="2" transform="translate(1033 408)"/><circle class="b" cx="2" cy="2" r="2" transform="translate(1043 408)"/><circle class="b" cx="2" cy="2" r="2" transform="translate(1053 408)"/><circle class="b" cx="2" cy="2" r="2" transform="translate(1063 408)"/><circle class="b" cx="2" cy="2" r="2" transform="translate(1013 417)"/><circle class="b" cx="2" cy="2" r="2" transform="translate(1023 417)"/><circle class="b" cx="2" cy="2" r="2" transform="translate(1033 417)"/><circle class="b" cx="2" cy="2" r="2" transform="translate(1043 417)"/><circle class="b" cx="2" cy="2" r="2" transform="translate(1053 417)"/><circle class="b" cx="2" cy="2" r="2" transform="translate(1063 417)"/></g><circle class="c" cx="2" cy="2" r="2" transform="translate(327.5 610.5) rotate(-90)"/><circle class="c" cx="2" cy="2" r="2" transform="translate(327.5 600.5) rotate(-90)"/><circle class="c" cx="2" cy="2" r="2" transform="translate(327.5 590.5) rotate(-90)"/><circle class="c" cx="2" cy="2" r="2" transform="translate(327.5 580.5) rotate(-90)"/><circle class="c" cx="2" cy="2" r="2" transform="translate(327.5 570.5) rotate(-90)"/><circle class="c" cx="2" cy="2" r="2" transform="translate(327.5 560.5) rotate(-90)"/><circle class="c" cx="2" cy="2" r="2" transform="translate(336.5 610.5) rotate(-90)"/><circle class="c" cx="2" cy="2" r="2" transform="translate(336.5 600.5) rotate(-90)"/><circle class="c" cx="2" cy="2" r="2" transform="translate(336.5 590.5) rotate(-90)"/><circle class="c" cx="2" cy="2" r="2" transform="translate(336.5 580.5) rotate(-90)"/><circle class="c" cx="2" cy="2" r="2" transform="translate(336.5 570.5) rotate(-90)"/><circle class="c" cx="2" cy="2" r="2" transform="translate(336.5 560.5) rotate(-90)"/><circle class="c" cx="2" cy="2" r="2" transform="translate(345.5 610.5) rotate(-90)"/><circle class="c" cx="2" cy="2" r="2" transform="translate(345.5 600.5) rotate(-90)"/><circle class="c" cx="2" cy="2" r="2" transform="translate(345.5 590.5) rotate(-90)"/><circle class="c" cx="2" cy="2" r="2" transform="translate(345.5 580.5) rotate(-90)"/><circle class="c" cx="2" cy="2" r="2" transform="translate(345.5 570.5) rotate(-90)"/><circle class="c" cx="2" cy="2" r="2" transform="translate(345.5 560.5) rotate(-90)"/><circle class="c" cx="2" cy="2" r="2" transform="translate(354.5 610.5) rotate(-90)"/><circle class="c" cx="2" cy="2" r="2" transform="translate(354.5 600.5) rotate(-90)"/><circle class="c" cx="2" cy="2" r="2" transform="translate(354.5 590.5) rotate(-90)"/><circle class="c" cx="2" cy="2" r="2" transform="translate(354.5 580.5) rotate(-90)"/><circle class="c" cx="2" cy="2" r="2" transform="translate(354.5 570.5) rotate(-90)"/><circle class="c" cx="2" cy="2" r="2" transform="translate(354.5 560.5) rotate(-90)"/><circle class="c" cx="2" cy="2" r="2" transform="translate(246.5 730.5) rotate(-90)"/><circle class="c" cx="2" cy="2" r="2" transform="translate(246.5 720.5) rotate(-90)"/><circle class="c" cx="2" cy="2" r="2" transform="translate(246.5 710.5) rotate(-90)"/><circle class="c" cx="2" cy="2" r="2" transform="translate(246.5 700.5) rotate(-90)"/><circle class="c" cx="2" cy="2" r="2" transform="translate(246.5 690.5) rotate(-90)"/><circle class="c" cx="2" cy="2" r="2" transform="translate(246.5 680.5) rotate(-90)"/><circle class="c" cx="2" cy="2" r="2" transform="translate(255.5 730.5) rotate(-90)"/><circle class="c" cx="2" cy="2" r="2" transform="translate(255.5 720.5) rotate(-90)"/><circle class="c" cx="2" cy="2" r="2" transform="translate(255.5 710.5) rotate(-90)"/><circle class="c" cx="2" cy="2" r="2" transform="translate(255.5 700.5) rotate(-90)"/><circle class="c" cx="2" cy="2" r="2" transform="translate(255.5 690.5) rotate(-90)"/><circle class="c" cx="2" cy="2" r="2" transform="translate(255.5 680.5) rotate(-90)"/><circle class="c" cx="2" cy="2" r="2" transform="translate(264.5 730.5) rotate(-90)"/><circle class="c" cx="2" cy="2" r="2" transform="translate(264.5 720.5) rotate(-90)"/><circle class="c" cx="2" cy="2" r="2" transform="translate(264.5 710.5) rotate(-90)"/><circle class="c" cx="2" cy="2" r="2" transform="translate(264.5 700.5) rotate(-90)"/><circle class="c" cx="2" cy="2" r="2" transform="translate(264.5 690.5) rotate(-90)"/><circle class="c" cx="2" cy="2" r="2" transform="translate(264.5 680.5) rotate(-90)"/><circle class="c" cx="2" cy="2" r="2" transform="translate(273.5 730.5) rotate(-90)"/><circle class="c" cx="2" cy="2" r="2" transform="translate(273.5 720.5) rotate(-90)"/><circle class="c" cx="2" cy="2" r="2" transform="translate(273.5 710.5) rotate(-90)"/><circle class="c" cx="2" cy="2" r="2" transform="translate(273.5 700.5) rotate(-90)"/><circle class="c" cx="2" cy="2" r="2" transform="translate(273.5 690.5) rotate(-90)"/><circle class="c" cx="2" cy="2" r="2" transform="translate(273.5 680.5) rotate(-90)"/><circle class="c" cx="2" cy="2" r="2" transform="translate(282.5 730.5) rotate(-90)"/><circle class="c" cx="2" cy="2" r="2" transform="translate(282.5 720.5) rotate(-90)"/><circle class="c" cx="2" cy="2" r="2" transform="translate(282.5 710.5) rotate(-90)"/><circle class="c" cx="2" cy="2" r="2" transform="translate(282.5 700.5) rotate(-90)"/><circle class="c" cx="2" cy="2" r="2" transform="translate(282.5 690.5) rotate(-90)"/><circle class="c" cx="2" cy="2" r="2" transform="translate(282.5 680.5) rotate(-90)"/></g></svg>