<svg xmlns="http://www.w3.org/2000/svg" viewBox="0 0 114 157"><defs><style>.a,.c{opacity:0.35;}.b,.c{fill:#b4b4b4;}</style></defs><g transform="translate(-953 -345)"><g class="a"><circle class="b" cx="2" cy="2" r="2" transform="translate(953 345)"/><circle class="b" cx="2" cy="2" r="2" transform="translate(963 345)"/><circle class="b" cx="2" cy="2" r="2" transform="translate(973 345)"/><circle class="b" cx="2" cy="2" r="2" transform="translate(983 345)"/><circle class="b" cx="2" cy="2" r="2" transform="translate(993 345)"/><circle class="b" cx="2" cy="2" r="2" transform="translate(1003 345)"/><circle class="b" cx="2" cy="2" r="2" transform="translate(1013 345)"/><circle class="b" cx="2" cy="2" r="2" transform="translate(1023 345)"/><circle class="b" cx="2" cy="2" r="2" transform="translate(1033 345)"/><circle class="b" cx="2" cy="2" r="2" transform="translate(1043 345)"/><circle class="b" cx="2" cy="2" r="2" transform="translate(1053 345)"/><circle class="b" cx="2" cy="2" r="2" transform="translate(1063 345)"/><circle class="b" cx="2" cy="2" r="2" transform="translate(953 354)"/><circle class="b" cx="2" cy="2" r="2" transform="translate(963 354)"/><circle class="b" cx="2" cy="2" r="2" transform="translate(973 354)"/><circle class="b" cx="2" cy="2" r="2" transform="translate(983 354)"/><circle class="b" cx="2" cy="2" r="2" transform="translate(993 354)"/><circle class="b" cx="2" cy="2" r="2" transform="translate(1003 354)"/><circle class="b" cx="2" cy="2" r="2" transform="translate(1013 354)"/><circle class="b" cx="2" cy="2" r="2" transform="translate(1023 354)"/><circle class="b" cx="2" cy="2" r="2" transform="translate(1033 354)"/><circle class="b" cx="2" cy="2" r="2" transform="translate(1043 354)"/><circle class="b" cx="2" cy="2" r="2" transform="translate(1053 354)"/><circle class="b" cx="2" cy="2" r="2" transform="translate(1063 354)"/><circle class="b" cx="2" cy="2" r="2" transform="translate(953 363)"/><circle class="b" cx="2" cy="2" r="2" transform="translate(963 363)"/><circle class="b" cx="2" cy="2" r="2" transform="translate(973 363)"/><circle class="b" cx="2" cy="2" r="2" transform="translate(983 363)"/><circle class="b" cx="2" cy="2" r="2" transform="translate(993 363)"/><circle class="b" cx="2" cy="2" r="2" transform="translate(1003 363)"/><circle class="b" cx="2" cy="2" r="2" transform="translate(1013 363)"/><circle class="b" cx="2" cy="2" r="2" transform="translate(1023 363)"/><circle class="b" cx="2" cy="2" r="2" transform="translate(1033 363)"/><circle class="b" cx="2" cy="2" r="2" transform="translate(1043 363)"/><circle class="b" cx="2" cy="2" r="2" transform="translate(1053 363)"/><circle class="b" cx="2" cy="2" r="2" transform="translate(1063 363)"/><circle class="b" cx="2" cy="2" r="2" transform="translate(953 372)"/><circle class="b" cx="2" cy="2" r="2" transform="translate(963 372)"/><circle class="b" cx="2" cy="2" r="2" transform="translate(973 372)"/><circle class="b" cx="2" cy="2" r="2" transform="translate(983 372)"/><circle class="b" cx="2" cy="2" r="2" transform="translate(993 372)"/><circle class="b" cx="2" cy="2" r="2" transform="translate(1003 372)"/><circle class="b" cx="2" cy="2" r="2" transform="translate(1013 372)"/><circle class="b" cx="2" cy="2" r="2" transform="translate(1023 372)"/><circle class="b" cx="2" cy="2" r="2" transform="translate(1033 372)"/><circle class="b" cx="2" cy="2" r="2" transform="translate(1043 372)"/><circle class="b" cx="2" cy="2" r="2" transform="translate(1053 372)"/><circle class="b" cx="2" cy="2" r="2" transform="translate(1063 372)"/><circle class="b" cx="2" cy="2" r="2" transform="translate(953 381)"/><circle class="b" cx="2" cy="2" r="2" transform="translate(963 381)"/><circle class="b" cx="2" cy="2" r="2" transform="translate(973 381)"/><circle class="b" cx="2" cy="2" r="2" transform="translate(983 381)"/><circle class="b" cx="2" cy="2" r="2" transform="translate(993 381)"/><circle class="b" cx="2" cy="2" r="2" transform="translate(1003 381)"/><circle class="b" cx="2" cy="2" r="2" transform="translate(1013 381)"/><circle class="b" cx="2" cy="2" r="2" transform="translate(1023 381)"/><circle class="b" cx="2" cy="2" r="2" transform="translate(1033 381)"/><circle class="b" cx="2" cy="2" r="2" transform="translate(1043 381)"/><circle class="b" cx="2" cy="2" r="2" transform="translate(1053 381)"/><circle class="b" cx="2" cy="2" r="2" transform="translate(1063 381)"/><circle class="b" cx="2" cy="2" r="2" transform="translate(1013 390)"/><circle class="b" cx="2" cy="2" r="2" transform="translate(1023 390)"/><circle class="b" cx="2" cy="2" r="2" transform="translate(1033 390)"/><circle class="b" cx="2" cy="2" r="2" transform="translate(1043 390)"/><circle class="b" cx="2" cy="2" r="2" transform="translate(1053 390)"/><circle class="b" cx="2" cy="2" r="2" transform="translate(1063 390)"/><circle class="b" cx="2" cy="2" r="2" transform="translate(1013 399)"/><circle class="b" cx="2" cy="2" r="2" transform="translate(1023 399)"/><circle class="b" cx="2" cy="2" r="2" transform="translate(1033 399)"/><circle class="b" cx="2" cy="2" r="2" transform="translate(1043 399)"/><circle class="b" cx="2" cy="2" r="2" transform="translate(1053 399)"/><circle class="b" cx="2" cy="2" r="2" transform="translate(1063 399)"/><circle class="b" cx="2" cy="2" r="2" transform="translate(1013 408)"/><circle class="b" cx="2" cy="2" r="2" transform="translate(1023 408)"/><circle class="b" cx="2" cy="2" r="2" transform="translate(1033 408)"/><circle class="b" cx="2" cy="2" r="2" transform="translate(1043 408)"/><circle class="b" cx="2" cy="2" r="2" transform="translate(1053 408)"/><circle class="b" cx="2" cy="2" r="2" transform="translate(1063 408)"/><circle class="b" cx="2" cy="2" r="2" transform="translate(1013 417)"/><circle class="b" cx="2" cy="2" r="2" transform="translate(1023 417)"/><circle class="b" cx="2" cy="2" r="2" transform="translate(1033 417)"/><circle class="b" cx="2" cy="2" r="2" transform="translate(1043 417)"/><circle class="b" cx="2" cy="2" r="2" transform="translate(1053 417)"/><circle class="b" cx="2" cy="2" r="2" transform="translate(1063 417)"/></g><circle class="c" cx="2" cy="2" r="2" transform="translate(1013 426)"/><circle class="c" cx="2" cy="2" r="2" transform="translate(1023 426)"/><circle class="c" cx="2" cy="2" r="2" transform="translate(1033 426)"/><circle class="c" cx="2" cy="2" r="2" transform="translate(1043 426)"/><circle class="c" cx="2" cy="2" r="2" transform="translate(1053 426)"/><circle class="c" cx="2" cy="2" r="2" transform="translate(1063 426)"/><circle class="c" cx="2" cy="2" r="2" transform="translate(1013 435)"/><circle class="c" cx="2" cy="2" r="2" transform="translate(1023 435)"/><circle class="c" cx="2" cy="2" r="2" transform="translate(1033 435)"/><circle class="c" cx="2" cy="2" r="2" transform="translate(1043 435)"/><circle class="c" cx="2" cy="2" r="2" transform="translate(1053 435)"/><circle class="c" cx="2" cy="2" r="2" transform="translate(1063 435)"/><circle class="c" cx="2" cy="2" r="2" transform="translate(1013 444)"/><circle class="c" cx="2" cy="2" r="2" transform="translate(1023 444)"/><circle class="c" cx="2" cy="2" r="2" transform="translate(1033 444)"/><circle class="c" cx="2" cy="2" r="2" transform="translate(1043 444)"/><circle class="c" cx="2" cy="2" r="2" transform="translate(1053 444)"/><circle class="c" cx="2" cy="2" r="2" transform="translate(1063 444)"/><circle class="c" cx="2" cy="2" r="2" transform="translate(1013 453)"/><circle class="c" cx="2" cy="2" r="2" transform="translate(1023 453)"/><circle class="c" cx="2" cy="2" r="2" transform="translate(1033 453)"/><circle class="c" cx="2" cy="2" r="2" transform="translate(1043 453)"/><circle class="c" cx="2" cy="2" r="2" transform="translate(1053 453)"/><circle class="c" cx="2" cy="2" r="2" transform="translate(1063 453)"/><circle class="c" cx="2" cy="2" r="2" transform="translate(1013 462)"/><circle class="c" cx="2" cy="2" r="2" transform="translate(1023 462)"/><circle class="c" cx="2" cy="2" r="2" transform="translate(1033 462)"/><circle class="c" cx="2" cy="2" r="2" transform="translate(1043 462)"/><circle class="c" cx="2" cy="2" r="2" transform="translate(1053 462)"/><circle class="c" cx="2" cy="2" r="2" transform="translate(1063 462)"/><circle class="c" cx="2" cy="2" r="2" transform="translate(1013 471)"/><circle class="c" cx="2" cy="2" r="2" transform="translate(1023 471)"/><circle class="c" cx="2" cy="2" r="2" transform="translate(1033 471)"/><circle class="c" cx="2" cy="2" r="2" transform="translate(1043 471)"/><circle class="c" cx="2" cy="2" r="2" transform="translate(1053 471)"/><circle class="c" cx="2" cy="2" r="2" transform="translate(1063 471)"/><circle class="c" cx="2" cy="2" r="2" transform="translate(1013 480)"/><circle class="c" cx="2" cy="2" r="2" transform="translate(1023 480)"/><circle class="c" cx="2" cy="2" r="2" transform="translate(1033 480)"/><circle class="c" cx="2" cy="2" r="2" transform="translate(1043 480)"/><circle class="c" cx="2" cy="2" r="2" transform="translate(1053 480)"/><circle class="c" cx="2" cy="2" r="2" transform="translate(1063 480)"/><circle class="c" cx="2" cy="2" r="2" transform="translate(1013 489)"/><circle class="c" cx="2" cy="2" r="2" transform="translate(1023 489)"/><circle class="c" cx="2" cy="2" r="2" transform="translate(1033 489)"/><circle class="c" cx="2" cy="2" r="2" transform="translate(1043 489)"/><circle class="c" cx="2" cy="2" r="2" transform="translate(1053 489)"/><circle class="c" cx="2" cy="2" r="2" transform="translate(1063 489)"/><circle class="c" cx="2" cy="2" r="2" transform="translate(1013 498)"/><circle class="c" cx="2" cy="2" r="2" transform="translate(1023 498)"/><circle class="c" cx="2" cy="2" r="2" transform="translate(1033 498)"/><circle class="c" cx="2" cy="2" r="2" transform="translate(1043 498)"/><circle class="c" cx="2" cy="2" r="2" transform="translate(1053 498)"/><circle class="c" cx="2" cy="2" r="2" transform="translate(1063 498)"/></g></svg>