<svg xmlns="http://www.w3.org/2000/svg" xmlns:xlink="http://www.w3.org/1999/xlink" viewBox="0 0 1227 1256">
  <defs>
    <style>
      .cls-1 {
        fill: none;
      }

      .cls-2 {
        clip-path: url(#clip-header-a);
      }

      .cls-3 {
        clip-path: url(#clip-path);
      }

      .cls-4 {
        fill: #ebebeb;
      }
    </style>
    <clipPath id="clip-path">
      <rect class="cls-1" width="449" height="425"/>
    </clipPath>
    <clipPath id="clip-header-a">
      <rect width="1227" height="1256"/>
    </clipPath>
  </defs>
  <g id="header-a" class="cls-2">
    <g id="Repeat_Grid_1" data-name="Repeat Grid 1" class="cls-3" transform="translate(602 542)">
      <g transform="translate(-255 -460)">
        <circle id="Ellipse_62" data-name="Ellipse 62" class="cls-4" cx="6.5" cy="6.5" r="6.5" transform="translate(255 460)"/>
      </g>
      <g transform="translate(-224 -460)">
        <circle id="Ellipse_62-2" data-name="Ellipse 62" class="cls-4" cx="6.5" cy="6.5" r="6.5" transform="translate(255 460)"/>
      </g>
      <g transform="translate(-193 -460)">
        <circle id="Ellipse_62-3" data-name="Ellipse 62" class="cls-4" cx="6.5" cy="6.5" r="6.5" transform="translate(255 460)"/>
      </g>
      <g transform="translate(-162 -460)">
        <circle id="Ellipse_62-4" data-name="Ellipse 62" class="cls-4" cx="6.5" cy="6.5" r="6.5" transform="translate(255 460)"/>
      </g>
      <g transform="translate(-131 -460)">
        <circle id="Ellipse_62-5" data-name="Ellipse 62" class="cls-4" cx="6.5" cy="6.5" r="6.5" transform="translate(255 460)"/>
      </g>
      <g transform="translate(-100 -460)">
        <circle id="Ellipse_62-6" data-name="Ellipse 62" class="cls-4" cx="6.5" cy="6.5" r="6.5" transform="translate(255 460)"/>
      </g>
      <g transform="translate(-69 -460)">
        <circle id="Ellipse_62-7" data-name="Ellipse 62" class="cls-4" cx="6.5" cy="6.5" r="6.5" transform="translate(255 460)"/>
      </g>
      <g transform="translate(-38 -460)">
        <circle id="Ellipse_62-8" data-name="Ellipse 62" class="cls-4" cx="6.5" cy="6.5" r="6.5" transform="translate(255 460)"/>
      </g>
      <g transform="translate(-7 -460)">
        <circle id="Ellipse_62-9" data-name="Ellipse 62" class="cls-4" cx="6.5" cy="6.5" r="6.5" transform="translate(255 460)"/>
      </g>
      <g transform="translate(24 -460)">
        <circle id="Ellipse_62-10" data-name="Ellipse 62" class="cls-4" cx="6.5" cy="6.5" r="6.5" transform="translate(255 460)"/>
      </g>
      <g transform="translate(55 -460)">
        <circle id="Ellipse_62-11" data-name="Ellipse 62" class="cls-4" cx="6.5" cy="6.5" r="6.5" transform="translate(255 460)"/>
      </g>
      <g transform="translate(86 -460)">
        <circle id="Ellipse_62-12" data-name="Ellipse 62" class="cls-4" cx="6.5" cy="6.5" r="6.5" transform="translate(255 460)"/>
      </g>
      <g transform="translate(117 -460)">
        <circle id="Ellipse_62-13" data-name="Ellipse 62" class="cls-4" cx="6.5" cy="6.5" r="6.5" transform="translate(255 460)"/>
      </g>
      <g transform="translate(148 -460)">
        <circle id="Ellipse_62-14" data-name="Ellipse 62" class="cls-4" cx="6.5" cy="6.5" r="6.5" transform="translate(255 460)"/>
      </g>
      <g transform="translate(179 -460)">
        <circle id="Ellipse_62-15" data-name="Ellipse 62" class="cls-4" cx="6.5" cy="6.5" r="6.5" transform="translate(255 460)"/>
      </g>
      <g transform="translate(-255 -429)">
        <circle id="Ellipse_62-16" data-name="Ellipse 62" class="cls-4" cx="6.5" cy="6.5" r="6.5" transform="translate(255 460)"/>
      </g>
      <g transform="translate(-224 -429)">
        <circle id="Ellipse_62-17" data-name="Ellipse 62" class="cls-4" cx="6.5" cy="6.5" r="6.5" transform="translate(255 460)"/>
      </g>
      <g transform="translate(-193 -429)">
        <circle id="Ellipse_62-18" data-name="Ellipse 62" class="cls-4" cx="6.5" cy="6.5" r="6.5" transform="translate(255 460)"/>
      </g>
      <g transform="translate(-162 -429)">
        <circle id="Ellipse_62-19" data-name="Ellipse 62" class="cls-4" cx="6.5" cy="6.5" r="6.5" transform="translate(255 460)"/>
      </g>
      <g transform="translate(-131 -429)">
        <circle id="Ellipse_62-20" data-name="Ellipse 62" class="cls-4" cx="6.5" cy="6.5" r="6.5" transform="translate(255 460)"/>
      </g>
      <g transform="translate(-100 -429)">
        <circle id="Ellipse_62-21" data-name="Ellipse 62" class="cls-4" cx="6.5" cy="6.5" r="6.5" transform="translate(255 460)"/>
      </g>
      <g transform="translate(-69 -429)">
        <circle id="Ellipse_62-22" data-name="Ellipse 62" class="cls-4" cx="6.5" cy="6.5" r="6.5" transform="translate(255 460)"/>
      </g>
      <g transform="translate(-38 -429)">
        <circle id="Ellipse_62-23" data-name="Ellipse 62" class="cls-4" cx="6.5" cy="6.5" r="6.5" transform="translate(255 460)"/>
      </g>
      <g transform="translate(-7 -429)">
        <circle id="Ellipse_62-24" data-name="Ellipse 62" class="cls-4" cx="6.5" cy="6.5" r="6.5" transform="translate(255 460)"/>
      </g>
      <g transform="translate(24 -429)">
        <circle id="Ellipse_62-25" data-name="Ellipse 62" class="cls-4" cx="6.5" cy="6.5" r="6.5" transform="translate(255 460)"/>
      </g>
      <g transform="translate(55 -429)">
        <circle id="Ellipse_62-26" data-name="Ellipse 62" class="cls-4" cx="6.5" cy="6.5" r="6.5" transform="translate(255 460)"/>
      </g>
      <g transform="translate(86 -429)">
        <circle id="Ellipse_62-27" data-name="Ellipse 62" class="cls-4" cx="6.5" cy="6.5" r="6.5" transform="translate(255 460)"/>
      </g>
      <g transform="translate(117 -429)">
        <circle id="Ellipse_62-28" data-name="Ellipse 62" class="cls-4" cx="6.5" cy="6.5" r="6.5" transform="translate(255 460)"/>
      </g>
      <g transform="translate(148 -429)">
        <circle id="Ellipse_62-29" data-name="Ellipse 62" class="cls-4" cx="6.5" cy="6.5" r="6.5" transform="translate(255 460)"/>
      </g>
      <g transform="translate(179 -429)">
        <circle id="Ellipse_62-30" data-name="Ellipse 62" class="cls-4" cx="6.5" cy="6.5" r="6.5" transform="translate(255 460)"/>
      </g>
      <g transform="translate(-255 -398)">
        <circle id="Ellipse_62-31" data-name="Ellipse 62" class="cls-4" cx="6.5" cy="6.5" r="6.5" transform="translate(255 460)"/>
      </g>
      <g transform="translate(-224 -398)">
        <circle id="Ellipse_62-32" data-name="Ellipse 62" class="cls-4" cx="6.5" cy="6.5" r="6.5" transform="translate(255 460)"/>
      </g>
      <g transform="translate(-193 -398)">
        <circle id="Ellipse_62-33" data-name="Ellipse 62" class="cls-4" cx="6.5" cy="6.5" r="6.5" transform="translate(255 460)"/>
      </g>
      <g transform="translate(-162 -398)">
        <circle id="Ellipse_62-34" data-name="Ellipse 62" class="cls-4" cx="6.5" cy="6.5" r="6.5" transform="translate(255 460)"/>
      </g>
      <g transform="translate(-131 -398)">
        <circle id="Ellipse_62-35" data-name="Ellipse 62" class="cls-4" cx="6.5" cy="6.5" r="6.5" transform="translate(255 460)"/>
      </g>
      <g transform="translate(-100 -398)">
        <circle id="Ellipse_62-36" data-name="Ellipse 62" class="cls-4" cx="6.5" cy="6.5" r="6.5" transform="translate(255 460)"/>
      </g>
      <g transform="translate(-69 -398)">
        <circle id="Ellipse_62-37" data-name="Ellipse 62" class="cls-4" cx="6.5" cy="6.5" r="6.5" transform="translate(255 460)"/>
      </g>
      <g transform="translate(-38 -398)">
        <circle id="Ellipse_62-38" data-name="Ellipse 62" class="cls-4" cx="6.5" cy="6.5" r="6.5" transform="translate(255 460)"/>
      </g>
      <g transform="translate(-7 -398)">
        <circle id="Ellipse_62-39" data-name="Ellipse 62" class="cls-4" cx="6.5" cy="6.5" r="6.5" transform="translate(255 460)"/>
      </g>
      <g transform="translate(24 -398)">
        <circle id="Ellipse_62-40" data-name="Ellipse 62" class="cls-4" cx="6.5" cy="6.5" r="6.5" transform="translate(255 460)"/>
      </g>
      <g transform="translate(55 -398)">
        <circle id="Ellipse_62-41" data-name="Ellipse 62" class="cls-4" cx="6.5" cy="6.5" r="6.5" transform="translate(255 460)"/>
      </g>
      <g transform="translate(86 -398)">
        <circle id="Ellipse_62-42" data-name="Ellipse 62" class="cls-4" cx="6.5" cy="6.5" r="6.5" transform="translate(255 460)"/>
      </g>
      <g transform="translate(117 -398)">
        <circle id="Ellipse_62-43" data-name="Ellipse 62" class="cls-4" cx="6.5" cy="6.5" r="6.5" transform="translate(255 460)"/>
      </g>
      <g transform="translate(148 -398)">
        <circle id="Ellipse_62-44" data-name="Ellipse 62" class="cls-4" cx="6.5" cy="6.5" r="6.5" transform="translate(255 460)"/>
      </g>
      <g transform="translate(179 -398)">
        <circle id="Ellipse_62-45" data-name="Ellipse 62" class="cls-4" cx="6.5" cy="6.5" r="6.5" transform="translate(255 460)"/>
      </g>
      <g transform="translate(-255 -367)">
        <circle id="Ellipse_62-46" data-name="Ellipse 62" class="cls-4" cx="6.5" cy="6.5" r="6.5" transform="translate(255 460)"/>
      </g>
      <g transform="translate(-224 -367)">
        <circle id="Ellipse_62-47" data-name="Ellipse 62" class="cls-4" cx="6.5" cy="6.5" r="6.5" transform="translate(255 460)"/>
      </g>
      <g transform="translate(-193 -367)">
        <circle id="Ellipse_62-48" data-name="Ellipse 62" class="cls-4" cx="6.5" cy="6.5" r="6.5" transform="translate(255 460)"/>
      </g>
      <g transform="translate(-162 -367)">
        <circle id="Ellipse_62-49" data-name="Ellipse 62" class="cls-4" cx="6.5" cy="6.5" r="6.5" transform="translate(255 460)"/>
      </g>
      <g transform="translate(-131 -367)">
        <circle id="Ellipse_62-50" data-name="Ellipse 62" class="cls-4" cx="6.5" cy="6.5" r="6.5" transform="translate(255 460)"/>
      </g>
      <g transform="translate(-100 -367)">
        <circle id="Ellipse_62-51" data-name="Ellipse 62" class="cls-4" cx="6.5" cy="6.5" r="6.5" transform="translate(255 460)"/>
      </g>
      <g transform="translate(-69 -367)">
        <circle id="Ellipse_62-52" data-name="Ellipse 62" class="cls-4" cx="6.5" cy="6.5" r="6.5" transform="translate(255 460)"/>
      </g>
      <g transform="translate(-38 -367)">
        <circle id="Ellipse_62-53" data-name="Ellipse 62" class="cls-4" cx="6.5" cy="6.5" r="6.5" transform="translate(255 460)"/>
      </g>
      <g transform="translate(-7 -367)">
        <circle id="Ellipse_62-54" data-name="Ellipse 62" class="cls-4" cx="6.5" cy="6.5" r="6.5" transform="translate(255 460)"/>
      </g>
      <g transform="translate(24 -367)">
        <circle id="Ellipse_62-55" data-name="Ellipse 62" class="cls-4" cx="6.5" cy="6.5" r="6.5" transform="translate(255 460)"/>
      </g>
      <g transform="translate(55 -367)">
        <circle id="Ellipse_62-56" data-name="Ellipse 62" class="cls-4" cx="6.5" cy="6.5" r="6.5" transform="translate(255 460)"/>
      </g>
      <g transform="translate(86 -367)">
        <circle id="Ellipse_62-57" data-name="Ellipse 62" class="cls-4" cx="6.5" cy="6.5" r="6.5" transform="translate(255 460)"/>
      </g>
      <g transform="translate(117 -367)">
        <circle id="Ellipse_62-58" data-name="Ellipse 62" class="cls-4" cx="6.5" cy="6.5" r="6.5" transform="translate(255 460)"/>
      </g>
      <g transform="translate(148 -367)">
        <circle id="Ellipse_62-59" data-name="Ellipse 62" class="cls-4" cx="6.5" cy="6.5" r="6.5" transform="translate(255 460)"/>
      </g>
      <g transform="translate(179 -367)">
        <circle id="Ellipse_62-60" data-name="Ellipse 62" class="cls-4" cx="6.5" cy="6.5" r="6.5" transform="translate(255 460)"/>
      </g>
      <g transform="translate(-255 -336)">
        <circle id="Ellipse_62-61" data-name="Ellipse 62" class="cls-4" cx="6.5" cy="6.5" r="6.5" transform="translate(255 460)"/>
      </g>
      <g transform="translate(-224 -336)">
        <circle id="Ellipse_62-62" data-name="Ellipse 62" class="cls-4" cx="6.5" cy="6.5" r="6.5" transform="translate(255 460)"/>
      </g>
      <g transform="translate(-193 -336)">
        <circle id="Ellipse_62-63" data-name="Ellipse 62" class="cls-4" cx="6.5" cy="6.5" r="6.5" transform="translate(255 460)"/>
      </g>
      <g transform="translate(-162 -336)">
        <circle id="Ellipse_62-64" data-name="Ellipse 62" class="cls-4" cx="6.5" cy="6.5" r="6.5" transform="translate(255 460)"/>
      </g>
      <g transform="translate(-131 -336)">
        <circle id="Ellipse_62-65" data-name="Ellipse 62" class="cls-4" cx="6.5" cy="6.5" r="6.5" transform="translate(255 460)"/>
      </g>
      <g transform="translate(-100 -336)">
        <circle id="Ellipse_62-66" data-name="Ellipse 62" class="cls-4" cx="6.5" cy="6.5" r="6.5" transform="translate(255 460)"/>
      </g>
      <g transform="translate(-69 -336)">
        <circle id="Ellipse_62-67" data-name="Ellipse 62" class="cls-4" cx="6.5" cy="6.5" r="6.5" transform="translate(255 460)"/>
      </g>
      <g transform="translate(-38 -336)">
        <circle id="Ellipse_62-68" data-name="Ellipse 62" class="cls-4" cx="6.5" cy="6.5" r="6.5" transform="translate(255 460)"/>
      </g>
      <g transform="translate(-7 -336)">
        <circle id="Ellipse_62-69" data-name="Ellipse 62" class="cls-4" cx="6.5" cy="6.5" r="6.5" transform="translate(255 460)"/>
      </g>
      <g transform="translate(24 -336)">
        <circle id="Ellipse_62-70" data-name="Ellipse 62" class="cls-4" cx="6.5" cy="6.5" r="6.5" transform="translate(255 460)"/>
      </g>
      <g transform="translate(55 -336)">
        <circle id="Ellipse_62-71" data-name="Ellipse 62" class="cls-4" cx="6.5" cy="6.5" r="6.5" transform="translate(255 460)"/>
      </g>
      <g transform="translate(86 -336)">
        <circle id="Ellipse_62-72" data-name="Ellipse 62" class="cls-4" cx="6.5" cy="6.5" r="6.5" transform="translate(255 460)"/>
      </g>
      <g transform="translate(117 -336)">
        <circle id="Ellipse_62-73" data-name="Ellipse 62" class="cls-4" cx="6.5" cy="6.5" r="6.5" transform="translate(255 460)"/>
      </g>
      <g transform="translate(148 -336)">
        <circle id="Ellipse_62-74" data-name="Ellipse 62" class="cls-4" cx="6.5" cy="6.5" r="6.5" transform="translate(255 460)"/>
      </g>
      <g transform="translate(179 -336)">
        <circle id="Ellipse_62-75" data-name="Ellipse 62" class="cls-4" cx="6.5" cy="6.5" r="6.5" transform="translate(255 460)"/>
      </g>
      <g transform="translate(-255 -305)">
        <circle id="Ellipse_62-76" data-name="Ellipse 62" class="cls-4" cx="6.5" cy="6.5" r="6.5" transform="translate(255 460)"/>
      </g>
      <g transform="translate(-224 -305)">
        <circle id="Ellipse_62-77" data-name="Ellipse 62" class="cls-4" cx="6.5" cy="6.5" r="6.5" transform="translate(255 460)"/>
      </g>
      <g transform="translate(-193 -305)">
        <circle id="Ellipse_62-78" data-name="Ellipse 62" class="cls-4" cx="6.5" cy="6.5" r="6.5" transform="translate(255 460)"/>
      </g>
      <g transform="translate(-162 -305)">
        <circle id="Ellipse_62-79" data-name="Ellipse 62" class="cls-4" cx="6.5" cy="6.5" r="6.5" transform="translate(255 460)"/>
      </g>
      <g transform="translate(-131 -305)">
        <circle id="Ellipse_62-80" data-name="Ellipse 62" class="cls-4" cx="6.5" cy="6.5" r="6.5" transform="translate(255 460)"/>
      </g>
      <g transform="translate(-100 -305)">
        <circle id="Ellipse_62-81" data-name="Ellipse 62" class="cls-4" cx="6.5" cy="6.5" r="6.5" transform="translate(255 460)"/>
      </g>
      <g transform="translate(-69 -305)">
        <circle id="Ellipse_62-82" data-name="Ellipse 62" class="cls-4" cx="6.5" cy="6.5" r="6.5" transform="translate(255 460)"/>
      </g>
      <g transform="translate(-38 -305)">
        <circle id="Ellipse_62-83" data-name="Ellipse 62" class="cls-4" cx="6.5" cy="6.5" r="6.5" transform="translate(255 460)"/>
      </g>
      <g transform="translate(-7 -305)">
        <circle id="Ellipse_62-84" data-name="Ellipse 62" class="cls-4" cx="6.5" cy="6.5" r="6.5" transform="translate(255 460)"/>
      </g>
      <g transform="translate(24 -305)">
        <circle id="Ellipse_62-85" data-name="Ellipse 62" class="cls-4" cx="6.5" cy="6.5" r="6.5" transform="translate(255 460)"/>
      </g>
      <g transform="translate(55 -305)">
        <circle id="Ellipse_62-86" data-name="Ellipse 62" class="cls-4" cx="6.5" cy="6.5" r="6.5" transform="translate(255 460)"/>
      </g>
      <g transform="translate(86 -305)">
        <circle id="Ellipse_62-87" data-name="Ellipse 62" class="cls-4" cx="6.5" cy="6.5" r="6.5" transform="translate(255 460)"/>
      </g>
      <g transform="translate(117 -305)">
        <circle id="Ellipse_62-88" data-name="Ellipse 62" class="cls-4" cx="6.5" cy="6.5" r="6.5" transform="translate(255 460)"/>
      </g>
      <g transform="translate(148 -305)">
        <circle id="Ellipse_62-89" data-name="Ellipse 62" class="cls-4" cx="6.5" cy="6.5" r="6.5" transform="translate(255 460)"/>
      </g>
      <g transform="translate(179 -305)">
        <circle id="Ellipse_62-90" data-name="Ellipse 62" class="cls-4" cx="6.5" cy="6.5" r="6.5" transform="translate(255 460)"/>
      </g>
      <g transform="translate(-255 -274)">
        <circle id="Ellipse_62-91" data-name="Ellipse 62" class="cls-4" cx="6.5" cy="6.5" r="6.5" transform="translate(255 460)"/>
      </g>
      <g transform="translate(-224 -274)">
        <circle id="Ellipse_62-92" data-name="Ellipse 62" class="cls-4" cx="6.5" cy="6.5" r="6.5" transform="translate(255 460)"/>
      </g>
      <g transform="translate(-193 -274)">
        <circle id="Ellipse_62-93" data-name="Ellipse 62" class="cls-4" cx="6.5" cy="6.5" r="6.5" transform="translate(255 460)"/>
      </g>
      <g transform="translate(-162 -274)">
        <circle id="Ellipse_62-94" data-name="Ellipse 62" class="cls-4" cx="6.5" cy="6.5" r="6.5" transform="translate(255 460)"/>
      </g>
      <g transform="translate(-131 -274)">
        <circle id="Ellipse_62-95" data-name="Ellipse 62" class="cls-4" cx="6.5" cy="6.5" r="6.5" transform="translate(255 460)"/>
      </g>
      <g transform="translate(-100 -274)">
        <circle id="Ellipse_62-96" data-name="Ellipse 62" class="cls-4" cx="6.5" cy="6.5" r="6.5" transform="translate(255 460)"/>
      </g>
      <g transform="translate(-69 -274)">
        <circle id="Ellipse_62-97" data-name="Ellipse 62" class="cls-4" cx="6.5" cy="6.5" r="6.5" transform="translate(255 460)"/>
      </g>
      <g transform="translate(-38 -274)">
        <circle id="Ellipse_62-98" data-name="Ellipse 62" class="cls-4" cx="6.5" cy="6.5" r="6.5" transform="translate(255 460)"/>
      </g>
      <g transform="translate(-7 -274)">
        <circle id="Ellipse_62-99" data-name="Ellipse 62" class="cls-4" cx="6.5" cy="6.5" r="6.5" transform="translate(255 460)"/>
      </g>
      <g transform="translate(24 -274)">
        <circle id="Ellipse_62-100" data-name="Ellipse 62" class="cls-4" cx="6.5" cy="6.5" r="6.5" transform="translate(255 460)"/>
      </g>
      <g transform="translate(55 -274)">
        <circle id="Ellipse_62-101" data-name="Ellipse 62" class="cls-4" cx="6.5" cy="6.5" r="6.5" transform="translate(255 460)"/>
      </g>
      <g transform="translate(86 -274)">
        <circle id="Ellipse_62-102" data-name="Ellipse 62" class="cls-4" cx="6.5" cy="6.5" r="6.5" transform="translate(255 460)"/>
      </g>
      <g transform="translate(117 -274)">
        <circle id="Ellipse_62-103" data-name="Ellipse 62" class="cls-4" cx="6.5" cy="6.5" r="6.5" transform="translate(255 460)"/>
      </g>
      <g transform="translate(148 -274)">
        <circle id="Ellipse_62-104" data-name="Ellipse 62" class="cls-4" cx="6.5" cy="6.5" r="6.5" transform="translate(255 460)"/>
      </g>
      <g transform="translate(179 -274)">
        <circle id="Ellipse_62-105" data-name="Ellipse 62" class="cls-4" cx="6.5" cy="6.5" r="6.5" transform="translate(255 460)"/>
      </g>
      <g transform="translate(-255 -243)">
        <circle id="Ellipse_62-106" data-name="Ellipse 62" class="cls-4" cx="6.5" cy="6.5" r="6.5" transform="translate(255 460)"/>
      </g>
      <g transform="translate(-224 -243)">
        <circle id="Ellipse_62-107" data-name="Ellipse 62" class="cls-4" cx="6.5" cy="6.5" r="6.5" transform="translate(255 460)"/>
      </g>
      <g transform="translate(-193 -243)">
        <circle id="Ellipse_62-108" data-name="Ellipse 62" class="cls-4" cx="6.5" cy="6.5" r="6.5" transform="translate(255 460)"/>
      </g>
      <g transform="translate(-162 -243)">
        <circle id="Ellipse_62-109" data-name="Ellipse 62" class="cls-4" cx="6.5" cy="6.5" r="6.5" transform="translate(255 460)"/>
      </g>
      <g transform="translate(-131 -243)">
        <circle id="Ellipse_62-110" data-name="Ellipse 62" class="cls-4" cx="6.5" cy="6.5" r="6.5" transform="translate(255 460)"/>
      </g>
      <g transform="translate(-100 -243)">
        <circle id="Ellipse_62-111" data-name="Ellipse 62" class="cls-4" cx="6.5" cy="6.5" r="6.5" transform="translate(255 460)"/>
      </g>
      <g transform="translate(-69 -243)">
        <circle id="Ellipse_62-112" data-name="Ellipse 62" class="cls-4" cx="6.5" cy="6.5" r="6.5" transform="translate(255 460)"/>
      </g>
      <g transform="translate(-38 -243)">
        <circle id="Ellipse_62-113" data-name="Ellipse 62" class="cls-4" cx="6.5" cy="6.5" r="6.5" transform="translate(255 460)"/>
      </g>
      <g transform="translate(-7 -243)">
        <circle id="Ellipse_62-114" data-name="Ellipse 62" class="cls-4" cx="6.5" cy="6.5" r="6.5" transform="translate(255 460)"/>
      </g>
      <g transform="translate(24 -243)">
        <circle id="Ellipse_62-115" data-name="Ellipse 62" class="cls-4" cx="6.5" cy="6.5" r="6.5" transform="translate(255 460)"/>
      </g>
      <g transform="translate(55 -243)">
        <circle id="Ellipse_62-116" data-name="Ellipse 62" class="cls-4" cx="6.5" cy="6.5" r="6.5" transform="translate(255 460)"/>
      </g>
      <g transform="translate(86 -243)">
        <circle id="Ellipse_62-117" data-name="Ellipse 62" class="cls-4" cx="6.5" cy="6.5" r="6.5" transform="translate(255 460)"/>
      </g>
      <g transform="translate(117 -243)">
        <circle id="Ellipse_62-118" data-name="Ellipse 62" class="cls-4" cx="6.5" cy="6.5" r="6.5" transform="translate(255 460)"/>
      </g>
      <g transform="translate(148 -243)">
        <circle id="Ellipse_62-119" data-name="Ellipse 62" class="cls-4" cx="6.5" cy="6.5" r="6.5" transform="translate(255 460)"/>
      </g>
      <g transform="translate(179 -243)">
        <circle id="Ellipse_62-120" data-name="Ellipse 62" class="cls-4" cx="6.5" cy="6.5" r="6.5" transform="translate(255 460)"/>
      </g>
      <g transform="translate(-255 -212)">
        <circle id="Ellipse_62-121" data-name="Ellipse 62" class="cls-4" cx="6.5" cy="6.5" r="6.5" transform="translate(255 460)"/>
      </g>
      <g transform="translate(-224 -212)">
        <circle id="Ellipse_62-122" data-name="Ellipse 62" class="cls-4" cx="6.5" cy="6.5" r="6.5" transform="translate(255 460)"/>
      </g>
      <g transform="translate(-193 -212)">
        <circle id="Ellipse_62-123" data-name="Ellipse 62" class="cls-4" cx="6.5" cy="6.5" r="6.5" transform="translate(255 460)"/>
      </g>
      <g transform="translate(-162 -212)">
        <circle id="Ellipse_62-124" data-name="Ellipse 62" class="cls-4" cx="6.5" cy="6.5" r="6.5" transform="translate(255 460)"/>
      </g>
      <g transform="translate(-131 -212)">
        <circle id="Ellipse_62-125" data-name="Ellipse 62" class="cls-4" cx="6.5" cy="6.5" r="6.5" transform="translate(255 460)"/>
      </g>
      <g transform="translate(-100 -212)">
        <circle id="Ellipse_62-126" data-name="Ellipse 62" class="cls-4" cx="6.5" cy="6.5" r="6.5" transform="translate(255 460)"/>
      </g>
      <g transform="translate(-69 -212)">
        <circle id="Ellipse_62-127" data-name="Ellipse 62" class="cls-4" cx="6.5" cy="6.5" r="6.5" transform="translate(255 460)"/>
      </g>
      <g transform="translate(-38 -212)">
        <circle id="Ellipse_62-128" data-name="Ellipse 62" class="cls-4" cx="6.5" cy="6.5" r="6.5" transform="translate(255 460)"/>
      </g>
      <g transform="translate(-7 -212)">
        <circle id="Ellipse_62-129" data-name="Ellipse 62" class="cls-4" cx="6.5" cy="6.5" r="6.5" transform="translate(255 460)"/>
      </g>
      <g transform="translate(24 -212)">
        <circle id="Ellipse_62-130" data-name="Ellipse 62" class="cls-4" cx="6.5" cy="6.5" r="6.5" transform="translate(255 460)"/>
      </g>
      <g transform="translate(55 -212)">
        <circle id="Ellipse_62-131" data-name="Ellipse 62" class="cls-4" cx="6.5" cy="6.5" r="6.5" transform="translate(255 460)"/>
      </g>
      <g transform="translate(86 -212)">
        <circle id="Ellipse_62-132" data-name="Ellipse 62" class="cls-4" cx="6.5" cy="6.5" r="6.5" transform="translate(255 460)"/>
      </g>
      <g transform="translate(117 -212)">
        <circle id="Ellipse_62-133" data-name="Ellipse 62" class="cls-4" cx="6.5" cy="6.5" r="6.5" transform="translate(255 460)"/>
      </g>
      <g transform="translate(148 -212)">
        <circle id="Ellipse_62-134" data-name="Ellipse 62" class="cls-4" cx="6.5" cy="6.5" r="6.5" transform="translate(255 460)"/>
      </g>
      <g transform="translate(179 -212)">
        <circle id="Ellipse_62-135" data-name="Ellipse 62" class="cls-4" cx="6.5" cy="6.5" r="6.5" transform="translate(255 460)"/>
      </g>
      <g transform="translate(-255 -181)">
        <circle id="Ellipse_62-136" data-name="Ellipse 62" class="cls-4" cx="6.5" cy="6.5" r="6.5" transform="translate(255 460)"/>
      </g>
      <g transform="translate(-224 -181)">
        <circle id="Ellipse_62-137" data-name="Ellipse 62" class="cls-4" cx="6.5" cy="6.5" r="6.5" transform="translate(255 460)"/>
      </g>
      <g transform="translate(-193 -181)">
        <circle id="Ellipse_62-138" data-name="Ellipse 62" class="cls-4" cx="6.5" cy="6.5" r="6.5" transform="translate(255 460)"/>
      </g>
      <g transform="translate(-162 -181)">
        <circle id="Ellipse_62-139" data-name="Ellipse 62" class="cls-4" cx="6.5" cy="6.5" r="6.5" transform="translate(255 460)"/>
      </g>
      <g transform="translate(-131 -181)">
        <circle id="Ellipse_62-140" data-name="Ellipse 62" class="cls-4" cx="6.5" cy="6.5" r="6.5" transform="translate(255 460)"/>
      </g>
      <g transform="translate(-100 -181)">
        <circle id="Ellipse_62-141" data-name="Ellipse 62" class="cls-4" cx="6.5" cy="6.5" r="6.5" transform="translate(255 460)"/>
      </g>
      <g transform="translate(-69 -181)">
        <circle id="Ellipse_62-142" data-name="Ellipse 62" class="cls-4" cx="6.5" cy="6.5" r="6.5" transform="translate(255 460)"/>
      </g>
      <g transform="translate(-38 -181)">
        <circle id="Ellipse_62-143" data-name="Ellipse 62" class="cls-4" cx="6.5" cy="6.5" r="6.5" transform="translate(255 460)"/>
      </g>
      <g transform="translate(-7 -181)">
        <circle id="Ellipse_62-144" data-name="Ellipse 62" class="cls-4" cx="6.5" cy="6.5" r="6.5" transform="translate(255 460)"/>
      </g>
      <g transform="translate(24 -181)">
        <circle id="Ellipse_62-145" data-name="Ellipse 62" class="cls-4" cx="6.5" cy="6.5" r="6.5" transform="translate(255 460)"/>
      </g>
      <g transform="translate(55 -181)">
        <circle id="Ellipse_62-146" data-name="Ellipse 62" class="cls-4" cx="6.5" cy="6.5" r="6.5" transform="translate(255 460)"/>
      </g>
      <g transform="translate(86 -181)">
        <circle id="Ellipse_62-147" data-name="Ellipse 62" class="cls-4" cx="6.5" cy="6.5" r="6.5" transform="translate(255 460)"/>
      </g>
      <g transform="translate(117 -181)">
        <circle id="Ellipse_62-148" data-name="Ellipse 62" class="cls-4" cx="6.5" cy="6.5" r="6.5" transform="translate(255 460)"/>
      </g>
      <g transform="translate(148 -181)">
        <circle id="Ellipse_62-149" data-name="Ellipse 62" class="cls-4" cx="6.5" cy="6.5" r="6.5" transform="translate(255 460)"/>
      </g>
      <g transform="translate(179 -181)">
        <circle id="Ellipse_62-150" data-name="Ellipse 62" class="cls-4" cx="6.5" cy="6.5" r="6.5" transform="translate(255 460)"/>
      </g>
      <g transform="translate(-255 -150)">
        <circle id="Ellipse_62-151" data-name="Ellipse 62" class="cls-4" cx="6.5" cy="6.5" r="6.5" transform="translate(255 460)"/>
      </g>
      <g transform="translate(-224 -150)">
        <circle id="Ellipse_62-152" data-name="Ellipse 62" class="cls-4" cx="6.5" cy="6.5" r="6.5" transform="translate(255 460)"/>
      </g>
      <g transform="translate(-193 -150)">
        <circle id="Ellipse_62-153" data-name="Ellipse 62" class="cls-4" cx="6.5" cy="6.5" r="6.5" transform="translate(255 460)"/>
      </g>
      <g transform="translate(-162 -150)">
        <circle id="Ellipse_62-154" data-name="Ellipse 62" class="cls-4" cx="6.5" cy="6.5" r="6.5" transform="translate(255 460)"/>
      </g>
      <g transform="translate(-131 -150)">
        <circle id="Ellipse_62-155" data-name="Ellipse 62" class="cls-4" cx="6.5" cy="6.5" r="6.5" transform="translate(255 460)"/>
      </g>
      <g transform="translate(-100 -150)">
        <circle id="Ellipse_62-156" data-name="Ellipse 62" class="cls-4" cx="6.5" cy="6.5" r="6.5" transform="translate(255 460)"/>
      </g>
      <g transform="translate(-69 -150)">
        <circle id="Ellipse_62-157" data-name="Ellipse 62" class="cls-4" cx="6.5" cy="6.5" r="6.5" transform="translate(255 460)"/>
      </g>
      <g transform="translate(-38 -150)">
        <circle id="Ellipse_62-158" data-name="Ellipse 62" class="cls-4" cx="6.5" cy="6.5" r="6.5" transform="translate(255 460)"/>
      </g>
      <g transform="translate(-7 -150)">
        <circle id="Ellipse_62-159" data-name="Ellipse 62" class="cls-4" cx="6.5" cy="6.5" r="6.5" transform="translate(255 460)"/>
      </g>
      <g transform="translate(24 -150)">
        <circle id="Ellipse_62-160" data-name="Ellipse 62" class="cls-4" cx="6.5" cy="6.5" r="6.5" transform="translate(255 460)"/>
      </g>
      <g transform="translate(55 -150)">
        <circle id="Ellipse_62-161" data-name="Ellipse 62" class="cls-4" cx="6.5" cy="6.5" r="6.5" transform="translate(255 460)"/>
      </g>
      <g transform="translate(86 -150)">
        <circle id="Ellipse_62-162" data-name="Ellipse 62" class="cls-4" cx="6.5" cy="6.5" r="6.5" transform="translate(255 460)"/>
      </g>
      <g transform="translate(117 -150)">
        <circle id="Ellipse_62-163" data-name="Ellipse 62" class="cls-4" cx="6.5" cy="6.5" r="6.5" transform="translate(255 460)"/>
      </g>
      <g transform="translate(148 -150)">
        <circle id="Ellipse_62-164" data-name="Ellipse 62" class="cls-4" cx="6.5" cy="6.5" r="6.5" transform="translate(255 460)"/>
      </g>
      <g transform="translate(179 -150)">
        <circle id="Ellipse_62-165" data-name="Ellipse 62" class="cls-4" cx="6.5" cy="6.5" r="6.5" transform="translate(255 460)"/>
      </g>
      <g transform="translate(-255 -119)">
        <circle id="Ellipse_62-166" data-name="Ellipse 62" class="cls-4" cx="6.5" cy="6.5" r="6.5" transform="translate(255 460)"/>
      </g>
      <g transform="translate(-224 -119)">
        <circle id="Ellipse_62-167" data-name="Ellipse 62" class="cls-4" cx="6.5" cy="6.5" r="6.5" transform="translate(255 460)"/>
      </g>
      <g transform="translate(-193 -119)">
        <circle id="Ellipse_62-168" data-name="Ellipse 62" class="cls-4" cx="6.5" cy="6.5" r="6.5" transform="translate(255 460)"/>
      </g>
      <g transform="translate(-162 -119)">
        <circle id="Ellipse_62-169" data-name="Ellipse 62" class="cls-4" cx="6.5" cy="6.5" r="6.5" transform="translate(255 460)"/>
      </g>
      <g transform="translate(-131 -119)">
        <circle id="Ellipse_62-170" data-name="Ellipse 62" class="cls-4" cx="6.5" cy="6.5" r="6.5" transform="translate(255 460)"/>
      </g>
      <g transform="translate(-100 -119)">
        <circle id="Ellipse_62-171" data-name="Ellipse 62" class="cls-4" cx="6.5" cy="6.5" r="6.5" transform="translate(255 460)"/>
      </g>
      <g transform="translate(-69 -119)">
        <circle id="Ellipse_62-172" data-name="Ellipse 62" class="cls-4" cx="6.5" cy="6.5" r="6.5" transform="translate(255 460)"/>
      </g>
      <g transform="translate(-38 -119)">
        <circle id="Ellipse_62-173" data-name="Ellipse 62" class="cls-4" cx="6.5" cy="6.5" r="6.5" transform="translate(255 460)"/>
      </g>
      <g transform="translate(-7 -119)">
        <circle id="Ellipse_62-174" data-name="Ellipse 62" class="cls-4" cx="6.5" cy="6.5" r="6.5" transform="translate(255 460)"/>
      </g>
      <g transform="translate(24 -119)">
        <circle id="Ellipse_62-175" data-name="Ellipse 62" class="cls-4" cx="6.5" cy="6.5" r="6.5" transform="translate(255 460)"/>
      </g>
      <g transform="translate(55 -119)">
        <circle id="Ellipse_62-176" data-name="Ellipse 62" class="cls-4" cx="6.5" cy="6.5" r="6.5" transform="translate(255 460)"/>
      </g>
      <g transform="translate(86 -119)">
        <circle id="Ellipse_62-177" data-name="Ellipse 62" class="cls-4" cx="6.5" cy="6.5" r="6.5" transform="translate(255 460)"/>
      </g>
      <g transform="translate(117 -119)">
        <circle id="Ellipse_62-178" data-name="Ellipse 62" class="cls-4" cx="6.5" cy="6.5" r="6.5" transform="translate(255 460)"/>
      </g>
      <g transform="translate(148 -119)">
        <circle id="Ellipse_62-179" data-name="Ellipse 62" class="cls-4" cx="6.5" cy="6.5" r="6.5" transform="translate(255 460)"/>
      </g>
      <g transform="translate(179 -119)">
        <circle id="Ellipse_62-180" data-name="Ellipse 62" class="cls-4" cx="6.5" cy="6.5" r="6.5" transform="translate(255 460)"/>
      </g>
      <g transform="translate(-255 -88)">
        <circle id="Ellipse_62-181" data-name="Ellipse 62" class="cls-4" cx="6.5" cy="6.5" r="6.5" transform="translate(255 460)"/>
      </g>
      <g transform="translate(-224 -88)">
        <circle id="Ellipse_62-182" data-name="Ellipse 62" class="cls-4" cx="6.5" cy="6.5" r="6.5" transform="translate(255 460)"/>
      </g>
      <g transform="translate(-193 -88)">
        <circle id="Ellipse_62-183" data-name="Ellipse 62" class="cls-4" cx="6.5" cy="6.5" r="6.5" transform="translate(255 460)"/>
      </g>
      <g transform="translate(-162 -88)">
        <circle id="Ellipse_62-184" data-name="Ellipse 62" class="cls-4" cx="6.5" cy="6.5" r="6.5" transform="translate(255 460)"/>
      </g>
      <g transform="translate(-131 -88)">
        <circle id="Ellipse_62-185" data-name="Ellipse 62" class="cls-4" cx="6.5" cy="6.5" r="6.5" transform="translate(255 460)"/>
      </g>
      <g transform="translate(-100 -88)">
        <circle id="Ellipse_62-186" data-name="Ellipse 62" class="cls-4" cx="6.5" cy="6.5" r="6.5" transform="translate(255 460)"/>
      </g>
      <g transform="translate(-69 -88)">
        <circle id="Ellipse_62-187" data-name="Ellipse 62" class="cls-4" cx="6.5" cy="6.5" r="6.5" transform="translate(255 460)"/>
      </g>
      <g transform="translate(-38 -88)">
        <circle id="Ellipse_62-188" data-name="Ellipse 62" class="cls-4" cx="6.5" cy="6.5" r="6.5" transform="translate(255 460)"/>
      </g>
      <g transform="translate(-7 -88)">
        <circle id="Ellipse_62-189" data-name="Ellipse 62" class="cls-4" cx="6.5" cy="6.5" r="6.5" transform="translate(255 460)"/>
      </g>
      <g transform="translate(24 -88)">
        <circle id="Ellipse_62-190" data-name="Ellipse 62" class="cls-4" cx="6.5" cy="6.5" r="6.5" transform="translate(255 460)"/>
      </g>
      <g transform="translate(55 -88)">
        <circle id="Ellipse_62-191" data-name="Ellipse 62" class="cls-4" cx="6.5" cy="6.5" r="6.5" transform="translate(255 460)"/>
      </g>
      <g transform="translate(86 -88)">
        <circle id="Ellipse_62-192" data-name="Ellipse 62" class="cls-4" cx="6.5" cy="6.5" r="6.5" transform="translate(255 460)"/>
      </g>
      <g transform="translate(117 -88)">
        <circle id="Ellipse_62-193" data-name="Ellipse 62" class="cls-4" cx="6.5" cy="6.5" r="6.5" transform="translate(255 460)"/>
      </g>
      <g transform="translate(148 -88)">
        <circle id="Ellipse_62-194" data-name="Ellipse 62" class="cls-4" cx="6.5" cy="6.5" r="6.5" transform="translate(255 460)"/>
      </g>
      <g transform="translate(179 -88)">
        <circle id="Ellipse_62-195" data-name="Ellipse 62" class="cls-4" cx="6.5" cy="6.5" r="6.5" transform="translate(255 460)"/>
      </g>
      <g transform="translate(-255 -57)">
        <circle id="Ellipse_62-196" data-name="Ellipse 62" class="cls-4" cx="6.5" cy="6.5" r="6.5" transform="translate(255 460)"/>
      </g>
      <g transform="translate(-224 -57)">
        <circle id="Ellipse_62-197" data-name="Ellipse 62" class="cls-4" cx="6.5" cy="6.5" r="6.5" transform="translate(255 460)"/>
      </g>
      <g transform="translate(-193 -57)">
        <circle id="Ellipse_62-198" data-name="Ellipse 62" class="cls-4" cx="6.5" cy="6.5" r="6.5" transform="translate(255 460)"/>
      </g>
      <g transform="translate(-162 -57)">
        <circle id="Ellipse_62-199" data-name="Ellipse 62" class="cls-4" cx="6.5" cy="6.5" r="6.5" transform="translate(255 460)"/>
      </g>
      <g transform="translate(-131 -57)">
        <circle id="Ellipse_62-200" data-name="Ellipse 62" class="cls-4" cx="6.5" cy="6.5" r="6.5" transform="translate(255 460)"/>
      </g>
      <g transform="translate(-100 -57)">
        <circle id="Ellipse_62-201" data-name="Ellipse 62" class="cls-4" cx="6.5" cy="6.5" r="6.5" transform="translate(255 460)"/>
      </g>
      <g transform="translate(-69 -57)">
        <circle id="Ellipse_62-202" data-name="Ellipse 62" class="cls-4" cx="6.5" cy="6.5" r="6.5" transform="translate(255 460)"/>
      </g>
      <g transform="translate(-38 -57)">
        <circle id="Ellipse_62-203" data-name="Ellipse 62" class="cls-4" cx="6.5" cy="6.5" r="6.5" transform="translate(255 460)"/>
      </g>
      <g transform="translate(-7 -57)">
        <circle id="Ellipse_62-204" data-name="Ellipse 62" class="cls-4" cx="6.5" cy="6.5" r="6.5" transform="translate(255 460)"/>
      </g>
      <g transform="translate(24 -57)">
        <circle id="Ellipse_62-205" data-name="Ellipse 62" class="cls-4" cx="6.5" cy="6.5" r="6.5" transform="translate(255 460)"/>
      </g>
      <g transform="translate(55 -57)">
        <circle id="Ellipse_62-206" data-name="Ellipse 62" class="cls-4" cx="6.5" cy="6.5" r="6.5" transform="translate(255 460)"/>
      </g>
      <g transform="translate(86 -57)">
        <circle id="Ellipse_62-207" data-name="Ellipse 62" class="cls-4" cx="6.5" cy="6.5" r="6.5" transform="translate(255 460)"/>
      </g>
      <g transform="translate(117 -57)">
        <circle id="Ellipse_62-208" data-name="Ellipse 62" class="cls-4" cx="6.5" cy="6.5" r="6.5" transform="translate(255 460)"/>
      </g>
      <g transform="translate(148 -57)">
        <circle id="Ellipse_62-209" data-name="Ellipse 62" class="cls-4" cx="6.5" cy="6.5" r="6.5" transform="translate(255 460)"/>
      </g>
      <g transform="translate(179 -57)">
        <circle id="Ellipse_62-210" data-name="Ellipse 62" class="cls-4" cx="6.5" cy="6.5" r="6.5" transform="translate(255 460)"/>
      </g>
    </g>
  </g>
</svg>
