<svg xmlns="http://www.w3.org/2000/svg" xmlns:xlink="http://www.w3.org/1999/xlink" viewBox="0 0 1920 1080"><defs><style>.a{clip-path:url(#n);}.b{fill:rgba(255,255,255,0);}.c{fill:url(#a);}.d{opacity:0.4;fill:url(#b);}.e{fill:url(#e);}.f,.i{fill:url(#h);}.g,.h{opacity:0.32;}.g{fill:url(#i);}.h{fill:url(#j);}.i{opacity:0.09;}.j{filter:url(#c);}</style><linearGradient id="a" x1="-0.295" y1="0.238" x2="0.985" y2="0.698" gradientUnits="objectBoundingBox"><stop offset="0" stop-color="#eb51b8"/><stop offset="1" stop-color="#ffbb54"/></linearGradient><linearGradient id="b" x1="0.5" y1="0" x2="0.5" y2="1" xlink:href="#a"/><filter id="c" x="1388.5" y="-7.5" width="817" height="817" filterUnits="userSpaceOnUse"><feOffset dy="33" input="SourceAlpha"/><feGaussianBlur stdDeviation="21.5" result="d"/><feFlood flood-opacity="0.161"/><feComposite operator="in" in2="d"/><feComposite in="SourceGraphic"/></filter><linearGradient id="e" x1="0.913" y1="0.228" x2="0.163" y2="0.957" xlink:href="#a"/><linearGradient id="h" x1="0.707" y1="0.214" x2="0.271" y2="0.947" gradientUnits="objectBoundingBox"><stop offset="0" stop-color="#fff"/><stop offset="1" stop-color="#f9e8e7"/></linearGradient><linearGradient id="i" x1="0.054" y1="0.468" x2="0.967" y2="0.638" xlink:href="#a"/><linearGradient id="j" x1="1.005" y1="0.566" x2="0.005" y2="0.543" xlink:href="#a"/><clipPath id="n"><rect width="1920" height="1080"/></clipPath></defs><g id="m" class="a"><rect class="b" width="1920" height="1080"/><rect class="b" width="1920" height="1080"/><path class="c" d="M1949,0V882s560.422,90,964.477,90,967.49-80,967.49-90,16.074-878,0-882S1949,0,1949,0Z" transform="translate(-1958)"/><g class="j" transform="matrix(1, 0, 0, 1, 0, 0)"><circle class="d" cx="344" cy="344" r="344" transform="translate(1453 24)"/></g><circle class="e" cx="92" cy="92" r="92" transform="translate(1239 576)"/><circle class="e" cx="46" cy="46" r="46" transform="translate(1797.122 526.738) rotate(149)"/><circle class="e" cx="53" cy="53" r="53" transform="translate(1568.727 539.133) rotate(149)"/><ellipse class="f" cx="133" cy="131" rx="133" ry="131" transform="translate(-119.168 6.693) rotate(-13)"/><path class="g" d="M83.382-7.114,868.293,1.9l-48.3,131.49L0,119.789Z" transform="matrix(0.966, -0.259, 0.259, 0.966, 510.273, 365.625)"/><path class="h" d="M61.3-7.114,638.352-.484,602.84,96.184,0,86.182Z" transform="matrix(0.966, -0.259, 0.259, 0.966, 158.141, 533.839)"/><ellipse class="i" cx="63" cy="62" rx="63" ry="62" transform="translate(317.56 405.178) rotate(-13)"/><ellipse class="f" cx="25" cy="24" rx="25" ry="24" transform="translate(930.134 873.657) rotate(-13)"/></g></svg>