<svg xmlns="http://www.w3.org/2000/svg" xmlns:xlink="http://www.w3.org/1999/xlink" viewBox="0 0 360 640"><defs><style>.a{clip-path:url(#i);}.b{fill:url(#a);}.c{opacity:0.32;fill:url(#b);}.d{opacity:0.33;fill:url(#d);}.e{fill:url(#g);}.f{filter:url(#e);}</style><linearGradient id="a" x1="1" y1="0.255" x2="-0.023" y2="0.554" gradientUnits="objectBoundingBox"><stop offset="0" stop-color="#eb51b8"/><stop offset="1" stop-color="#ffbb54"/></linearGradient><linearGradient id="b" x1="1.005" y1="0.566" x2="0.005" y2="0.543" xlink:href="#a"/><linearGradient id="d" x1="0.5" y1="0" x2="0.5" y2="1" xlink:href="#a"/><filter id="e" x="-166.763" y="194.183" width="385.34" height="385.34" filterUnits="userSpaceOnUse"><feOffset dy="33" input="SourceAlpha"/><feGaussianBlur stdDeviation="21.5" result="f"/><feFlood flood-opacity="0.161"/><feComposite operator="in" in2="f"/><feComposite in="SourceGraphic"/></filter><linearGradient id="g" x1="0.707" y1="0.214" x2="0.271" y2="0.947" gradientUnits="objectBoundingBox"><stop offset="0" stop-color="#fff"/><stop offset="1" stop-color="#f9e8e7"/></linearGradient><clipPath id="i"><rect width="360" height="640"/></clipPath></defs><g id="h" class="a"><path class="b" d="M-60,9916.546V10550l263-54.085,54-71.392,41.691-15.144s2.946-488.106,0-492.834S-60,9916.546-60,9916.546Z" transform="translate(60 -9918)"/><g transform="translate(42.737 73.977)"><path class="c" d="M24.509,0,255.222,2.651,241.024,41.3,0,37.3Z" transform="matrix(0.966, -0.259, 0.259, 0.966, -97.386, 265.478)"/><path class="c" d="M31.067,0,323.515,3.36l-18,48.991L0,47.282Z" transform="matrix(0.966, -0.259, 0.259, 0.966, 93.989, 187.754)"/><g class="f" transform="matrix(1, 0, 0, 1, -42.74, -73.98)"><circle class="d" cx="128.17" cy="128.17" r="128.17" transform="translate(-102.26 225.68)"/></g></g><ellipse class="e" cx="133" cy="131" rx="133" ry="131" transform="translate(228.832 -117.307) rotate(-13)"/></g></svg>