<svg xmlns="http://www.w3.org/2000/svg" xmlns:xlink="http://www.w3.org/1999/xlink" viewBox="0 0 1920 887"><defs><style>.a,.f{fill:none;}.b{clip-path:url(#c);}.c{fill:#cdc4ff;}.d{clip-path:url(#a);}.e{fill:#363636;opacity:0.13;}.f{opacity:0.62;}</style><clipPath id="a"><rect class="a" width="1026" height="315"/></clipPath><clipPath id="c"><rect width="1920" height="887"/></clipPath></defs><g id="b" class="b"><circle class="c" cx="140.5" cy="140.5" r="140.5" transform="translate(258 132)"/><g class="d" transform="translate(-235 286)"><g transform="translate(-818 -409)"><circle class="e" cx="2.5" cy="2.5" r="2.5" transform="translate(818 409)"/></g><g transform="translate(-788 -409)"><circle class="e" cx="2.5" cy="2.5" r="2.5" transform="translate(818 409)"/></g><g transform="translate(-758 -409)"><circle class="e" cx="2.5" cy="2.5" r="2.5" transform="translate(818 409)"/></g><g transform="translate(-728 -409)"><circle class="e" cx="2.5" cy="2.5" r="2.5" transform="translate(818 409)"/></g><g transform="translate(-698 -409)"><circle class="e" cx="2.5" cy="2.5" r="2.5" transform="translate(818 409)"/></g><g transform="translate(-668 -409)"><circle class="e" cx="2.5" cy="2.5" r="2.5" transform="translate(818 409)"/></g><g transform="translate(-638 -409)"><circle class="e" cx="2.5" cy="2.5" r="2.5" transform="translate(818 409)"/></g><g transform="translate(-608 -409)"><circle class="e" cx="2.5" cy="2.5" r="2.5" transform="translate(818 409)"/></g><g transform="translate(-578 -409)"><circle class="e" cx="2.5" cy="2.5" r="2.5" transform="translate(818 409)"/></g><g transform="translate(-548 -409)"><circle class="e" cx="2.5" cy="2.5" r="2.5" transform="translate(818 409)"/></g><g transform="translate(-518 -409)"><circle class="e" cx="2.5" cy="2.5" r="2.5" transform="translate(818 409)"/></g><g transform="translate(-488 -409)"><circle class="e" cx="2.5" cy="2.5" r="2.5" transform="translate(818 409)"/></g><g transform="translate(-458 -409)"><circle class="e" cx="2.5" cy="2.5" r="2.5" transform="translate(818 409)"/></g><g transform="translate(-428 -409)"><circle class="e" cx="2.5" cy="2.5" r="2.5" transform="translate(818 409)"/></g><g transform="translate(-398 -409)"><circle class="e" cx="2.5" cy="2.5" r="2.5" transform="translate(818 409)"/></g><g transform="translate(-368 -409)"><circle class="e" cx="2.5" cy="2.5" r="2.5" transform="translate(818 409)"/></g><g transform="translate(-338 -409)"><circle class="e" cx="2.5" cy="2.5" r="2.5" transform="translate(818 409)"/></g><g transform="translate(-308 -409)"><circle class="e" cx="2.5" cy="2.5" r="2.5" transform="translate(818 409)"/></g><g transform="translate(-278 -409)"><circle class="e" cx="2.5" cy="2.5" r="2.5" transform="translate(818 409)"/></g><g transform="translate(-248 -409)"><circle class="e" cx="2.5" cy="2.5" r="2.5" transform="translate(818 409)"/></g><g transform="translate(-218 -409)"><circle class="e" cx="2.5" cy="2.5" r="2.5" transform="translate(818 409)"/></g><g transform="translate(-188 -409)"><circle class="e" cx="2.5" cy="2.5" r="2.5" transform="translate(818 409)"/></g><g transform="translate(-158 -409)"><circle class="e" cx="2.5" cy="2.5" r="2.5" transform="translate(818 409)"/></g><g transform="translate(-128 -409)"><circle class="e" cx="2.5" cy="2.5" r="2.5" transform="translate(818 409)"/></g><g transform="translate(-98 -409)"><circle class="e" cx="2.5" cy="2.5" r="2.5" transform="translate(818 409)"/></g><g transform="translate(-68 -409)"><circle class="e" cx="2.5" cy="2.5" r="2.5" transform="translate(818 409)"/></g><g transform="translate(-38 -409)"><circle class="e" cx="2.5" cy="2.5" r="2.5" transform="translate(818 409)"/></g><g transform="translate(-8 -409)"><circle class="e" cx="2.5" cy="2.5" r="2.5" transform="translate(818 409)"/></g><g transform="translate(22 -409)"><circle class="e" cx="2.5" cy="2.5" r="2.5" transform="translate(818 409)"/></g><g transform="translate(52 -409)"><circle class="e" cx="2.5" cy="2.5" r="2.5" transform="translate(818 409)"/></g><g transform="translate(82 -409)"><circle class="e" cx="2.5" cy="2.5" r="2.5" transform="translate(818 409)"/></g><g transform="translate(112 -409)"><circle class="e" cx="2.5" cy="2.5" r="2.5" transform="translate(818 409)"/></g><g transform="translate(142 -409)"><circle class="e" cx="2.5" cy="2.5" r="2.5" transform="translate(818 409)"/></g><g transform="translate(172 -409)"><circle class="e" cx="2.5" cy="2.5" r="2.5" transform="translate(818 409)"/></g><g transform="translate(202 -409)"><circle class="e" cx="2.5" cy="2.5" r="2.5" transform="translate(818 409)"/></g><g transform="translate(-818 -379)"><circle class="e" cx="2.5" cy="2.5" r="2.5" transform="translate(818 409)"/></g><g transform="translate(-788 -379)"><circle class="e" cx="2.5" cy="2.5" r="2.5" transform="translate(818 409)"/></g><g transform="translate(-758 -379)"><circle class="e" cx="2.5" cy="2.5" r="2.5" transform="translate(818 409)"/></g><g transform="translate(-728 -379)"><circle class="e" cx="2.5" cy="2.5" r="2.5" transform="translate(818 409)"/></g><g transform="translate(-698 -379)"><circle class="e" cx="2.5" cy="2.5" r="2.5" transform="translate(818 409)"/></g><g transform="translate(-668 -379)"><circle class="e" cx="2.5" cy="2.5" r="2.5" transform="translate(818 409)"/></g><g transform="translate(-638 -379)"><circle class="e" cx="2.5" cy="2.5" r="2.5" transform="translate(818 409)"/></g><g transform="translate(-608 -379)"><circle class="e" cx="2.5" cy="2.5" r="2.5" transform="translate(818 409)"/></g><g transform="translate(-578 -379)"><circle class="e" cx="2.5" cy="2.5" r="2.5" transform="translate(818 409)"/></g><g transform="translate(-548 -379)"><circle class="e" cx="2.5" cy="2.5" r="2.5" transform="translate(818 409)"/></g><g transform="translate(-518 -379)"><circle class="e" cx="2.5" cy="2.5" r="2.5" transform="translate(818 409)"/></g><g transform="translate(-488 -379)"><circle class="e" cx="2.5" cy="2.5" r="2.5" transform="translate(818 409)"/></g><g transform="translate(-458 -379)"><circle class="e" cx="2.5" cy="2.5" r="2.5" transform="translate(818 409)"/></g><g transform="translate(-428 -379)"><circle class="e" cx="2.5" cy="2.5" r="2.5" transform="translate(818 409)"/></g><g transform="translate(-398 -379)"><circle class="e" cx="2.5" cy="2.5" r="2.5" transform="translate(818 409)"/></g><g transform="translate(-368 -379)"><circle class="e" cx="2.5" cy="2.5" r="2.5" transform="translate(818 409)"/></g><g transform="translate(-338 -379)"><circle class="e" cx="2.5" cy="2.5" r="2.5" transform="translate(818 409)"/></g><g transform="translate(-308 -379)"><circle class="e" cx="2.5" cy="2.5" r="2.5" transform="translate(818 409)"/></g><g transform="translate(-278 -379)"><circle class="e" cx="2.5" cy="2.5" r="2.5" transform="translate(818 409)"/></g><g transform="translate(-248 -379)"><circle class="e" cx="2.5" cy="2.5" r="2.5" transform="translate(818 409)"/></g><g transform="translate(-218 -379)"><circle class="e" cx="2.5" cy="2.5" r="2.5" transform="translate(818 409)"/></g><g transform="translate(-188 -379)"><circle class="e" cx="2.5" cy="2.5" r="2.5" transform="translate(818 409)"/></g><g transform="translate(-158 -379)"><circle class="e" cx="2.5" cy="2.5" r="2.5" transform="translate(818 409)"/></g><g transform="translate(-128 -379)"><circle class="e" cx="2.5" cy="2.5" r="2.5" transform="translate(818 409)"/></g><g transform="translate(-98 -379)"><circle class="e" cx="2.5" cy="2.5" r="2.5" transform="translate(818 409)"/></g><g transform="translate(-68 -379)"><circle class="e" cx="2.5" cy="2.5" r="2.5" transform="translate(818 409)"/></g><g transform="translate(-38 -379)"><circle class="e" cx="2.5" cy="2.5" r="2.5" transform="translate(818 409)"/></g><g transform="translate(-8 -379)"><circle class="e" cx="2.5" cy="2.5" r="2.5" transform="translate(818 409)"/></g><g transform="translate(22 -379)"><circle class="e" cx="2.5" cy="2.5" r="2.5" transform="translate(818 409)"/></g><g transform="translate(52 -379)"><circle class="e" cx="2.5" cy="2.5" r="2.5" transform="translate(818 409)"/></g><g transform="translate(82 -379)"><circle class="e" cx="2.5" cy="2.5" r="2.5" transform="translate(818 409)"/></g><g transform="translate(112 -379)"><circle class="e" cx="2.5" cy="2.5" r="2.5" transform="translate(818 409)"/></g><g transform="translate(142 -379)"><circle class="e" cx="2.5" cy="2.5" r="2.5" transform="translate(818 409)"/></g><g transform="translate(172 -379)"><circle class="e" cx="2.5" cy="2.5" r="2.5" transform="translate(818 409)"/></g><g transform="translate(202 -379)"><circle class="e" cx="2.5" cy="2.5" r="2.5" transform="translate(818 409)"/></g><g transform="translate(-818 -349)"><circle class="e" cx="2.5" cy="2.5" r="2.5" transform="translate(818 409)"/></g><g transform="translate(-788 -349)"><circle class="e" cx="2.5" cy="2.5" r="2.5" transform="translate(818 409)"/></g><g transform="translate(-758 -349)"><circle class="e" cx="2.5" cy="2.5" r="2.5" transform="translate(818 409)"/></g><g transform="translate(-728 -349)"><circle class="e" cx="2.5" cy="2.5" r="2.5" transform="translate(818 409)"/></g><g transform="translate(-698 -349)"><circle class="e" cx="2.5" cy="2.5" r="2.5" transform="translate(818 409)"/></g><g transform="translate(-668 -349)"><circle class="e" cx="2.5" cy="2.5" r="2.5" transform="translate(818 409)"/></g><g transform="translate(-638 -349)"><circle class="e" cx="2.5" cy="2.5" r="2.5" transform="translate(818 409)"/></g><g transform="translate(-608 -349)"><circle class="e" cx="2.5" cy="2.5" r="2.5" transform="translate(818 409)"/></g><g transform="translate(-578 -349)"><circle class="e" cx="2.5" cy="2.5" r="2.5" transform="translate(818 409)"/></g><g transform="translate(-548 -349)"><circle class="e" cx="2.5" cy="2.5" r="2.5" transform="translate(818 409)"/></g><g transform="translate(-518 -349)"><circle class="e" cx="2.5" cy="2.5" r="2.5" transform="translate(818 409)"/></g><g transform="translate(-488 -349)"><circle class="e" cx="2.5" cy="2.5" r="2.5" transform="translate(818 409)"/></g><g transform="translate(-458 -349)"><circle class="e" cx="2.5" cy="2.5" r="2.5" transform="translate(818 409)"/></g><g transform="translate(-428 -349)"><circle class="e" cx="2.5" cy="2.5" r="2.5" transform="translate(818 409)"/></g><g transform="translate(-398 -349)"><circle class="e" cx="2.5" cy="2.5" r="2.5" transform="translate(818 409)"/></g><g transform="translate(-368 -349)"><circle class="e" cx="2.5" cy="2.5" r="2.5" transform="translate(818 409)"/></g><g transform="translate(-338 -349)"><circle class="e" cx="2.5" cy="2.5" r="2.5" transform="translate(818 409)"/></g><g transform="translate(-308 -349)"><circle class="e" cx="2.5" cy="2.5" r="2.5" transform="translate(818 409)"/></g><g transform="translate(-278 -349)"><circle class="e" cx="2.5" cy="2.5" r="2.5" transform="translate(818 409)"/></g><g transform="translate(-248 -349)"><circle class="e" cx="2.5" cy="2.5" r="2.5" transform="translate(818 409)"/></g><g transform="translate(-218 -349)"><circle class="e" cx="2.5" cy="2.5" r="2.5" transform="translate(818 409)"/></g><g transform="translate(-188 -349)"><circle class="e" cx="2.5" cy="2.5" r="2.5" transform="translate(818 409)"/></g><g transform="translate(-158 -349)"><circle class="e" cx="2.5" cy="2.5" r="2.5" transform="translate(818 409)"/></g><g transform="translate(-128 -349)"><circle class="e" cx="2.5" cy="2.5" r="2.5" transform="translate(818 409)"/></g><g transform="translate(-98 -349)"><circle class="e" cx="2.5" cy="2.5" r="2.5" transform="translate(818 409)"/></g><g transform="translate(-68 -349)"><circle class="e" cx="2.5" cy="2.5" r="2.5" transform="translate(818 409)"/></g><g transform="translate(-38 -349)"><circle class="e" cx="2.5" cy="2.5" r="2.5" transform="translate(818 409)"/></g><g transform="translate(-8 -349)"><circle class="e" cx="2.5" cy="2.5" r="2.5" transform="translate(818 409)"/></g><g transform="translate(22 -349)"><circle class="e" cx="2.5" cy="2.5" r="2.5" transform="translate(818 409)"/></g><g transform="translate(52 -349)"><circle class="e" cx="2.5" cy="2.5" r="2.5" transform="translate(818 409)"/></g><g transform="translate(82 -349)"><circle class="e" cx="2.5" cy="2.5" r="2.5" transform="translate(818 409)"/></g><g transform="translate(112 -349)"><circle class="e" cx="2.5" cy="2.5" r="2.5" transform="translate(818 409)"/></g><g transform="translate(142 -349)"><circle class="e" cx="2.5" cy="2.5" r="2.5" transform="translate(818 409)"/></g><g transform="translate(172 -349)"><circle class="e" cx="2.5" cy="2.5" r="2.5" transform="translate(818 409)"/></g><g transform="translate(202 -349)"><circle class="e" cx="2.5" cy="2.5" r="2.5" transform="translate(818 409)"/></g><g transform="translate(-818 -319)"><circle class="e" cx="2.5" cy="2.5" r="2.5" transform="translate(818 409)"/></g><g transform="translate(-788 -319)"><circle class="e" cx="2.5" cy="2.5" r="2.5" transform="translate(818 409)"/></g><g transform="translate(-758 -319)"><circle class="e" cx="2.5" cy="2.5" r="2.5" transform="translate(818 409)"/></g><g transform="translate(-728 -319)"><circle class="e" cx="2.5" cy="2.5" r="2.5" transform="translate(818 409)"/></g><g transform="translate(-698 -319)"><circle class="e" cx="2.5" cy="2.5" r="2.5" transform="translate(818 409)"/></g><g transform="translate(-668 -319)"><circle class="e" cx="2.5" cy="2.5" r="2.5" transform="translate(818 409)"/></g><g transform="translate(-638 -319)"><circle class="e" cx="2.5" cy="2.5" r="2.5" transform="translate(818 409)"/></g><g transform="translate(-608 -319)"><circle class="e" cx="2.5" cy="2.5" r="2.5" transform="translate(818 409)"/></g><g transform="translate(-578 -319)"><circle class="e" cx="2.5" cy="2.5" r="2.5" transform="translate(818 409)"/></g><g transform="translate(-548 -319)"><circle class="e" cx="2.5" cy="2.5" r="2.5" transform="translate(818 409)"/></g><g transform="translate(-518 -319)"><circle class="e" cx="2.5" cy="2.5" r="2.5" transform="translate(818 409)"/></g><g transform="translate(-488 -319)"><circle class="e" cx="2.5" cy="2.5" r="2.5" transform="translate(818 409)"/></g><g transform="translate(-458 -319)"><circle class="e" cx="2.5" cy="2.5" r="2.5" transform="translate(818 409)"/></g><g transform="translate(-428 -319)"><circle class="e" cx="2.5" cy="2.5" r="2.5" transform="translate(818 409)"/></g><g transform="translate(-398 -319)"><circle class="e" cx="2.5" cy="2.5" r="2.5" transform="translate(818 409)"/></g><g transform="translate(-368 -319)"><circle class="e" cx="2.5" cy="2.5" r="2.5" transform="translate(818 409)"/></g><g transform="translate(-338 -319)"><circle class="e" cx="2.5" cy="2.5" r="2.5" transform="translate(818 409)"/></g><g transform="translate(-308 -319)"><circle class="e" cx="2.5" cy="2.5" r="2.5" transform="translate(818 409)"/></g><g transform="translate(-278 -319)"><circle class="e" cx="2.5" cy="2.5" r="2.5" transform="translate(818 409)"/></g><g transform="translate(-248 -319)"><circle class="e" cx="2.5" cy="2.5" r="2.5" transform="translate(818 409)"/></g><g transform="translate(-218 -319)"><circle class="e" cx="2.5" cy="2.5" r="2.5" transform="translate(818 409)"/></g><g transform="translate(-188 -319)"><circle class="e" cx="2.5" cy="2.5" r="2.5" transform="translate(818 409)"/></g><g transform="translate(-158 -319)"><circle class="e" cx="2.5" cy="2.5" r="2.5" transform="translate(818 409)"/></g><g transform="translate(-128 -319)"><circle class="e" cx="2.5" cy="2.5" r="2.5" transform="translate(818 409)"/></g><g transform="translate(-98 -319)"><circle class="e" cx="2.5" cy="2.5" r="2.5" transform="translate(818 409)"/></g><g transform="translate(-68 -319)"><circle class="e" cx="2.5" cy="2.5" r="2.5" transform="translate(818 409)"/></g><g transform="translate(-38 -319)"><circle class="e" cx="2.5" cy="2.5" r="2.5" transform="translate(818 409)"/></g><g transform="translate(-8 -319)"><circle class="e" cx="2.5" cy="2.5" r="2.5" transform="translate(818 409)"/></g><g transform="translate(22 -319)"><circle class="e" cx="2.5" cy="2.5" r="2.5" transform="translate(818 409)"/></g><g transform="translate(52 -319)"><circle class="e" cx="2.5" cy="2.5" r="2.5" transform="translate(818 409)"/></g><g transform="translate(82 -319)"><circle class="e" cx="2.5" cy="2.5" r="2.5" transform="translate(818 409)"/></g><g transform="translate(112 -319)"><circle class="e" cx="2.5" cy="2.5" r="2.5" transform="translate(818 409)"/></g><g transform="translate(142 -319)"><circle class="e" cx="2.5" cy="2.5" r="2.5" transform="translate(818 409)"/></g><g transform="translate(172 -319)"><circle class="e" cx="2.5" cy="2.5" r="2.5" transform="translate(818 409)"/></g><g transform="translate(202 -319)"><circle class="e" cx="2.5" cy="2.5" r="2.5" transform="translate(818 409)"/></g><g transform="translate(-818 -289)"><circle class="e" cx="2.5" cy="2.5" r="2.5" transform="translate(818 409)"/></g><g transform="translate(-788 -289)"><circle class="e" cx="2.5" cy="2.5" r="2.5" transform="translate(818 409)"/></g><g transform="translate(-758 -289)"><circle class="e" cx="2.5" cy="2.5" r="2.5" transform="translate(818 409)"/></g><g transform="translate(-728 -289)"><circle class="e" cx="2.5" cy="2.5" r="2.5" transform="translate(818 409)"/></g><g transform="translate(-698 -289)"><circle class="e" cx="2.5" cy="2.5" r="2.5" transform="translate(818 409)"/></g><g transform="translate(-668 -289)"><circle class="e" cx="2.5" cy="2.5" r="2.5" transform="translate(818 409)"/></g><g transform="translate(-638 -289)"><circle class="e" cx="2.5" cy="2.5" r="2.5" transform="translate(818 409)"/></g><g transform="translate(-608 -289)"><circle class="e" cx="2.5" cy="2.5" r="2.5" transform="translate(818 409)"/></g><g transform="translate(-578 -289)"><circle class="e" cx="2.5" cy="2.5" r="2.5" transform="translate(818 409)"/></g><g transform="translate(-548 -289)"><circle class="e" cx="2.5" cy="2.5" r="2.5" transform="translate(818 409)"/></g><g transform="translate(-518 -289)"><circle class="e" cx="2.5" cy="2.5" r="2.5" transform="translate(818 409)"/></g><g transform="translate(-488 -289)"><circle class="e" cx="2.5" cy="2.5" r="2.5" transform="translate(818 409)"/></g><g transform="translate(-458 -289)"><circle class="e" cx="2.5" cy="2.5" r="2.5" transform="translate(818 409)"/></g><g transform="translate(-428 -289)"><circle class="e" cx="2.5" cy="2.5" r="2.5" transform="translate(818 409)"/></g><g transform="translate(-398 -289)"><circle class="e" cx="2.5" cy="2.5" r="2.5" transform="translate(818 409)"/></g><g transform="translate(-368 -289)"><circle class="e" cx="2.5" cy="2.5" r="2.5" transform="translate(818 409)"/></g><g transform="translate(-338 -289)"><circle class="e" cx="2.5" cy="2.5" r="2.5" transform="translate(818 409)"/></g><g transform="translate(-308 -289)"><circle class="e" cx="2.5" cy="2.5" r="2.5" transform="translate(818 409)"/></g><g transform="translate(-278 -289)"><circle class="e" cx="2.5" cy="2.5" r="2.5" transform="translate(818 409)"/></g><g transform="translate(-248 -289)"><circle class="e" cx="2.5" cy="2.5" r="2.5" transform="translate(818 409)"/></g><g transform="translate(-218 -289)"><circle class="e" cx="2.5" cy="2.5" r="2.5" transform="translate(818 409)"/></g><g transform="translate(-188 -289)"><circle class="e" cx="2.5" cy="2.5" r="2.5" transform="translate(818 409)"/></g><g transform="translate(-158 -289)"><circle class="e" cx="2.5" cy="2.5" r="2.5" transform="translate(818 409)"/></g><g transform="translate(-128 -289)"><circle class="e" cx="2.5" cy="2.5" r="2.5" transform="translate(818 409)"/></g><g transform="translate(-98 -289)"><circle class="e" cx="2.5" cy="2.5" r="2.5" transform="translate(818 409)"/></g><g transform="translate(-68 -289)"><circle class="e" cx="2.5" cy="2.5" r="2.5" transform="translate(818 409)"/></g><g transform="translate(-38 -289)"><circle class="e" cx="2.5" cy="2.5" r="2.5" transform="translate(818 409)"/></g><g transform="translate(-8 -289)"><circle class="e" cx="2.5" cy="2.5" r="2.5" transform="translate(818 409)"/></g><g transform="translate(22 -289)"><circle class="e" cx="2.5" cy="2.5" r="2.5" transform="translate(818 409)"/></g><g transform="translate(52 -289)"><circle class="e" cx="2.5" cy="2.5" r="2.5" transform="translate(818 409)"/></g><g transform="translate(82 -289)"><circle class="e" cx="2.5" cy="2.5" r="2.5" transform="translate(818 409)"/></g><g transform="translate(112 -289)"><circle class="e" cx="2.5" cy="2.5" r="2.5" transform="translate(818 409)"/></g><g transform="translate(142 -289)"><circle class="e" cx="2.5" cy="2.5" r="2.5" transform="translate(818 409)"/></g><g transform="translate(172 -289)"><circle class="e" cx="2.5" cy="2.5" r="2.5" transform="translate(818 409)"/></g><g transform="translate(202 -289)"><circle class="e" cx="2.5" cy="2.5" r="2.5" transform="translate(818 409)"/></g><g transform="translate(-818 -259)"><circle class="e" cx="2.5" cy="2.5" r="2.5" transform="translate(818 409)"/></g><g transform="translate(-788 -259)"><circle class="e" cx="2.5" cy="2.5" r="2.5" transform="translate(818 409)"/></g><g transform="translate(-758 -259)"><circle class="e" cx="2.5" cy="2.5" r="2.5" transform="translate(818 409)"/></g><g transform="translate(-728 -259)"><circle class="e" cx="2.5" cy="2.5" r="2.5" transform="translate(818 409)"/></g><g transform="translate(-698 -259)"><circle class="e" cx="2.5" cy="2.5" r="2.5" transform="translate(818 409)"/></g><g transform="translate(-668 -259)"><circle class="e" cx="2.5" cy="2.5" r="2.5" transform="translate(818 409)"/></g><g transform="translate(-638 -259)"><circle class="e" cx="2.5" cy="2.5" r="2.5" transform="translate(818 409)"/></g><g transform="translate(-608 -259)"><circle class="e" cx="2.5" cy="2.5" r="2.5" transform="translate(818 409)"/></g><g transform="translate(-578 -259)"><circle class="e" cx="2.5" cy="2.5" r="2.5" transform="translate(818 409)"/></g><g transform="translate(-548 -259)"><circle class="e" cx="2.5" cy="2.5" r="2.5" transform="translate(818 409)"/></g><g transform="translate(-518 -259)"><circle class="e" cx="2.5" cy="2.5" r="2.5" transform="translate(818 409)"/></g><g transform="translate(-488 -259)"><circle class="e" cx="2.5" cy="2.5" r="2.5" transform="translate(818 409)"/></g><g transform="translate(-458 -259)"><circle class="e" cx="2.5" cy="2.5" r="2.5" transform="translate(818 409)"/></g><g transform="translate(-428 -259)"><circle class="e" cx="2.5" cy="2.5" r="2.5" transform="translate(818 409)"/></g><g transform="translate(-398 -259)"><circle class="e" cx="2.5" cy="2.5" r="2.5" transform="translate(818 409)"/></g><g transform="translate(-368 -259)"><circle class="e" cx="2.5" cy="2.5" r="2.5" transform="translate(818 409)"/></g><g transform="translate(-338 -259)"><circle class="e" cx="2.5" cy="2.5" r="2.5" transform="translate(818 409)"/></g><g transform="translate(-308 -259)"><circle class="e" cx="2.5" cy="2.5" r="2.5" transform="translate(818 409)"/></g><g transform="translate(-278 -259)"><circle class="e" cx="2.5" cy="2.5" r="2.5" transform="translate(818 409)"/></g><g transform="translate(-248 -259)"><circle class="e" cx="2.5" cy="2.5" r="2.5" transform="translate(818 409)"/></g><g transform="translate(-218 -259)"><circle class="e" cx="2.5" cy="2.5" r="2.5" transform="translate(818 409)"/></g><g transform="translate(-188 -259)"><circle class="e" cx="2.5" cy="2.5" r="2.5" transform="translate(818 409)"/></g><g transform="translate(-158 -259)"><circle class="e" cx="2.5" cy="2.5" r="2.5" transform="translate(818 409)"/></g><g transform="translate(-128 -259)"><circle class="e" cx="2.5" cy="2.5" r="2.5" transform="translate(818 409)"/></g><g transform="translate(-98 -259)"><circle class="e" cx="2.5" cy="2.5" r="2.5" transform="translate(818 409)"/></g><g transform="translate(-68 -259)"><circle class="e" cx="2.5" cy="2.5" r="2.5" transform="translate(818 409)"/></g><g transform="translate(-38 -259)"><circle class="e" cx="2.5" cy="2.5" r="2.5" transform="translate(818 409)"/></g><g transform="translate(-8 -259)"><circle class="e" cx="2.5" cy="2.5" r="2.5" transform="translate(818 409)"/></g><g transform="translate(22 -259)"><circle class="e" cx="2.5" cy="2.5" r="2.5" transform="translate(818 409)"/></g><g transform="translate(52 -259)"><circle class="e" cx="2.5" cy="2.5" r="2.5" transform="translate(818 409)"/></g><g transform="translate(82 -259)"><circle class="e" cx="2.5" cy="2.5" r="2.5" transform="translate(818 409)"/></g><g transform="translate(112 -259)"><circle class="e" cx="2.5" cy="2.5" r="2.5" transform="translate(818 409)"/></g><g transform="translate(142 -259)"><circle class="e" cx="2.5" cy="2.5" r="2.5" transform="translate(818 409)"/></g><g transform="translate(172 -259)"><circle class="e" cx="2.5" cy="2.5" r="2.5" transform="translate(818 409)"/></g><g transform="translate(202 -259)"><circle class="e" cx="2.5" cy="2.5" r="2.5" transform="translate(818 409)"/></g><g transform="translate(-818 -229)"><circle class="e" cx="2.5" cy="2.5" r="2.5" transform="translate(818 409)"/></g><g transform="translate(-788 -229)"><circle class="e" cx="2.5" cy="2.5" r="2.5" transform="translate(818 409)"/></g><g transform="translate(-758 -229)"><circle class="e" cx="2.5" cy="2.5" r="2.5" transform="translate(818 409)"/></g><g transform="translate(-728 -229)"><circle class="e" cx="2.5" cy="2.5" r="2.5" transform="translate(818 409)"/></g><g transform="translate(-698 -229)"><circle class="e" cx="2.5" cy="2.5" r="2.5" transform="translate(818 409)"/></g><g transform="translate(-668 -229)"><circle class="e" cx="2.5" cy="2.5" r="2.5" transform="translate(818 409)"/></g><g transform="translate(-638 -229)"><circle class="e" cx="2.5" cy="2.5" r="2.5" transform="translate(818 409)"/></g><g transform="translate(-608 -229)"><circle class="e" cx="2.5" cy="2.5" r="2.5" transform="translate(818 409)"/></g><g transform="translate(-578 -229)"><circle class="e" cx="2.5" cy="2.5" r="2.5" transform="translate(818 409)"/></g><g transform="translate(-548 -229)"><circle class="e" cx="2.5" cy="2.5" r="2.5" transform="translate(818 409)"/></g><g transform="translate(-518 -229)"><circle class="e" cx="2.5" cy="2.5" r="2.5" transform="translate(818 409)"/></g><g transform="translate(-488 -229)"><circle class="e" cx="2.5" cy="2.5" r="2.5" transform="translate(818 409)"/></g><g transform="translate(-458 -229)"><circle class="e" cx="2.5" cy="2.5" r="2.5" transform="translate(818 409)"/></g><g transform="translate(-428 -229)"><circle class="e" cx="2.5" cy="2.5" r="2.5" transform="translate(818 409)"/></g><g transform="translate(-398 -229)"><circle class="e" cx="2.5" cy="2.5" r="2.5" transform="translate(818 409)"/></g><g transform="translate(-368 -229)"><circle class="e" cx="2.5" cy="2.5" r="2.5" transform="translate(818 409)"/></g><g transform="translate(-338 -229)"><circle class="e" cx="2.5" cy="2.5" r="2.5" transform="translate(818 409)"/></g><g transform="translate(-308 -229)"><circle class="e" cx="2.5" cy="2.5" r="2.5" transform="translate(818 409)"/></g><g transform="translate(-278 -229)"><circle class="e" cx="2.5" cy="2.5" r="2.5" transform="translate(818 409)"/></g><g transform="translate(-248 -229)"><circle class="e" cx="2.5" cy="2.5" r="2.5" transform="translate(818 409)"/></g><g transform="translate(-218 -229)"><circle class="e" cx="2.5" cy="2.5" r="2.5" transform="translate(818 409)"/></g><g transform="translate(-188 -229)"><circle class="e" cx="2.5" cy="2.5" r="2.5" transform="translate(818 409)"/></g><g transform="translate(-158 -229)"><circle class="e" cx="2.5" cy="2.5" r="2.5" transform="translate(818 409)"/></g><g transform="translate(-128 -229)"><circle class="e" cx="2.5" cy="2.5" r="2.5" transform="translate(818 409)"/></g><g transform="translate(-98 -229)"><circle class="e" cx="2.5" cy="2.5" r="2.5" transform="translate(818 409)"/></g><g transform="translate(-68 -229)"><circle class="e" cx="2.5" cy="2.5" r="2.5" transform="translate(818 409)"/></g><g transform="translate(-38 -229)"><circle class="e" cx="2.5" cy="2.5" r="2.5" transform="translate(818 409)"/></g><g transform="translate(-8 -229)"><circle class="e" cx="2.5" cy="2.5" r="2.5" transform="translate(818 409)"/></g><g transform="translate(22 -229)"><circle class="e" cx="2.5" cy="2.5" r="2.5" transform="translate(818 409)"/></g><g transform="translate(52 -229)"><circle class="e" cx="2.5" cy="2.5" r="2.5" transform="translate(818 409)"/></g><g transform="translate(82 -229)"><circle class="e" cx="2.5" cy="2.5" r="2.5" transform="translate(818 409)"/></g><g transform="translate(112 -229)"><circle class="e" cx="2.5" cy="2.5" r="2.5" transform="translate(818 409)"/></g><g transform="translate(142 -229)"><circle class="e" cx="2.5" cy="2.5" r="2.5" transform="translate(818 409)"/></g><g transform="translate(172 -229)"><circle class="e" cx="2.5" cy="2.5" r="2.5" transform="translate(818 409)"/></g><g transform="translate(202 -229)"><circle class="e" cx="2.5" cy="2.5" r="2.5" transform="translate(818 409)"/></g><g transform="translate(-818 -199)"><circle class="e" cx="2.5" cy="2.5" r="2.5" transform="translate(818 409)"/></g><g transform="translate(-788 -199)"><circle class="e" cx="2.5" cy="2.5" r="2.5" transform="translate(818 409)"/></g><g transform="translate(-758 -199)"><circle class="e" cx="2.5" cy="2.5" r="2.5" transform="translate(818 409)"/></g><g transform="translate(-728 -199)"><circle class="e" cx="2.5" cy="2.5" r="2.5" transform="translate(818 409)"/></g><g transform="translate(-698 -199)"><circle class="e" cx="2.5" cy="2.5" r="2.5" transform="translate(818 409)"/></g><g transform="translate(-668 -199)"><circle class="e" cx="2.5" cy="2.5" r="2.5" transform="translate(818 409)"/></g><g transform="translate(-638 -199)"><circle class="e" cx="2.5" cy="2.5" r="2.5" transform="translate(818 409)"/></g><g transform="translate(-608 -199)"><circle class="e" cx="2.5" cy="2.5" r="2.5" transform="translate(818 409)"/></g><g transform="translate(-578 -199)"><circle class="e" cx="2.5" cy="2.5" r="2.5" transform="translate(818 409)"/></g><g transform="translate(-548 -199)"><circle class="e" cx="2.5" cy="2.5" r="2.5" transform="translate(818 409)"/></g><g transform="translate(-518 -199)"><circle class="e" cx="2.5" cy="2.5" r="2.5" transform="translate(818 409)"/></g><g transform="translate(-488 -199)"><circle class="e" cx="2.5" cy="2.5" r="2.5" transform="translate(818 409)"/></g><g transform="translate(-458 -199)"><circle class="e" cx="2.5" cy="2.5" r="2.5" transform="translate(818 409)"/></g><g transform="translate(-428 -199)"><circle class="e" cx="2.5" cy="2.5" r="2.5" transform="translate(818 409)"/></g><g transform="translate(-398 -199)"><circle class="e" cx="2.5" cy="2.5" r="2.5" transform="translate(818 409)"/></g><g transform="translate(-368 -199)"><circle class="e" cx="2.5" cy="2.5" r="2.5" transform="translate(818 409)"/></g><g transform="translate(-338 -199)"><circle class="e" cx="2.5" cy="2.5" r="2.5" transform="translate(818 409)"/></g><g transform="translate(-308 -199)"><circle class="e" cx="2.5" cy="2.5" r="2.5" transform="translate(818 409)"/></g><g transform="translate(-278 -199)"><circle class="e" cx="2.5" cy="2.5" r="2.5" transform="translate(818 409)"/></g><g transform="translate(-248 -199)"><circle class="e" cx="2.5" cy="2.5" r="2.5" transform="translate(818 409)"/></g><g transform="translate(-218 -199)"><circle class="e" cx="2.5" cy="2.5" r="2.5" transform="translate(818 409)"/></g><g transform="translate(-188 -199)"><circle class="e" cx="2.5" cy="2.5" r="2.5" transform="translate(818 409)"/></g><g transform="translate(-158 -199)"><circle class="e" cx="2.5" cy="2.5" r="2.5" transform="translate(818 409)"/></g><g transform="translate(-128 -199)"><circle class="e" cx="2.5" cy="2.5" r="2.5" transform="translate(818 409)"/></g><g transform="translate(-98 -199)"><circle class="e" cx="2.5" cy="2.5" r="2.5" transform="translate(818 409)"/></g><g transform="translate(-68 -199)"><circle class="e" cx="2.5" cy="2.5" r="2.5" transform="translate(818 409)"/></g><g transform="translate(-38 -199)"><circle class="e" cx="2.5" cy="2.5" r="2.5" transform="translate(818 409)"/></g><g transform="translate(-8 -199)"><circle class="e" cx="2.5" cy="2.5" r="2.5" transform="translate(818 409)"/></g><g transform="translate(22 -199)"><circle class="e" cx="2.5" cy="2.5" r="2.5" transform="translate(818 409)"/></g><g transform="translate(52 -199)"><circle class="e" cx="2.5" cy="2.5" r="2.5" transform="translate(818 409)"/></g><g transform="translate(82 -199)"><circle class="e" cx="2.5" cy="2.5" r="2.5" transform="translate(818 409)"/></g><g transform="translate(112 -199)"><circle class="e" cx="2.5" cy="2.5" r="2.5" transform="translate(818 409)"/></g><g transform="translate(142 -199)"><circle class="e" cx="2.5" cy="2.5" r="2.5" transform="translate(818 409)"/></g><g transform="translate(172 -199)"><circle class="e" cx="2.5" cy="2.5" r="2.5" transform="translate(818 409)"/></g><g transform="translate(202 -199)"><circle class="e" cx="2.5" cy="2.5" r="2.5" transform="translate(818 409)"/></g><g transform="translate(-818 -169)"><circle class="e" cx="2.5" cy="2.5" r="2.5" transform="translate(818 409)"/></g><g transform="translate(-788 -169)"><circle class="e" cx="2.5" cy="2.5" r="2.5" transform="translate(818 409)"/></g><g transform="translate(-758 -169)"><circle class="e" cx="2.5" cy="2.5" r="2.5" transform="translate(818 409)"/></g><g transform="translate(-728 -169)"><circle class="e" cx="2.5" cy="2.5" r="2.5" transform="translate(818 409)"/></g><g transform="translate(-698 -169)"><circle class="e" cx="2.5" cy="2.5" r="2.5" transform="translate(818 409)"/></g><g transform="translate(-668 -169)"><circle class="e" cx="2.5" cy="2.5" r="2.5" transform="translate(818 409)"/></g><g transform="translate(-638 -169)"><circle class="e" cx="2.5" cy="2.5" r="2.5" transform="translate(818 409)"/></g><g transform="translate(-608 -169)"><circle class="e" cx="2.5" cy="2.5" r="2.5" transform="translate(818 409)"/></g><g transform="translate(-578 -169)"><circle class="e" cx="2.5" cy="2.5" r="2.5" transform="translate(818 409)"/></g><g transform="translate(-548 -169)"><circle class="e" cx="2.5" cy="2.5" r="2.5" transform="translate(818 409)"/></g><g transform="translate(-518 -169)"><circle class="e" cx="2.5" cy="2.5" r="2.5" transform="translate(818 409)"/></g><g transform="translate(-488 -169)"><circle class="e" cx="2.5" cy="2.5" r="2.5" transform="translate(818 409)"/></g><g transform="translate(-458 -169)"><circle class="e" cx="2.5" cy="2.5" r="2.5" transform="translate(818 409)"/></g><g transform="translate(-428 -169)"><circle class="e" cx="2.5" cy="2.5" r="2.5" transform="translate(818 409)"/></g><g transform="translate(-398 -169)"><circle class="e" cx="2.5" cy="2.5" r="2.5" transform="translate(818 409)"/></g><g transform="translate(-368 -169)"><circle class="e" cx="2.5" cy="2.5" r="2.5" transform="translate(818 409)"/></g><g transform="translate(-338 -169)"><circle class="e" cx="2.5" cy="2.5" r="2.5" transform="translate(818 409)"/></g><g transform="translate(-308 -169)"><circle class="e" cx="2.5" cy="2.5" r="2.5" transform="translate(818 409)"/></g><g transform="translate(-278 -169)"><circle class="e" cx="2.5" cy="2.5" r="2.5" transform="translate(818 409)"/></g><g transform="translate(-248 -169)"><circle class="e" cx="2.5" cy="2.5" r="2.5" transform="translate(818 409)"/></g><g transform="translate(-218 -169)"><circle class="e" cx="2.5" cy="2.5" r="2.5" transform="translate(818 409)"/></g><g transform="translate(-188 -169)"><circle class="e" cx="2.5" cy="2.5" r="2.5" transform="translate(818 409)"/></g><g transform="translate(-158 -169)"><circle class="e" cx="2.5" cy="2.5" r="2.5" transform="translate(818 409)"/></g><g transform="translate(-128 -169)"><circle class="e" cx="2.5" cy="2.5" r="2.5" transform="translate(818 409)"/></g><g transform="translate(-98 -169)"><circle class="e" cx="2.5" cy="2.5" r="2.5" transform="translate(818 409)"/></g><g transform="translate(-68 -169)"><circle class="e" cx="2.5" cy="2.5" r="2.5" transform="translate(818 409)"/></g><g transform="translate(-38 -169)"><circle class="e" cx="2.5" cy="2.5" r="2.5" transform="translate(818 409)"/></g><g transform="translate(-8 -169)"><circle class="e" cx="2.5" cy="2.5" r="2.5" transform="translate(818 409)"/></g><g transform="translate(22 -169)"><circle class="e" cx="2.5" cy="2.5" r="2.5" transform="translate(818 409)"/></g><g transform="translate(52 -169)"><circle class="e" cx="2.5" cy="2.5" r="2.5" transform="translate(818 409)"/></g><g transform="translate(82 -169)"><circle class="e" cx="2.5" cy="2.5" r="2.5" transform="translate(818 409)"/></g><g transform="translate(112 -169)"><circle class="e" cx="2.5" cy="2.5" r="2.5" transform="translate(818 409)"/></g><g transform="translate(142 -169)"><circle class="e" cx="2.5" cy="2.5" r="2.5" transform="translate(818 409)"/></g><g transform="translate(172 -169)"><circle class="e" cx="2.5" cy="2.5" r="2.5" transform="translate(818 409)"/></g><g transform="translate(202 -169)"><circle class="e" cx="2.5" cy="2.5" r="2.5" transform="translate(818 409)"/></g><g transform="translate(-818 -139)"><circle class="e" cx="2.5" cy="2.5" r="2.5" transform="translate(818 409)"/></g><g transform="translate(-788 -139)"><circle class="e" cx="2.5" cy="2.5" r="2.5" transform="translate(818 409)"/></g><g transform="translate(-758 -139)"><circle class="e" cx="2.5" cy="2.5" r="2.5" transform="translate(818 409)"/></g><g transform="translate(-728 -139)"><circle class="e" cx="2.5" cy="2.5" r="2.5" transform="translate(818 409)"/></g><g transform="translate(-698 -139)"><circle class="e" cx="2.5" cy="2.5" r="2.5" transform="translate(818 409)"/></g><g transform="translate(-668 -139)"><circle class="e" cx="2.5" cy="2.5" r="2.5" transform="translate(818 409)"/></g><g transform="translate(-638 -139)"><circle class="e" cx="2.5" cy="2.5" r="2.5" transform="translate(818 409)"/></g><g transform="translate(-608 -139)"><circle class="e" cx="2.5" cy="2.5" r="2.5" transform="translate(818 409)"/></g><g transform="translate(-578 -139)"><circle class="e" cx="2.5" cy="2.5" r="2.5" transform="translate(818 409)"/></g><g transform="translate(-548 -139)"><circle class="e" cx="2.5" cy="2.5" r="2.5" transform="translate(818 409)"/></g><g transform="translate(-518 -139)"><circle class="e" cx="2.5" cy="2.5" r="2.5" transform="translate(818 409)"/></g><g transform="translate(-488 -139)"><circle class="e" cx="2.5" cy="2.5" r="2.5" transform="translate(818 409)"/></g><g transform="translate(-458 -139)"><circle class="e" cx="2.5" cy="2.5" r="2.5" transform="translate(818 409)"/></g><g transform="translate(-428 -139)"><circle class="e" cx="2.5" cy="2.5" r="2.5" transform="translate(818 409)"/></g><g transform="translate(-398 -139)"><circle class="e" cx="2.5" cy="2.5" r="2.5" transform="translate(818 409)"/></g><g transform="translate(-368 -139)"><circle class="e" cx="2.5" cy="2.5" r="2.5" transform="translate(818 409)"/></g><g transform="translate(-338 -139)"><circle class="e" cx="2.5" cy="2.5" r="2.5" transform="translate(818 409)"/></g><g transform="translate(-308 -139)"><circle class="e" cx="2.5" cy="2.5" r="2.5" transform="translate(818 409)"/></g><g transform="translate(-278 -139)"><circle class="e" cx="2.5" cy="2.5" r="2.5" transform="translate(818 409)"/></g><g transform="translate(-248 -139)"><circle class="e" cx="2.5" cy="2.5" r="2.5" transform="translate(818 409)"/></g><g transform="translate(-218 -139)"><circle class="e" cx="2.5" cy="2.5" r="2.5" transform="translate(818 409)"/></g><g transform="translate(-188 -139)"><circle class="e" cx="2.5" cy="2.5" r="2.5" transform="translate(818 409)"/></g><g transform="translate(-158 -139)"><circle class="e" cx="2.5" cy="2.5" r="2.5" transform="translate(818 409)"/></g><g transform="translate(-128 -139)"><circle class="e" cx="2.5" cy="2.5" r="2.5" transform="translate(818 409)"/></g><g transform="translate(-98 -139)"><circle class="e" cx="2.5" cy="2.5" r="2.5" transform="translate(818 409)"/></g><g transform="translate(-68 -139)"><circle class="e" cx="2.5" cy="2.5" r="2.5" transform="translate(818 409)"/></g><g transform="translate(-38 -139)"><circle class="e" cx="2.5" cy="2.5" r="2.5" transform="translate(818 409)"/></g><g transform="translate(-8 -139)"><circle class="e" cx="2.5" cy="2.5" r="2.5" transform="translate(818 409)"/></g><g transform="translate(22 -139)"><circle class="e" cx="2.5" cy="2.5" r="2.5" transform="translate(818 409)"/></g><g transform="translate(52 -139)"><circle class="e" cx="2.5" cy="2.5" r="2.5" transform="translate(818 409)"/></g><g transform="translate(82 -139)"><circle class="e" cx="2.5" cy="2.5" r="2.5" transform="translate(818 409)"/></g><g transform="translate(112 -139)"><circle class="e" cx="2.5" cy="2.5" r="2.5" transform="translate(818 409)"/></g><g transform="translate(142 -139)"><circle class="e" cx="2.5" cy="2.5" r="2.5" transform="translate(818 409)"/></g><g transform="translate(172 -139)"><circle class="e" cx="2.5" cy="2.5" r="2.5" transform="translate(818 409)"/></g><g transform="translate(202 -139)"><circle class="e" cx="2.5" cy="2.5" r="2.5" transform="translate(818 409)"/></g><g transform="translate(-818 -109)"><circle class="e" cx="2.5" cy="2.5" r="2.5" transform="translate(818 409)"/></g><g transform="translate(-788 -109)"><circle class="e" cx="2.5" cy="2.5" r="2.5" transform="translate(818 409)"/></g><g transform="translate(-758 -109)"><circle class="e" cx="2.5" cy="2.5" r="2.5" transform="translate(818 409)"/></g><g transform="translate(-728 -109)"><circle class="e" cx="2.5" cy="2.5" r="2.5" transform="translate(818 409)"/></g><g transform="translate(-698 -109)"><circle class="e" cx="2.5" cy="2.5" r="2.5" transform="translate(818 409)"/></g><g transform="translate(-668 -109)"><circle class="e" cx="2.5" cy="2.5" r="2.5" transform="translate(818 409)"/></g><g transform="translate(-638 -109)"><circle class="e" cx="2.5" cy="2.5" r="2.5" transform="translate(818 409)"/></g><g transform="translate(-608 -109)"><circle class="e" cx="2.5" cy="2.5" r="2.5" transform="translate(818 409)"/></g><g transform="translate(-578 -109)"><circle class="e" cx="2.5" cy="2.5" r="2.5" transform="translate(818 409)"/></g><g transform="translate(-548 -109)"><circle class="e" cx="2.5" cy="2.5" r="2.5" transform="translate(818 409)"/></g><g transform="translate(-518 -109)"><circle class="e" cx="2.5" cy="2.5" r="2.5" transform="translate(818 409)"/></g><g transform="translate(-488 -109)"><circle class="e" cx="2.5" cy="2.5" r="2.5" transform="translate(818 409)"/></g><g transform="translate(-458 -109)"><circle class="e" cx="2.5" cy="2.5" r="2.5" transform="translate(818 409)"/></g><g transform="translate(-428 -109)"><circle class="e" cx="2.5" cy="2.5" r="2.5" transform="translate(818 409)"/></g><g transform="translate(-398 -109)"><circle class="e" cx="2.5" cy="2.5" r="2.5" transform="translate(818 409)"/></g><g transform="translate(-368 -109)"><circle class="e" cx="2.5" cy="2.5" r="2.5" transform="translate(818 409)"/></g><g transform="translate(-338 -109)"><circle class="e" cx="2.5" cy="2.5" r="2.5" transform="translate(818 409)"/></g><g transform="translate(-308 -109)"><circle class="e" cx="2.5" cy="2.5" r="2.5" transform="translate(818 409)"/></g><g transform="translate(-278 -109)"><circle class="e" cx="2.5" cy="2.5" r="2.5" transform="translate(818 409)"/></g><g transform="translate(-248 -109)"><circle class="e" cx="2.5" cy="2.5" r="2.5" transform="translate(818 409)"/></g><g transform="translate(-218 -109)"><circle class="e" cx="2.5" cy="2.5" r="2.5" transform="translate(818 409)"/></g><g transform="translate(-188 -109)"><circle class="e" cx="2.5" cy="2.5" r="2.5" transform="translate(818 409)"/></g><g transform="translate(-158 -109)"><circle class="e" cx="2.5" cy="2.5" r="2.5" transform="translate(818 409)"/></g><g transform="translate(-128 -109)"><circle class="e" cx="2.5" cy="2.5" r="2.5" transform="translate(818 409)"/></g><g transform="translate(-98 -109)"><circle class="e" cx="2.5" cy="2.5" r="2.5" transform="translate(818 409)"/></g><g transform="translate(-68 -109)"><circle class="e" cx="2.5" cy="2.5" r="2.5" transform="translate(818 409)"/></g><g transform="translate(-38 -109)"><circle class="e" cx="2.5" cy="2.5" r="2.5" transform="translate(818 409)"/></g><g transform="translate(-8 -109)"><circle class="e" cx="2.5" cy="2.5" r="2.5" transform="translate(818 409)"/></g><g transform="translate(22 -109)"><circle class="e" cx="2.5" cy="2.5" r="2.5" transform="translate(818 409)"/></g><g transform="translate(52 -109)"><circle class="e" cx="2.5" cy="2.5" r="2.5" transform="translate(818 409)"/></g><g transform="translate(82 -109)"><circle class="e" cx="2.5" cy="2.5" r="2.5" transform="translate(818 409)"/></g><g transform="translate(112 -109)"><circle class="e" cx="2.5" cy="2.5" r="2.5" transform="translate(818 409)"/></g><g transform="translate(142 -109)"><circle class="e" cx="2.5" cy="2.5" r="2.5" transform="translate(818 409)"/></g><g transform="translate(172 -109)"><circle class="e" cx="2.5" cy="2.5" r="2.5" transform="translate(818 409)"/></g><g transform="translate(202 -109)"><circle class="e" cx="2.5" cy="2.5" r="2.5" transform="translate(818 409)"/></g></g><g transform="translate(-64 -80)"><circle class="f" cx="454" cy="454" r="454" transform="translate(-255 106)"/></g><circle class="c" cx="65.5" cy="65.5" r="65.5" transform="translate(726 425)"/><circle class="c" cx="29.5" cy="29.5" r="29.5" transform="translate(106 431)"/></g></svg>