<svg xmlns="http://www.w3.org/2000/svg" xmlns:xlink="http://www.w3.org/1999/xlink" viewBox="0 0 1920 541"><defs><style>.a{clip-path:url(#h);}.b{fill:rgba(255,255,255,0);}.c{fill:url(#a);}.d,.g{fill:url(#b);}.e,.f{opacity:0.32;}.e{fill:url(#c);}.f{fill:url(#d);}.g{opacity:0.09;}</style><linearGradient id="a" x1="-0.295" y1="0.238" x2="0.985" y2="0.698" gradientUnits="objectBoundingBox"><stop offset="0" stop-color="#eb51b8"/><stop offset="1" stop-color="#ffbb54"/></linearGradient><linearGradient id="b" x1="0.707" y1="0.214" x2="0.271" y2="0.947" gradientUnits="objectBoundingBox"><stop offset="0" stop-color="#fff"/><stop offset="1" stop-color="#f9e8e7"/></linearGradient><linearGradient id="c" x1="0.054" y1="0.468" x2="0.967" y2="0.638" xlink:href="#a"/><linearGradient id="d" x1="1.005" y1="0.566" x2="0.005" y2="0.543" xlink:href="#a"/><clipPath id="h"><rect width="1920" height="541"/></clipPath></defs><g id="g" class="a"><rect class="b" width="1920" height="541"/><rect class="b" width="1920" height="1080"/><path class="c" d="M1949-.95V455s567.946,72,972,72,959.967-67.346,959.967-72,16.074-454.089,0-455.95S1949-.95,1949-.95Z" transform="translate(-1958)"/><ellipse class="d" cx="133" cy="131" rx="133" ry="131" transform="translate(-119.168 6.693) rotate(-13)"/><path class="e" d="M83.382-7.114,868.293,1.9l-48.3,131.49L0,119.789Z" transform="matrix(0.966, -0.259, 0.259, 0.966, 510.273, 365.625)"/><path class="f" d="M61.3-7.114,638.352-.484,602.84,96.184,0,86.182Z" transform="matrix(0.966, -0.259, 0.259, 0.966, 991.141, 341.839)"/><ellipse class="g" cx="63" cy="62" rx="63" ry="62" transform="translate(317.56 405.178) rotate(-13)"/><ellipse class="d" cx="25" cy="24" rx="25" ry="24" transform="translate(1754.134 454.657) rotate(-13)"/></g></svg>