<svg xmlns="http://www.w3.org/2000/svg" viewBox="0 0 71.719 80.891"><defs><style>.a{fill:#e778ef;}.b{fill:#7fb8f1;}.c{fill:#eec574;}.d{fill:#c2d482;}.e{fill:#ab5ba9;}.f{fill:#eed6a7;}.g{fill:#db746f;}.h{fill:#fff;}</style></defs><g transform="translate(-45.281 -26.367)"><g transform="translate(45.281 26.367)"><g transform="translate(0)"><path class="a" d="M246.425,66.939A13.267,13.267,0,0,0,234.5,62.421c4.891,5.558,7.365,11.745,6.658,11.254-2.789-1.925-5.558-1.925-8.406-1.218,5.48,5.46,8.426,10.056,7.444,9.644-5.4-2.259-12.9-2.868-17.441-.609-.02-.02-1.375.884,1.571,2.985,9.408,6.737,24.65.962,24.08,18.777C248.39,104.3,261.49,84.223,246.425,66.939Z" transform="translate(-181.953 -54.321)"/><path class="b" d="M51.046,55.419a11,11,0,0,1-8.171-13.474A10.543,10.543,0,0,1,45,37.7a29.064,29.064,0,0,0-9.114-1.178C25.434,36.9,16.694,44.381,16.36,54.791s7.876,19.5,18.345,19.464c10.155-.039,17.618-7.582,25.494-11.51a12.42,12.42,0,0,1-2.612-7.6A14.354,14.354,0,0,1,51.046,55.419Z" transform="translate(-16.35 -33.609)"/><path class="c" d="M179.584,33a15.422,15.422,0,0,1,6.6-3.143c-3.26-3.693-7.444-6.992-12.511-7.9A11.949,11.949,0,0,0,162.3,25.851a47.649,47.649,0,0,1,15.909,8.524A11.364,11.364,0,0,1,179.584,33Z" transform="translate(-133.634 -21.757)"/><path class="d" d="M158.227,60.316a14.366,14.366,0,0,0,6.541-.275,13.442,13.442,0,0,1,3.319-8.917A48,48,0,0,0,152.177,42.6a10.8,10.8,0,0,0-2.121,4.243A11,11,0,0,0,158.227,60.316Z" transform="translate(-123.53 -38.506)"/><path class="e" d="M237.815,124.322c.982.295-2.1-4.262-7.582-9.722-3.123.786-7.562,2.278-10.94,3.123a13.767,13.767,0,0,0,2.259,8.662C226.09,124.146,233.023,122.869,237.815,124.322Z" transform="translate(-179.373 -96.365)"/><path class="f" d="M241.5,67.121a86.3,86.3,0,0,1,6.678,5.951,9.865,9.865,0,0,1,8.465,1.336c.727.491-1.964-6.049-6.855-11.608A18.589,18.589,0,0,0,241.5,67.121Z" transform="translate(-197.278 -54.739)"/><path class="g" d="M219.4,94.147c2.259-.57,6.816-2.377,11.058-3.437a79.89,79.89,0,0,0-6.7-6.01A13.277,13.277,0,0,0,219.4,94.147Z" transform="translate(-179.518 -72.337)"/></g><path class="a" d="M298.622,204.005c.1.255.2.491.275.766,1.768,4.93-.393,11.647-5.794,11.647a6.249,6.249,0,0,1-5.382-2.278c-1.316-1.63-2.3-5.048-.2-7.581a4.389,4.389,0,0,1,5.2-1.237,4.107,4.107,0,0,1,1.846,4.93c.216-.766.1-.923,0-1.08a2.538,2.538,0,0,1-.177-.491,5.456,5.456,0,0,0-.393-.962,3.623,3.623,0,0,0-.943-1.061,2.912,2.912,0,0,0-1.355-.53,2.663,2.663,0,0,0-1.709.354,2.864,2.864,0,0,0-.962.923,3.508,3.508,0,0,0-.53,1.336,4.06,4.06,0,0,0,.2,2.259,3.632,3.632,0,0,0,5.755,1.453c2.18-1.787,1.611-4.812,1.178-5.716a4.887,4.887,0,0,0-1.336-1.728,5.431,5.431,0,0,0-2.043-1.08,5.367,5.367,0,0,0-5.028,1.453,7.209,7.209,0,0,0-1.768,6.285,7.5,7.5,0,0,0,3.81,5.185c3.319,1.591,6.658.255,8.976-1.846,4.989-4.517,5.657-14.063,5.676-15.1C304.259,200.057,299.879,205.576,298.622,204.005Z" transform="translate(-232.5 -164.911)"/></g><g transform="translate(51.439 58.823)"><path class="h" d="M68.814,211.649l-.02,12.433H64.081l-.02,11.215L47.7,235.258l.059-29.972c.02-5.794,1.866-10.312,5.558-13.513s8.9-4.792,15.575-4.773c6.442.02,11.215,1.473,14.3,4.4s4.616,7.424,4.6,13.494l-.059,30.464-16.361-.039.079-29.521a7.113,7.113,0,0,0-.746-3.83,3.15,3.15,0,0,0-2.73-1.08c-2.553,0-3.83,1.63-3.85,4.891l-.02,5.873Z" transform="translate(-47.7 -186.999)"/><rect class="h" width="20.368" height="13.611" transform="translate(11.844 24.375)"/></g><rect class="h" width="15.183" height="23.805" transform="translate(96.515 83.453)"/><path class="h" d="M289.874,211.387A8.387,8.387,0,1,1,281.487,203,8.382,8.382,0,0,1,289.874,211.387Z" transform="translate(-177.39 -141.034)"/></g></svg>