<?xml version="1.0" encoding="utf-8"?>
<!-- Generator: Adobe Illustrator 19.0.0, SVG Export Plug-In . SVG Version: 6.00 Build 0)  -->
<svg version="1.1" id="Capa_1" xmlns="http://www.w3.org/2000/svg" xmlns:xlink="http://www.w3.org/1999/xlink" x="0px" y="0px"
	 viewBox="-70 9.9 114 136" style="enable-background:new -70 9.9 114 136;" xml:space="preserve">
<style type="text/css">
	.st0{clip-path:url(#SVGID_2_);}
	.st1{fill:#C4007A;}
	.st2{fill:#009DE0;}
	.st3{fill:#F7EA3A;}
	.st4{fill:#A2C037;}
	.st5{fill:#80207E;}
	.st6{fill:#E7B141;}
	.st7{fill:#C7362E;}
	.st8{fill:#4A4A4A;}
</style>
<g>
	<defs>
		<rect id="SVGID_1_" x="-70" y="9.9" width="114" height="136"/>
	</defs>
	<clipPath id="SVGID_2_">
		<use xlink:href="#SVGID_1_"  style="overflow:visible;"/>
	</clipPath>
	<g id="d" class="st0">
		<g transform="translate(2 3)">
			<g transform="translate(-11.663 -14.93)">
				<g transform="translate(15.663 21.757)">
					<path class="st1" d="M21.5,27.8c-4.2-4.9-10.6-7.3-16.9-6.4c6.9,7.9,10.4,16.7,9.4,16c-4-2.7-7.9-2.7-11.9-1.7
						c7.8,7.7,12,14.3,10.6,13.7C5,46.1-5.7,45.3-12.1,48.5c0,0-2,1.3,2.2,4.2c13.3,9.6,35,1.4,34.2,26.6
						C24.3,80.8,42.8,52.3,21.5,27.8z"/>
					<path class="st2" d="M-20.8,40.9c-8.6-1.8-13.7-10.6-11.6-19.1c0.5-2.2,1.6-4.3,3-6c-4.2-1.2-8.6-1.8-12.9-1.7
						C-57.1,14.6-69.5,25.2-70,40c-0.5,14.8,11.2,27.7,26,27.6c14.4-0.1,25-10.8,36.2-16.3c-2.4-3.1-3.7-6.9-3.7-10.8
						C-14.5,41.3-17.7,41.4-20.8,40.9z"/>
					<path class="st3" d="M-4.8,25.9c2.7-2.2,5.9-3.7,9.4-4.5C-0.1,16.2-6,11.5-13.2,10.2c-6-1.2-12.1,0.9-16.1,5.5
						c8.3,2.4,16.1,7,22.6,12.1C-6.2,27.1-5.5,26.5-4.8,25.9z"/>
					<path class="st4" d="M-20.8,40.9c3.1,0.6,6.3,0.5,9.3-0.4c0-4.7,1.6-9.1,4.7-12.7c-6.5-5.1-14.2-9.7-22.6-12.1
						c-1.4,1.8-2.5,3.8-3,6C-34.5,30.2-29.3,39.1-20.8,40.9z"/>
					<path class="st5" d="M12.9,49.6c1.4,0.4-3-6-10.8-13.8c-4.4,1.1-10.7,3.2-15.5,4.4c-0.3,4.3,0.8,8.7,3.2,12.3
						C-3.7,49.3,6.1,47.5,12.9,49.6z"/>
					<path class="st6" d="M-7.3,27.5c3.3,2.6,6.5,5.5,9.5,8.4c4-1,8.1-0.8,12,1.9c1,0.7-2.8-8.6-9.7-16.5
						C0.1,22.4-3.9,24.5-7.3,27.5L-7.3,27.5z"/>
					<path class="st7" d="M-13.4,40.8c3.2-0.8,9.7-3.4,15.7-4.9c-3-3-6.2-5.9-9.5-8.5C-10.9,30.3-13.4,36.3-13.4,40.8z"/>
					<path class="st1" d="M23.8,65.4c0.1,0.4,0.3,0.7,0.4,1.1c2.5,7-0.6,16.5-8.2,16.5c-3,0-5.5-0.6-7.6-3.2
						C6.5,77.4,5.1,72.6,8.1,69c1.8-2.2,4.8-2.9,7.4-1.8c2.4,1.4,3.6,4.3,2.6,7c0.3-1.1,0.1-1.3,0-1.5c-0.1-0.2-0.2-0.5-0.3-0.7
						c-0.1-0.5-0.3-0.9-0.6-1.4c-0.3-0.6-0.8-1.1-1.3-1.5c-0.6-0.4-1.2-0.7-1.9-0.8c-0.8-0.1-1.7,0.1-2.4,0.5
						c-0.6,0.3-1,0.8-1.4,1.3c-0.4,0.6-0.6,1.2-0.8,1.9c-0.2,1.1-0.1,2.2,0.3,3.2c1,2.7,4,4,6.7,3c0.5-0.2,1.1-0.5,1.5-0.9
						c3.1-2.5,2.3-6.8,1.7-8.1c-0.4-1-1.1-1.8-1.9-2.5c-0.8-0.7-1.8-1.2-2.9-1.5c-2.6-0.6-5.3,0.2-7.1,2.1c-2.2,2.4-3.1,5.7-2.5,8.9
						c0.6,3.1,2.6,5.8,5.4,7.4C15.2,85.9,20,84,23.3,81c7.1-6.4,8-20,8.1-21.4C31.8,59.8,25.6,67.6,23.8,65.4z"/>
				</g>
				<g transform="translate(24.399 67.804)">
					<path class="st8" d="M-40,44.9l0,17.6h-6.7l0,15.9L-70,78.4l0.1-42.5c0-8.2,2.6-14.6,7.9-19.2s12.6-6.8,22.1-6.8
						c9.1,0,15.9,2.1,20.3,6.2s6.5,10.5,6.5,19.1l-0.1,43.2l-23.2-0.1l0.1-41.9c0-2.6-0.4-4.4-1.1-5.4c-0.7-1-2-1.5-3.9-1.5
						c-3.6,0-5.4,2.3-5.5,6.9l0,8.3L-40,44.9z"/>
					<rect x="-53.2" y="44.5" class="st8" width="28.9" height="19.3"/>
				</g>
				<rect x="18.4" y="112.7" class="st8" width="21.5" height="33.8"/>
				<path class="st8" d="M41,94.1c0,6.6-5.3,11.9-11.9,11.9c-6.6,0-11.9-5.3-11.9-11.9c0-6.6,5.3-11.9,11.9-11.9
					c3.2,0,6.2,1.3,8.4,3.5C39.8,87.9,41,90.9,41,94.1z"/>
			</g>
		</g>
	</g>
</g>
</svg>
