<svg xmlns="http://www.w3.org/2000/svg" xmlns:xlink="http://www.w3.org/1999/xlink" viewBox="0 0 539 881"><defs><style>.a,.d,.f{fill:none;}.b{clip-path:url(#c);}.c{opacity:0.6;}.d{stroke:#de5caa;}.d,.f{stroke-width:29px;}.e{fill:#a0e6f8;opacity:0.4;}.f{stroke:#feb559;}.g{clip-path:url(#a);}.h{fill:#b4b4b4;opacity:0.53;}.i{stroke:none;}</style><clipPath id="a"><rect class="a" width="141.452" height="102.134"/></clipPath><clipPath id="c"><rect width="539" height="881"/></clipPath></defs><g id="b" class="b"><g class="c" transform="translate(494.118 284.994)"><g class="d" transform="translate(-126.23 -52.532) rotate(-22)"><circle class="i" cx="41.994" cy="41.994" r="41.994"/><circle class="a" cx="41.994" cy="41.994" r="27.494"/></g></g><rect class="e" width="42" height="42" rx="12" transform="translate(355.963 745.68) rotate(-133)"/><g class="c" transform="translate(217.118 469.994)"><g class="f" transform="translate(-126.23 -52.532) rotate(-22)"><circle class="i" cx="41.994" cy="41.994" r="41.994"/><circle class="a" cx="41.994" cy="41.994" r="27.494"/></g></g><g class="g" transform="translate(19.781 175)"><g transform="translate(-44.781 -418)"><ellipse class="h" cx="1.018" cy="1.018" rx="1.018" ry="1.018" transform="translate(57.001 506.387) rotate(-180)"/><ellipse class="h" cx="1.018" cy="1.018" rx="1.018" ry="1.018" transform="translate(51.909 506.387) rotate(-180)"/><ellipse class="h" cx="1.018" cy="1.018" rx="1.018" ry="1.018" transform="translate(46.818 506.387) rotate(-180)"/><ellipse class="h" cx="1.018" cy="1.018" rx="1.018" ry="1.018" transform="translate(57.001 501.804) rotate(-180)"/><ellipse class="h" cx="1.018" cy="1.018" rx="1.018" ry="1.018" transform="translate(51.909 501.804) rotate(-180)"/><ellipse class="h" cx="1.018" cy="1.018" rx="1.018" ry="1.018" transform="translate(46.818 501.804) rotate(-180)"/><ellipse class="h" cx="1.018" cy="1.018" rx="1.018" ry="1.018" transform="translate(57.001 497.222) rotate(-180)"/><ellipse class="h" cx="1.018" cy="1.018" rx="1.018" ry="1.018" transform="translate(51.909 497.222) rotate(-180)"/><ellipse class="h" cx="1.018" cy="1.018" rx="1.018" ry="1.018" transform="translate(46.818 497.222) rotate(-180)"/><ellipse class="h" cx="1.018" cy="1.018" rx="1.018" ry="1.018" transform="translate(57.001 492.64) rotate(-180)"/><ellipse class="h" cx="1.018" cy="1.018" rx="1.018" ry="1.018" transform="translate(51.909 492.64) rotate(-180)"/><ellipse class="h" cx="1.018" cy="1.018" rx="1.018" ry="1.018" transform="translate(46.818 492.64) rotate(-180)"/><ellipse class="h" cx="1.018" cy="1.018" rx="1.018" ry="1.018" transform="translate(57.001 488.057) rotate(-180)"/><ellipse class="h" cx="1.018" cy="1.018" rx="1.018" ry="1.018" transform="translate(51.909 488.057) rotate(-180)"/><ellipse class="h" cx="1.018" cy="1.018" rx="1.018" ry="1.018" transform="translate(46.818 488.057) rotate(-180)"/><ellipse class="h" cx="1.018" cy="1.018" rx="1.018" ry="1.018" transform="translate(57.001 483.475) rotate(-180)"/><ellipse class="h" cx="1.018" cy="1.018" rx="1.018" ry="1.018" transform="translate(51.909 483.475) rotate(-180)"/><ellipse class="h" cx="1.018" cy="1.018" rx="1.018" ry="1.018" transform="translate(46.818 483.475) rotate(-180)"/><ellipse class="h" cx="1.018" cy="1.018" rx="1.018" ry="1.018" transform="translate(67.069 506.387) rotate(-180)"/><ellipse class="h" cx="1.018" cy="1.018" rx="1.018" ry="1.018" transform="translate(61.978 506.387) rotate(-180)"/><ellipse class="h" cx="1.018" cy="1.018" rx="1.018" ry="1.018" transform="translate(67.069 501.804) rotate(-180)"/><ellipse class="h" cx="1.018" cy="1.018" rx="1.018" ry="1.018" transform="translate(61.978 501.804) rotate(-180)"/><ellipse class="h" cx="1.018" cy="1.018" rx="1.018" ry="1.018" transform="translate(67.069 497.222) rotate(-180)"/><ellipse class="h" cx="1.018" cy="1.018" rx="1.018" ry="1.018" transform="translate(61.978 497.222) rotate(-180)"/><ellipse class="h" cx="1.018" cy="1.018" rx="1.018" ry="1.018" transform="translate(67.069 492.64) rotate(-180)"/><ellipse class="h" cx="1.018" cy="1.018" rx="1.018" ry="1.018" transform="translate(61.978 492.64) rotate(-180)"/><ellipse class="h" cx="1.018" cy="1.018" rx="1.018" ry="1.018" transform="translate(67.069 488.057) rotate(-180)"/><ellipse class="h" cx="1.018" cy="1.018" rx="1.018" ry="1.018" transform="translate(61.978 488.057) rotate(-180)"/><ellipse class="h" cx="1.018" cy="1.018" rx="1.018" ry="1.018" transform="translate(67.069 483.475) rotate(-180)"/><ellipse class="h" cx="1.018" cy="1.018" rx="1.018" ry="1.018" transform="translate(61.978 483.475) rotate(-180)"/><ellipse class="h" cx="1.018" cy="1.018" rx="1.018" ry="1.018" transform="translate(77.233 506.387) rotate(-180)"/><ellipse class="h" cx="1.018" cy="1.018" rx="1.018" ry="1.018" transform="translate(72.142 506.387) rotate(-180)"/><ellipse class="h" cx="1.018" cy="1.018" rx="1.018" ry="1.018" transform="translate(77.233 501.804) rotate(-180)"/><ellipse class="h" cx="1.018" cy="1.018" rx="1.018" ry="1.018" transform="translate(72.142 501.804) rotate(-180)"/><ellipse class="h" cx="1.018" cy="1.018" rx="1.018" ry="1.018" transform="translate(77.233 497.222) rotate(-180)"/><ellipse class="h" cx="1.018" cy="1.018" rx="1.018" ry="1.018" transform="translate(72.142 497.222) rotate(-180)"/><ellipse class="h" cx="1.018" cy="1.018" rx="1.018" ry="1.018" transform="translate(77.233 492.64) rotate(-180)"/><ellipse class="h" cx="1.018" cy="1.018" rx="1.018" ry="1.018" transform="translate(72.142 492.64) rotate(-180)"/><ellipse class="h" cx="1.018" cy="1.018" rx="1.018" ry="1.018" transform="translate(77.233 488.057) rotate(-180)"/><ellipse class="h" cx="1.018" cy="1.018" rx="1.018" ry="1.018" transform="translate(72.142 488.057) rotate(-180)"/><ellipse class="h" cx="1.018" cy="1.018" rx="1.018" ry="1.018" transform="translate(77.233 483.475) rotate(-180)"/><ellipse class="h" cx="1.018" cy="1.018" rx="1.018" ry="1.018" transform="translate(72.142 483.475) rotate(-180)"/><ellipse class="h" cx="1.018" cy="1.018" rx="1.018" ry="1.018" transform="translate(57.001 479.25) rotate(-180)"/><ellipse class="h" cx="1.018" cy="1.018" rx="1.018" ry="1.018" transform="translate(51.909 479.25) rotate(-180)"/><ellipse class="h" cx="1.018" cy="1.018" rx="1.018" ry="1.018" transform="translate(46.818 479.25) rotate(-180)"/><ellipse class="h" cx="1.018" cy="1.018" rx="1.018" ry="1.018" transform="translate(57.001 474.668) rotate(-180)"/><ellipse class="h" cx="1.018" cy="1.018" rx="1.018" ry="1.018" transform="translate(51.909 474.668) rotate(-180)"/><ellipse class="h" cx="1.018" cy="1.018" rx="1.018" ry="1.018" transform="translate(46.818 474.668) rotate(-180)"/><ellipse class="h" cx="1.018" cy="1.018" rx="1.018" ry="1.018" transform="translate(57.001 470.085) rotate(-180)"/><ellipse class="h" cx="1.018" cy="1.018" rx="1.018" ry="1.018" transform="translate(51.909 470.085) rotate(-180)"/><ellipse class="h" cx="1.018" cy="1.018" rx="1.018" ry="1.018" transform="translate(46.818 470.085) rotate(-180)"/><ellipse class="h" cx="1.018" cy="1.018" rx="1.018" ry="1.018" transform="translate(57.001 465.503) rotate(-180)"/><ellipse class="h" cx="1.018" cy="1.018" rx="1.018" ry="1.018" transform="translate(51.909 465.503) rotate(-180)"/><ellipse class="h" cx="1.018" cy="1.018" rx="1.018" ry="1.018" transform="translate(46.818 465.503) rotate(-180)"/><ellipse class="h" cx="1.018" cy="1.018" rx="1.018" ry="1.018" transform="translate(57.001 460.92) rotate(-180)"/><ellipse class="h" cx="1.018" cy="1.018" rx="1.018" ry="1.018" transform="translate(51.909 460.92) rotate(-180)"/><ellipse class="h" cx="1.018" cy="1.018" rx="1.018" ry="1.018" transform="translate(46.818 460.92) rotate(-180)"/><ellipse class="h" cx="1.018" cy="1.018" rx="1.018" ry="1.018" transform="translate(57.001 456.338) rotate(-180)"/><ellipse class="h" cx="1.018" cy="1.018" rx="1.018" ry="1.018" transform="translate(51.909 456.338) rotate(-180)"/><ellipse class="h" cx="1.018" cy="1.018" rx="1.018" ry="1.018" transform="translate(46.818 456.338) rotate(-180)"/><ellipse class="h" cx="1.018" cy="1.018" rx="1.018" ry="1.018" transform="translate(57.001 451.756) rotate(-180)"/><ellipse class="h" cx="1.018" cy="1.018" rx="1.018" ry="1.018" transform="translate(51.909 451.756) rotate(-180)"/><ellipse class="h" cx="1.018" cy="1.018" rx="1.018" ry="1.018" transform="translate(46.818 451.756) rotate(-180)"/><ellipse class="h" cx="1.018" cy="1.018" rx="1.018" ry="1.018" transform="translate(57.001 447.173) rotate(-180)"/><ellipse class="h" cx="1.018" cy="1.018" rx="1.018" ry="1.018" transform="translate(51.909 447.173) rotate(-180)"/><ellipse class="h" cx="1.018" cy="1.018" rx="1.018" ry="1.018" transform="translate(46.818 447.173) rotate(-180)"/><ellipse class="h" cx="1.018" cy="1.018" rx="1.018" ry="1.018" transform="translate(57.001 442.591) rotate(-180)"/><ellipse class="h" cx="1.018" cy="1.018" rx="1.018" ry="1.018" transform="translate(51.909 442.591) rotate(-180)"/><ellipse class="h" cx="1.018" cy="1.018" rx="1.018" ry="1.018" transform="translate(46.818 442.591) rotate(-180)"/><ellipse class="h" cx="1.018" cy="1.018" rx="1.018" ry="1.018" transform="translate(67.069 479.25) rotate(-180)"/><ellipse class="h" cx="1.018" cy="1.018" rx="1.018" ry="1.018" transform="translate(61.978 479.25) rotate(-180)"/><ellipse class="h" cx="1.018" cy="1.018" rx="1.018" ry="1.018" transform="translate(67.069 474.668) rotate(-180)"/><ellipse class="h" cx="1.018" cy="1.018" rx="1.018" ry="1.018" transform="translate(61.978 474.668) rotate(-180)"/><ellipse class="h" cx="1.018" cy="1.018" rx="1.018" ry="1.018" transform="translate(67.069 470.085) rotate(-180)"/><ellipse class="h" cx="1.018" cy="1.018" rx="1.018" ry="1.018" transform="translate(61.978 470.085) rotate(-180)"/><ellipse class="h" cx="1.018" cy="1.018" rx="1.018" ry="1.018" transform="translate(67.069 465.503) rotate(-180)"/><ellipse class="h" cx="1.018" cy="1.018" rx="1.018" ry="1.018" transform="translate(61.978 465.503) rotate(-180)"/><ellipse class="h" cx="1.018" cy="1.018" rx="1.018" ry="1.018" transform="translate(67.069 460.92) rotate(-180)"/><ellipse class="h" cx="1.018" cy="1.018" rx="1.018" ry="1.018" transform="translate(61.978 460.92) rotate(-180)"/><ellipse class="h" cx="1.018" cy="1.018" rx="1.018" ry="1.018" transform="translate(67.069 456.338) rotate(-180)"/><ellipse class="h" cx="1.018" cy="1.018" rx="1.018" ry="1.018" transform="translate(61.978 456.338) rotate(-180)"/><ellipse class="h" cx="1.018" cy="1.018" rx="1.018" ry="1.018" transform="translate(67.069 451.756) rotate(-180)"/><ellipse class="h" cx="1.018" cy="1.018" rx="1.018" ry="1.018" transform="translate(61.978 451.756) rotate(-180)"/><ellipse class="h" cx="1.018" cy="1.018" rx="1.018" ry="1.018" transform="translate(67.069 447.173) rotate(-180)"/><ellipse class="h" cx="1.018" cy="1.018" rx="1.018" ry="1.018" transform="translate(61.978 447.173) rotate(-180)"/><ellipse class="h" cx="1.018" cy="1.018" rx="1.018" ry="1.018" transform="translate(67.069 442.591) rotate(-180)"/><ellipse class="h" cx="1.018" cy="1.018" rx="1.018" ry="1.018" transform="translate(61.978 442.591) rotate(-180)"/><ellipse class="h" cx="1.018" cy="1.018" rx="1.018" ry="1.018" transform="translate(77.233 479.25) rotate(-180)"/><ellipse class="h" cx="1.018" cy="1.018" rx="1.018" ry="1.018" transform="translate(72.142 479.25) rotate(-180)"/><ellipse class="h" cx="1.018" cy="1.018" rx="1.018" ry="1.018" transform="translate(77.233 474.668) rotate(-180)"/><ellipse class="h" cx="1.018" cy="1.018" rx="1.018" ry="1.018" transform="translate(72.142 474.668) rotate(-180)"/><ellipse class="h" cx="1.018" cy="1.018" rx="1.018" ry="1.018" transform="translate(77.233 470.085) rotate(-180)"/><ellipse class="h" cx="1.018" cy="1.018" rx="1.018" ry="1.018" transform="translate(72.142 470.085) rotate(-180)"/><ellipse class="h" cx="1.018" cy="1.018" rx="1.018" ry="1.018" transform="translate(77.233 465.503) rotate(-180)"/><ellipse class="h" cx="1.018" cy="1.018" rx="1.018" ry="1.018" transform="translate(72.142 465.503) rotate(-180)"/><ellipse class="h" cx="1.018" cy="1.018" rx="1.018" ry="1.018" transform="translate(77.233 460.92) rotate(-180)"/><ellipse class="h" cx="1.018" cy="1.018" rx="1.018" ry="1.018" transform="translate(72.142 460.92) rotate(-180)"/><ellipse class="h" cx="1.018" cy="1.018" rx="1.018" ry="1.018" transform="translate(77.233 456.338) rotate(-180)"/><ellipse class="h" cx="1.018" cy="1.018" rx="1.018" ry="1.018" transform="translate(72.142 456.338) rotate(-180)"/><ellipse class="h" cx="1.018" cy="1.018" rx="1.018" ry="1.018" transform="translate(77.233 451.756) rotate(-180)"/><ellipse class="h" cx="1.018" cy="1.018" rx="1.018" ry="1.018" transform="translate(72.142 451.756) rotate(-180)"/><ellipse class="h" cx="1.018" cy="1.018" rx="1.018" ry="1.018" transform="translate(77.233 447.173) rotate(-180)"/><ellipse class="h" cx="1.018" cy="1.018" rx="1.018" ry="1.018" transform="translate(72.142 447.173) rotate(-180)"/><ellipse class="h" cx="1.018" cy="1.018" rx="1.018" ry="1.018" transform="translate(77.233 442.591) rotate(-180)"/><ellipse class="h" cx="1.018" cy="1.018" rx="1.018" ry="1.018" transform="translate(72.142 442.591) rotate(-180)"/><ellipse class="h" cx="1.018" cy="1.018" rx="1.018" ry="1.018" transform="translate(57.001 438.366) rotate(-180)"/><ellipse class="h" cx="1.018" cy="1.018" rx="1.018" ry="1.018" transform="translate(51.909 438.366) rotate(-180)"/><ellipse class="h" cx="1.018" cy="1.018" rx="1.018" ry="1.018" transform="translate(46.818 438.366) rotate(-180)"/><ellipse class="h" cx="1.018" cy="1.018" rx="1.018" ry="1.018" transform="translate(57.001 433.784) rotate(-180)"/><ellipse class="h" cx="1.018" cy="1.018" rx="1.018" ry="1.018" transform="translate(51.909 433.784) rotate(-180)"/><ellipse class="h" cx="1.018" cy="1.018" rx="1.018" ry="1.018" transform="translate(46.818 433.784) rotate(-180)"/><ellipse class="h" cx="1.018" cy="1.018" rx="1.018" ry="1.018" transform="translate(57.001 429.201) rotate(-180)"/><ellipse class="h" cx="1.018" cy="1.018" rx="1.018" ry="1.018" transform="translate(51.909 429.201) rotate(-180)"/><ellipse class="h" cx="1.018" cy="1.018" rx="1.018" ry="1.018" transform="translate(46.818 429.201) rotate(-180)"/><ellipse class="h" cx="1.018" cy="1.018" rx="1.018" ry="1.018" transform="translate(57.001 424.619) rotate(-180)"/><ellipse class="h" cx="1.018" cy="1.018" rx="1.018" ry="1.018" transform="translate(51.909 424.619) rotate(-180)"/><ellipse class="h" cx="1.018" cy="1.018" rx="1.018" ry="1.018" transform="translate(46.818 424.619) rotate(-180)"/><ellipse class="h" cx="1.018" cy="1.018" rx="1.018" ry="1.018" transform="translate(57.001 420.037) rotate(-180)"/><ellipse class="h" cx="1.018" cy="1.018" rx="1.018" ry="1.018" transform="translate(51.909 420.037) rotate(-180)"/><ellipse class="h" cx="1.018" cy="1.018" rx="1.018" ry="1.018" transform="translate(46.818 420.037) rotate(-180)"/><ellipse class="h" cx="1.018" cy="1.018" rx="1.018" ry="1.018" transform="translate(67.069 438.366) rotate(-180)"/><ellipse class="h" cx="1.018" cy="1.018" rx="1.018" ry="1.018" transform="translate(61.978 438.366) rotate(-180)"/><ellipse class="h" cx="1.018" cy="1.018" rx="1.018" ry="1.018" transform="translate(67.069 433.784) rotate(-180)"/><ellipse class="h" cx="1.018" cy="1.018" rx="1.018" ry="1.018" transform="translate(61.978 433.784) rotate(-180)"/><ellipse class="h" cx="1.018" cy="1.018" rx="1.018" ry="1.018" transform="translate(67.069 429.201) rotate(-180)"/><ellipse class="h" cx="1.018" cy="1.018" rx="1.018" ry="1.018" transform="translate(61.978 429.201) rotate(-180)"/><ellipse class="h" cx="1.018" cy="1.018" rx="1.018" ry="1.018" transform="translate(67.069 424.619) rotate(-180)"/><ellipse class="h" cx="1.018" cy="1.018" rx="1.018" ry="1.018" transform="translate(61.978 424.619) rotate(-180)"/><ellipse class="h" cx="1.018" cy="1.018" rx="1.018" ry="1.018" transform="translate(67.069 420.037) rotate(-180)"/><ellipse class="h" cx="1.018" cy="1.018" rx="1.018" ry="1.018" transform="translate(61.978 420.037) rotate(-180)"/><ellipse class="h" cx="1.018" cy="1.018" rx="1.018" ry="1.018" transform="translate(77.233 438.366) rotate(-180)"/><ellipse class="h" cx="1.018" cy="1.018" rx="1.018" ry="1.018" transform="translate(72.142 438.366) rotate(-180)"/><ellipse class="h" cx="1.018" cy="1.018" rx="1.018" ry="1.018" transform="translate(77.233 433.784) rotate(-180)"/><ellipse class="h" cx="1.018" cy="1.018" rx="1.018" ry="1.018" transform="translate(72.142 433.784) rotate(-180)"/><ellipse class="h" cx="1.018" cy="1.018" rx="1.018" ry="1.018" transform="translate(77.233 429.201) rotate(-180)"/><ellipse class="h" cx="1.018" cy="1.018" rx="1.018" ry="1.018" transform="translate(72.142 429.201) rotate(-180)"/><ellipse class="h" cx="1.018" cy="1.018" rx="1.018" ry="1.018" transform="translate(77.233 424.619) rotate(-180)"/><ellipse class="h" cx="1.018" cy="1.018" rx="1.018" ry="1.018" transform="translate(72.142 424.619) rotate(-180)"/><ellipse class="h" cx="1.018" cy="1.018" rx="1.018" ry="1.018" transform="translate(77.233 420.037) rotate(-180)"/><ellipse class="h" cx="1.018" cy="1.018" rx="1.018" ry="1.018" transform="translate(72.142 420.037) rotate(-180)"/><ellipse class="h" cx="1.018" cy="1.018" rx="1.018" ry="1.018" transform="translate(57.001 510.969) rotate(-180)"/><ellipse class="h" cx="1.018" cy="1.018" rx="1.018" ry="1.018" transform="translate(51.909 510.969) rotate(-180)"/><ellipse class="h" cx="1.018" cy="1.018" rx="1.018" ry="1.018" transform="translate(46.818 510.969) rotate(-180)"/><ellipse class="h" cx="1.018" cy="1.018" rx="1.018" ry="1.018" transform="translate(67.069 510.969) rotate(-180)"/><ellipse class="h" cx="1.018" cy="1.018" rx="1.018" ry="1.018" transform="translate(61.978 510.969) rotate(-180)"/><ellipse class="h" cx="1.018" cy="1.018" rx="1.018" ry="1.018" transform="translate(77.233 510.969) rotate(-180)"/><ellipse class="h" cx="1.018" cy="1.018" rx="1.018" ry="1.018" transform="translate(72.141 510.969) rotate(-180)"/><ellipse class="h" cx="1.018" cy="1.018" rx="1.018" ry="1.018" transform="translate(57.001 520.134) rotate(-180)"/><ellipse class="h" cx="1.018" cy="1.018" rx="1.018" ry="1.018" transform="translate(51.909 520.134) rotate(-180)"/><ellipse class="h" cx="1.018" cy="1.018" rx="1.018" ry="1.018" transform="translate(46.818 520.134) rotate(-180)"/><ellipse class="h" cx="1.018" cy="1.018" rx="1.018" ry="1.018" transform="translate(57.001 515.552) rotate(-180)"/><ellipse class="h" cx="1.018" cy="1.018" rx="1.018" ry="1.018" transform="translate(51.909 515.552) rotate(-180)"/><ellipse class="h" cx="1.018" cy="1.018" rx="1.018" ry="1.018" transform="translate(46.818 515.552) rotate(-180)"/><ellipse class="h" cx="1.018" cy="1.018" rx="1.018" ry="1.018" transform="translate(67.069 520.134) rotate(-180)"/><ellipse class="h" cx="1.018" cy="1.018" rx="1.018" ry="1.018" transform="translate(61.978 520.134) rotate(-180)"/><ellipse class="h" cx="1.018" cy="1.018" rx="1.018" ry="1.018" transform="translate(67.069 515.552) rotate(-180)"/><ellipse class="h" cx="1.018" cy="1.018" rx="1.018" ry="1.018" transform="translate(61.978 515.552) rotate(-180)"/><ellipse class="h" cx="1.018" cy="1.018" rx="1.018" ry="1.018" transform="translate(77.233 520.134) rotate(-180)"/><ellipse class="h" cx="1.018" cy="1.018" rx="1.018" ry="1.018" transform="translate(72.141 520.134) rotate(-180)"/><ellipse class="h" cx="1.018" cy="1.018" rx="1.018" ry="1.018" transform="translate(77.233 515.552) rotate(-180)"/><ellipse class="h" cx="1.018" cy="1.018" rx="1.018" ry="1.018" transform="translate(72.141 515.552) rotate(-180)"/></g><g transform="translate(-9.781 -418)"><ellipse class="h" cx="1.018" cy="1.018" rx="1.018" ry="1.018" transform="translate(57.001 506.387) rotate(-180)"/><ellipse class="h" cx="1.018" cy="1.018" rx="1.018" ry="1.018" transform="translate(51.909 506.387) rotate(-180)"/><ellipse class="h" cx="1.018" cy="1.018" rx="1.018" ry="1.018" transform="translate(46.818 506.387) rotate(-180)"/><ellipse class="h" cx="1.018" cy="1.018" rx="1.018" ry="1.018" transform="translate(57.001 501.804) rotate(-180)"/><ellipse class="h" cx="1.018" cy="1.018" rx="1.018" ry="1.018" transform="translate(51.909 501.804) rotate(-180)"/><ellipse class="h" cx="1.018" cy="1.018" rx="1.018" ry="1.018" transform="translate(46.818 501.804) rotate(-180)"/><ellipse class="h" cx="1.018" cy="1.018" rx="1.018" ry="1.018" transform="translate(57.001 497.222) rotate(-180)"/><ellipse class="h" cx="1.018" cy="1.018" rx="1.018" ry="1.018" transform="translate(51.909 497.222) rotate(-180)"/><ellipse class="h" cx="1.018" cy="1.018" rx="1.018" ry="1.018" transform="translate(46.818 497.222) rotate(-180)"/><ellipse class="h" cx="1.018" cy="1.018" rx="1.018" ry="1.018" transform="translate(57.001 492.64) rotate(-180)"/><ellipse class="h" cx="1.018" cy="1.018" rx="1.018" ry="1.018" transform="translate(51.909 492.64) rotate(-180)"/><ellipse class="h" cx="1.018" cy="1.018" rx="1.018" ry="1.018" transform="translate(46.818 492.64) rotate(-180)"/><ellipse class="h" cx="1.018" cy="1.018" rx="1.018" ry="1.018" transform="translate(57.001 488.057) rotate(-180)"/><ellipse class="h" cx="1.018" cy="1.018" rx="1.018" ry="1.018" transform="translate(51.909 488.057) rotate(-180)"/><ellipse class="h" cx="1.018" cy="1.018" rx="1.018" ry="1.018" transform="translate(46.818 488.057) rotate(-180)"/><ellipse class="h" cx="1.018" cy="1.018" rx="1.018" ry="1.018" transform="translate(57.001 483.475) rotate(-180)"/><ellipse class="h" cx="1.018" cy="1.018" rx="1.018" ry="1.018" transform="translate(51.909 483.475) rotate(-180)"/><ellipse class="h" cx="1.018" cy="1.018" rx="1.018" ry="1.018" transform="translate(46.818 483.475) rotate(-180)"/><ellipse class="h" cx="1.018" cy="1.018" rx="1.018" ry="1.018" transform="translate(67.069 506.387) rotate(-180)"/><ellipse class="h" cx="1.018" cy="1.018" rx="1.018" ry="1.018" transform="translate(61.978 506.387) rotate(-180)"/><ellipse class="h" cx="1.018" cy="1.018" rx="1.018" ry="1.018" transform="translate(67.069 501.804) rotate(-180)"/><ellipse class="h" cx="1.018" cy="1.018" rx="1.018" ry="1.018" transform="translate(61.978 501.804) rotate(-180)"/><ellipse class="h" cx="1.018" cy="1.018" rx="1.018" ry="1.018" transform="translate(67.069 497.222) rotate(-180)"/><ellipse class="h" cx="1.018" cy="1.018" rx="1.018" ry="1.018" transform="translate(61.978 497.222) rotate(-180)"/><ellipse class="h" cx="1.018" cy="1.018" rx="1.018" ry="1.018" transform="translate(67.069 492.64) rotate(-180)"/><ellipse class="h" cx="1.018" cy="1.018" rx="1.018" ry="1.018" transform="translate(61.978 492.64) rotate(-180)"/><ellipse class="h" cx="1.018" cy="1.018" rx="1.018" ry="1.018" transform="translate(67.069 488.057) rotate(-180)"/><ellipse class="h" cx="1.018" cy="1.018" rx="1.018" ry="1.018" transform="translate(61.978 488.057) rotate(-180)"/><ellipse class="h" cx="1.018" cy="1.018" rx="1.018" ry="1.018" transform="translate(67.069 483.475) rotate(-180)"/><ellipse class="h" cx="1.018" cy="1.018" rx="1.018" ry="1.018" transform="translate(61.978 483.475) rotate(-180)"/><ellipse class="h" cx="1.018" cy="1.018" rx="1.018" ry="1.018" transform="translate(77.233 506.387) rotate(-180)"/><ellipse class="h" cx="1.018" cy="1.018" rx="1.018" ry="1.018" transform="translate(72.142 506.387) rotate(-180)"/><ellipse class="h" cx="1.018" cy="1.018" rx="1.018" ry="1.018" transform="translate(77.233 501.804) rotate(-180)"/><ellipse class="h" cx="1.018" cy="1.018" rx="1.018" ry="1.018" transform="translate(72.142 501.804) rotate(-180)"/><ellipse class="h" cx="1.018" cy="1.018" rx="1.018" ry="1.018" transform="translate(77.233 497.222) rotate(-180)"/><ellipse class="h" cx="1.018" cy="1.018" rx="1.018" ry="1.018" transform="translate(72.142 497.222) rotate(-180)"/><ellipse class="h" cx="1.018" cy="1.018" rx="1.018" ry="1.018" transform="translate(77.233 492.64) rotate(-180)"/><ellipse class="h" cx="1.018" cy="1.018" rx="1.018" ry="1.018" transform="translate(72.142 492.64) rotate(-180)"/><ellipse class="h" cx="1.018" cy="1.018" rx="1.018" ry="1.018" transform="translate(77.233 488.057) rotate(-180)"/><ellipse class="h" cx="1.018" cy="1.018" rx="1.018" ry="1.018" transform="translate(72.142 488.057) rotate(-180)"/><ellipse class="h" cx="1.018" cy="1.018" rx="1.018" ry="1.018" transform="translate(77.233 483.475) rotate(-180)"/><ellipse class="h" cx="1.018" cy="1.018" rx="1.018" ry="1.018" transform="translate(72.142 483.475) rotate(-180)"/><ellipse class="h" cx="1.018" cy="1.018" rx="1.018" ry="1.018" transform="translate(57.001 479.25) rotate(-180)"/><ellipse class="h" cx="1.018" cy="1.018" rx="1.018" ry="1.018" transform="translate(51.909 479.25) rotate(-180)"/><ellipse class="h" cx="1.018" cy="1.018" rx="1.018" ry="1.018" transform="translate(46.818 479.25) rotate(-180)"/><ellipse class="h" cx="1.018" cy="1.018" rx="1.018" ry="1.018" transform="translate(57.001 474.668) rotate(-180)"/><ellipse class="h" cx="1.018" cy="1.018" rx="1.018" ry="1.018" transform="translate(51.909 474.668) rotate(-180)"/><ellipse class="h" cx="1.018" cy="1.018" rx="1.018" ry="1.018" transform="translate(46.818 474.668) rotate(-180)"/><ellipse class="h" cx="1.018" cy="1.018" rx="1.018" ry="1.018" transform="translate(57.001 470.085) rotate(-180)"/><ellipse class="h" cx="1.018" cy="1.018" rx="1.018" ry="1.018" transform="translate(51.909 470.085) rotate(-180)"/><ellipse class="h" cx="1.018" cy="1.018" rx="1.018" ry="1.018" transform="translate(46.818 470.085) rotate(-180)"/><ellipse class="h" cx="1.018" cy="1.018" rx="1.018" ry="1.018" transform="translate(57.001 465.503) rotate(-180)"/><ellipse class="h" cx="1.018" cy="1.018" rx="1.018" ry="1.018" transform="translate(51.909 465.503) rotate(-180)"/><ellipse class="h" cx="1.018" cy="1.018" rx="1.018" ry="1.018" transform="translate(46.818 465.503) rotate(-180)"/><ellipse class="h" cx="1.018" cy="1.018" rx="1.018" ry="1.018" transform="translate(57.001 460.92) rotate(-180)"/><ellipse class="h" cx="1.018" cy="1.018" rx="1.018" ry="1.018" transform="translate(51.909 460.92) rotate(-180)"/><ellipse class="h" cx="1.018" cy="1.018" rx="1.018" ry="1.018" transform="translate(46.818 460.92) rotate(-180)"/><ellipse class="h" cx="1.018" cy="1.018" rx="1.018" ry="1.018" transform="translate(57.001 456.338) rotate(-180)"/><ellipse class="h" cx="1.018" cy="1.018" rx="1.018" ry="1.018" transform="translate(51.909 456.338) rotate(-180)"/><ellipse class="h" cx="1.018" cy="1.018" rx="1.018" ry="1.018" transform="translate(46.818 456.338) rotate(-180)"/><ellipse class="h" cx="1.018" cy="1.018" rx="1.018" ry="1.018" transform="translate(57.001 451.756) rotate(-180)"/><ellipse class="h" cx="1.018" cy="1.018" rx="1.018" ry="1.018" transform="translate(51.909 451.756) rotate(-180)"/><ellipse class="h" cx="1.018" cy="1.018" rx="1.018" ry="1.018" transform="translate(46.818 451.756) rotate(-180)"/><ellipse class="h" cx="1.018" cy="1.018" rx="1.018" ry="1.018" transform="translate(57.001 447.173) rotate(-180)"/><ellipse class="h" cx="1.018" cy="1.018" rx="1.018" ry="1.018" transform="translate(51.909 447.173) rotate(-180)"/><ellipse class="h" cx="1.018" cy="1.018" rx="1.018" ry="1.018" transform="translate(46.818 447.173) rotate(-180)"/><ellipse class="h" cx="1.018" cy="1.018" rx="1.018" ry="1.018" transform="translate(57.001 442.591) rotate(-180)"/><ellipse class="h" cx="1.018" cy="1.018" rx="1.018" ry="1.018" transform="translate(51.909 442.591) rotate(-180)"/><ellipse class="h" cx="1.018" cy="1.018" rx="1.018" ry="1.018" transform="translate(46.818 442.591) rotate(-180)"/><ellipse class="h" cx="1.018" cy="1.018" rx="1.018" ry="1.018" transform="translate(67.069 479.25) rotate(-180)"/><ellipse class="h" cx="1.018" cy="1.018" rx="1.018" ry="1.018" transform="translate(61.978 479.25) rotate(-180)"/><ellipse class="h" cx="1.018" cy="1.018" rx="1.018" ry="1.018" transform="translate(67.069 474.668) rotate(-180)"/><ellipse class="h" cx="1.018" cy="1.018" rx="1.018" ry="1.018" transform="translate(61.978 474.668) rotate(-180)"/><ellipse class="h" cx="1.018" cy="1.018" rx="1.018" ry="1.018" transform="translate(67.069 470.085) rotate(-180)"/><ellipse class="h" cx="1.018" cy="1.018" rx="1.018" ry="1.018" transform="translate(61.978 470.085) rotate(-180)"/><ellipse class="h" cx="1.018" cy="1.018" rx="1.018" ry="1.018" transform="translate(67.069 465.503) rotate(-180)"/><ellipse class="h" cx="1.018" cy="1.018" rx="1.018" ry="1.018" transform="translate(61.978 465.503) rotate(-180)"/><ellipse class="h" cx="1.018" cy="1.018" rx="1.018" ry="1.018" transform="translate(67.069 460.92) rotate(-180)"/><ellipse class="h" cx="1.018" cy="1.018" rx="1.018" ry="1.018" transform="translate(61.978 460.92) rotate(-180)"/><ellipse class="h" cx="1.018" cy="1.018" rx="1.018" ry="1.018" transform="translate(67.069 456.338) rotate(-180)"/><ellipse class="h" cx="1.018" cy="1.018" rx="1.018" ry="1.018" transform="translate(61.978 456.338) rotate(-180)"/><ellipse class="h" cx="1.018" cy="1.018" rx="1.018" ry="1.018" transform="translate(67.069 451.756) rotate(-180)"/><ellipse class="h" cx="1.018" cy="1.018" rx="1.018" ry="1.018" transform="translate(61.978 451.756) rotate(-180)"/><ellipse class="h" cx="1.018" cy="1.018" rx="1.018" ry="1.018" transform="translate(67.069 447.173) rotate(-180)"/><ellipse class="h" cx="1.018" cy="1.018" rx="1.018" ry="1.018" transform="translate(61.978 447.173) rotate(-180)"/><ellipse class="h" cx="1.018" cy="1.018" rx="1.018" ry="1.018" transform="translate(67.069 442.591) rotate(-180)"/><ellipse class="h" cx="1.018" cy="1.018" rx="1.018" ry="1.018" transform="translate(61.978 442.591) rotate(-180)"/><ellipse class="h" cx="1.018" cy="1.018" rx="1.018" ry="1.018" transform="translate(77.233 479.25) rotate(-180)"/><ellipse class="h" cx="1.018" cy="1.018" rx="1.018" ry="1.018" transform="translate(72.142 479.25) rotate(-180)"/><ellipse class="h" cx="1.018" cy="1.018" rx="1.018" ry="1.018" transform="translate(77.233 474.668) rotate(-180)"/><ellipse class="h" cx="1.018" cy="1.018" rx="1.018" ry="1.018" transform="translate(72.142 474.668) rotate(-180)"/><ellipse class="h" cx="1.018" cy="1.018" rx="1.018" ry="1.018" transform="translate(77.233 470.085) rotate(-180)"/><ellipse class="h" cx="1.018" cy="1.018" rx="1.018" ry="1.018" transform="translate(72.142 470.085) rotate(-180)"/><ellipse class="h" cx="1.018" cy="1.018" rx="1.018" ry="1.018" transform="translate(77.233 465.503) rotate(-180)"/><ellipse class="h" cx="1.018" cy="1.018" rx="1.018" ry="1.018" transform="translate(72.142 465.503) rotate(-180)"/><ellipse class="h" cx="1.018" cy="1.018" rx="1.018" ry="1.018" transform="translate(77.233 460.92) rotate(-180)"/><ellipse class="h" cx="1.018" cy="1.018" rx="1.018" ry="1.018" transform="translate(72.142 460.92) rotate(-180)"/><ellipse class="h" cx="1.018" cy="1.018" rx="1.018" ry="1.018" transform="translate(77.233 456.338) rotate(-180)"/><ellipse class="h" cx="1.018" cy="1.018" rx="1.018" ry="1.018" transform="translate(72.142 456.338) rotate(-180)"/><ellipse class="h" cx="1.018" cy="1.018" rx="1.018" ry="1.018" transform="translate(77.233 451.756) rotate(-180)"/><ellipse class="h" cx="1.018" cy="1.018" rx="1.018" ry="1.018" transform="translate(72.142 451.756) rotate(-180)"/><ellipse class="h" cx="1.018" cy="1.018" rx="1.018" ry="1.018" transform="translate(77.233 447.173) rotate(-180)"/><ellipse class="h" cx="1.018" cy="1.018" rx="1.018" ry="1.018" transform="translate(72.142 447.173) rotate(-180)"/><ellipse class="h" cx="1.018" cy="1.018" rx="1.018" ry="1.018" transform="translate(77.233 442.591) rotate(-180)"/><ellipse class="h" cx="1.018" cy="1.018" rx="1.018" ry="1.018" transform="translate(72.142 442.591) rotate(-180)"/><ellipse class="h" cx="1.018" cy="1.018" rx="1.018" ry="1.018" transform="translate(57.001 438.366) rotate(-180)"/><ellipse class="h" cx="1.018" cy="1.018" rx="1.018" ry="1.018" transform="translate(51.909 438.366) rotate(-180)"/><ellipse class="h" cx="1.018" cy="1.018" rx="1.018" ry="1.018" transform="translate(46.818 438.366) rotate(-180)"/><ellipse class="h" cx="1.018" cy="1.018" rx="1.018" ry="1.018" transform="translate(57.001 433.784) rotate(-180)"/><ellipse class="h" cx="1.018" cy="1.018" rx="1.018" ry="1.018" transform="translate(51.909 433.784) rotate(-180)"/><ellipse class="h" cx="1.018" cy="1.018" rx="1.018" ry="1.018" transform="translate(46.818 433.784) rotate(-180)"/><ellipse class="h" cx="1.018" cy="1.018" rx="1.018" ry="1.018" transform="translate(57.001 429.201) rotate(-180)"/><ellipse class="h" cx="1.018" cy="1.018" rx="1.018" ry="1.018" transform="translate(51.909 429.201) rotate(-180)"/><ellipse class="h" cx="1.018" cy="1.018" rx="1.018" ry="1.018" transform="translate(46.818 429.201) rotate(-180)"/><ellipse class="h" cx="1.018" cy="1.018" rx="1.018" ry="1.018" transform="translate(57.001 424.619) rotate(-180)"/><ellipse class="h" cx="1.018" cy="1.018" rx="1.018" ry="1.018" transform="translate(51.909 424.619) rotate(-180)"/><ellipse class="h" cx="1.018" cy="1.018" rx="1.018" ry="1.018" transform="translate(46.818 424.619) rotate(-180)"/><ellipse class="h" cx="1.018" cy="1.018" rx="1.018" ry="1.018" transform="translate(57.001 420.037) rotate(-180)"/><ellipse class="h" cx="1.018" cy="1.018" rx="1.018" ry="1.018" transform="translate(51.909 420.037) rotate(-180)"/><ellipse class="h" cx="1.018" cy="1.018" rx="1.018" ry="1.018" transform="translate(46.818 420.037) rotate(-180)"/><ellipse class="h" cx="1.018" cy="1.018" rx="1.018" ry="1.018" transform="translate(67.069 438.366) rotate(-180)"/><ellipse class="h" cx="1.018" cy="1.018" rx="1.018" ry="1.018" transform="translate(61.978 438.366) rotate(-180)"/><ellipse class="h" cx="1.018" cy="1.018" rx="1.018" ry="1.018" transform="translate(67.069 433.784) rotate(-180)"/><ellipse class="h" cx="1.018" cy="1.018" rx="1.018" ry="1.018" transform="translate(61.978 433.784) rotate(-180)"/><ellipse class="h" cx="1.018" cy="1.018" rx="1.018" ry="1.018" transform="translate(67.069 429.201) rotate(-180)"/><ellipse class="h" cx="1.018" cy="1.018" rx="1.018" ry="1.018" transform="translate(61.978 429.201) rotate(-180)"/><ellipse class="h" cx="1.018" cy="1.018" rx="1.018" ry="1.018" transform="translate(67.069 424.619) rotate(-180)"/><ellipse class="h" cx="1.018" cy="1.018" rx="1.018" ry="1.018" transform="translate(61.978 424.619) rotate(-180)"/><ellipse class="h" cx="1.018" cy="1.018" rx="1.018" ry="1.018" transform="translate(67.069 420.037) rotate(-180)"/><ellipse class="h" cx="1.018" cy="1.018" rx="1.018" ry="1.018" transform="translate(61.978 420.037) rotate(-180)"/><ellipse class="h" cx="1.018" cy="1.018" rx="1.018" ry="1.018" transform="translate(77.233 438.366) rotate(-180)"/><ellipse class="h" cx="1.018" cy="1.018" rx="1.018" ry="1.018" transform="translate(72.142 438.366) rotate(-180)"/><ellipse class="h" cx="1.018" cy="1.018" rx="1.018" ry="1.018" transform="translate(77.233 433.784) rotate(-180)"/><ellipse class="h" cx="1.018" cy="1.018" rx="1.018" ry="1.018" transform="translate(72.142 433.784) rotate(-180)"/><ellipse class="h" cx="1.018" cy="1.018" rx="1.018" ry="1.018" transform="translate(77.233 429.201) rotate(-180)"/><ellipse class="h" cx="1.018" cy="1.018" rx="1.018" ry="1.018" transform="translate(72.142 429.201) rotate(-180)"/><ellipse class="h" cx="1.018" cy="1.018" rx="1.018" ry="1.018" transform="translate(77.233 424.619) rotate(-180)"/><ellipse class="h" cx="1.018" cy="1.018" rx="1.018" ry="1.018" transform="translate(72.142 424.619) rotate(-180)"/><ellipse class="h" cx="1.018" cy="1.018" rx="1.018" ry="1.018" transform="translate(77.233 420.037) rotate(-180)"/><ellipse class="h" cx="1.018" cy="1.018" rx="1.018" ry="1.018" transform="translate(72.142 420.037) rotate(-180)"/><ellipse class="h" cx="1.018" cy="1.018" rx="1.018" ry="1.018" transform="translate(57.001 510.969) rotate(-180)"/><ellipse class="h" cx="1.018" cy="1.018" rx="1.018" ry="1.018" transform="translate(51.909 510.969) rotate(-180)"/><ellipse class="h" cx="1.018" cy="1.018" rx="1.018" ry="1.018" transform="translate(46.818 510.969) rotate(-180)"/><ellipse class="h" cx="1.018" cy="1.018" rx="1.018" ry="1.018" transform="translate(67.069 510.969) rotate(-180)"/><ellipse class="h" cx="1.018" cy="1.018" rx="1.018" ry="1.018" transform="translate(61.978 510.969) rotate(-180)"/><ellipse class="h" cx="1.018" cy="1.018" rx="1.018" ry="1.018" transform="translate(77.233 510.969) rotate(-180)"/><ellipse class="h" cx="1.018" cy="1.018" rx="1.018" ry="1.018" transform="translate(72.141 510.969) rotate(-180)"/><ellipse class="h" cx="1.018" cy="1.018" rx="1.018" ry="1.018" transform="translate(57.001 520.134) rotate(-180)"/><ellipse class="h" cx="1.018" cy="1.018" rx="1.018" ry="1.018" transform="translate(51.909 520.134) rotate(-180)"/><ellipse class="h" cx="1.018" cy="1.018" rx="1.018" ry="1.018" transform="translate(46.818 520.134) rotate(-180)"/><ellipse class="h" cx="1.018" cy="1.018" rx="1.018" ry="1.018" transform="translate(57.001 515.552) rotate(-180)"/><ellipse class="h" cx="1.018" cy="1.018" rx="1.018" ry="1.018" transform="translate(51.909 515.552) rotate(-180)"/><ellipse class="h" cx="1.018" cy="1.018" rx="1.018" ry="1.018" transform="translate(46.818 515.552) rotate(-180)"/><ellipse class="h" cx="1.018" cy="1.018" rx="1.018" ry="1.018" transform="translate(67.069 520.134) rotate(-180)"/><ellipse class="h" cx="1.018" cy="1.018" rx="1.018" ry="1.018" transform="translate(61.978 520.134) rotate(-180)"/><ellipse class="h" cx="1.018" cy="1.018" rx="1.018" ry="1.018" transform="translate(67.069 515.552) rotate(-180)"/><ellipse class="h" cx="1.018" cy="1.018" rx="1.018" ry="1.018" transform="translate(61.978 515.552) rotate(-180)"/><ellipse class="h" cx="1.018" cy="1.018" rx="1.018" ry="1.018" transform="translate(77.233 520.134) rotate(-180)"/><ellipse class="h" cx="1.018" cy="1.018" rx="1.018" ry="1.018" transform="translate(72.141 520.134) rotate(-180)"/><ellipse class="h" cx="1.018" cy="1.018" rx="1.018" ry="1.018" transform="translate(77.233 515.552) rotate(-180)"/><ellipse class="h" cx="1.018" cy="1.018" rx="1.018" ry="1.018" transform="translate(72.141 515.552) rotate(-180)"/></g><g transform="translate(25.219 -418)"><ellipse class="h" cx="1.018" cy="1.018" rx="1.018" ry="1.018" transform="translate(57.001 506.387) rotate(-180)"/><ellipse class="h" cx="1.018" cy="1.018" rx="1.018" ry="1.018" transform="translate(51.909 506.387) rotate(-180)"/><ellipse class="h" cx="1.018" cy="1.018" rx="1.018" ry="1.018" transform="translate(46.818 506.387) rotate(-180)"/><ellipse class="h" cx="1.018" cy="1.018" rx="1.018" ry="1.018" transform="translate(57.001 501.804) rotate(-180)"/><ellipse class="h" cx="1.018" cy="1.018" rx="1.018" ry="1.018" transform="translate(51.909 501.804) rotate(-180)"/><ellipse class="h" cx="1.018" cy="1.018" rx="1.018" ry="1.018" transform="translate(46.818 501.804) rotate(-180)"/><ellipse class="h" cx="1.018" cy="1.018" rx="1.018" ry="1.018" transform="translate(57.001 497.222) rotate(-180)"/><ellipse class="h" cx="1.018" cy="1.018" rx="1.018" ry="1.018" transform="translate(51.909 497.222) rotate(-180)"/><ellipse class="h" cx="1.018" cy="1.018" rx="1.018" ry="1.018" transform="translate(46.818 497.222) rotate(-180)"/><ellipse class="h" cx="1.018" cy="1.018" rx="1.018" ry="1.018" transform="translate(57.001 492.64) rotate(-180)"/><ellipse class="h" cx="1.018" cy="1.018" rx="1.018" ry="1.018" transform="translate(51.909 492.64) rotate(-180)"/><ellipse class="h" cx="1.018" cy="1.018" rx="1.018" ry="1.018" transform="translate(46.818 492.64) rotate(-180)"/><ellipse class="h" cx="1.018" cy="1.018" rx="1.018" ry="1.018" transform="translate(57.001 488.057) rotate(-180)"/><ellipse class="h" cx="1.018" cy="1.018" rx="1.018" ry="1.018" transform="translate(51.909 488.057) rotate(-180)"/><ellipse class="h" cx="1.018" cy="1.018" rx="1.018" ry="1.018" transform="translate(46.818 488.057) rotate(-180)"/><ellipse class="h" cx="1.018" cy="1.018" rx="1.018" ry="1.018" transform="translate(57.001 483.475) rotate(-180)"/><ellipse class="h" cx="1.018" cy="1.018" rx="1.018" ry="1.018" transform="translate(51.909 483.475) rotate(-180)"/><ellipse class="h" cx="1.018" cy="1.018" rx="1.018" ry="1.018" transform="translate(46.818 483.475) rotate(-180)"/><ellipse class="h" cx="1.018" cy="1.018" rx="1.018" ry="1.018" transform="translate(67.069 506.387) rotate(-180)"/><ellipse class="h" cx="1.018" cy="1.018" rx="1.018" ry="1.018" transform="translate(61.978 506.387) rotate(-180)"/><ellipse class="h" cx="1.018" cy="1.018" rx="1.018" ry="1.018" transform="translate(67.069 501.804) rotate(-180)"/><ellipse class="h" cx="1.018" cy="1.018" rx="1.018" ry="1.018" transform="translate(61.978 501.804) rotate(-180)"/><ellipse class="h" cx="1.018" cy="1.018" rx="1.018" ry="1.018" transform="translate(67.069 497.222) rotate(-180)"/><ellipse class="h" cx="1.018" cy="1.018" rx="1.018" ry="1.018" transform="translate(61.978 497.222) rotate(-180)"/><ellipse class="h" cx="1.018" cy="1.018" rx="1.018" ry="1.018" transform="translate(67.069 492.64) rotate(-180)"/><ellipse class="h" cx="1.018" cy="1.018" rx="1.018" ry="1.018" transform="translate(61.978 492.64) rotate(-180)"/><ellipse class="h" cx="1.018" cy="1.018" rx="1.018" ry="1.018" transform="translate(67.069 488.057) rotate(-180)"/><ellipse class="h" cx="1.018" cy="1.018" rx="1.018" ry="1.018" transform="translate(61.978 488.057) rotate(-180)"/><ellipse class="h" cx="1.018" cy="1.018" rx="1.018" ry="1.018" transform="translate(67.069 483.475) rotate(-180)"/><ellipse class="h" cx="1.018" cy="1.018" rx="1.018" ry="1.018" transform="translate(61.978 483.475) rotate(-180)"/><ellipse class="h" cx="1.018" cy="1.018" rx="1.018" ry="1.018" transform="translate(77.233 506.387) rotate(-180)"/><ellipse class="h" cx="1.018" cy="1.018" rx="1.018" ry="1.018" transform="translate(72.142 506.387) rotate(-180)"/><ellipse class="h" cx="1.018" cy="1.018" rx="1.018" ry="1.018" transform="translate(77.233 501.804) rotate(-180)"/><ellipse class="h" cx="1.018" cy="1.018" rx="1.018" ry="1.018" transform="translate(72.142 501.804) rotate(-180)"/><ellipse class="h" cx="1.018" cy="1.018" rx="1.018" ry="1.018" transform="translate(77.233 497.222) rotate(-180)"/><ellipse class="h" cx="1.018" cy="1.018" rx="1.018" ry="1.018" transform="translate(72.142 497.222) rotate(-180)"/><ellipse class="h" cx="1.018" cy="1.018" rx="1.018" ry="1.018" transform="translate(77.233 492.64) rotate(-180)"/><ellipse class="h" cx="1.018" cy="1.018" rx="1.018" ry="1.018" transform="translate(72.142 492.64) rotate(-180)"/><ellipse class="h" cx="1.018" cy="1.018" rx="1.018" ry="1.018" transform="translate(77.233 488.057) rotate(-180)"/><ellipse class="h" cx="1.018" cy="1.018" rx="1.018" ry="1.018" transform="translate(72.142 488.057) rotate(-180)"/><ellipse class="h" cx="1.018" cy="1.018" rx="1.018" ry="1.018" transform="translate(77.233 483.475) rotate(-180)"/><ellipse class="h" cx="1.018" cy="1.018" rx="1.018" ry="1.018" transform="translate(72.142 483.475) rotate(-180)"/><ellipse class="h" cx="1.018" cy="1.018" rx="1.018" ry="1.018" transform="translate(57.001 479.25) rotate(-180)"/><ellipse class="h" cx="1.018" cy="1.018" rx="1.018" ry="1.018" transform="translate(51.909 479.25) rotate(-180)"/><ellipse class="h" cx="1.018" cy="1.018" rx="1.018" ry="1.018" transform="translate(46.818 479.25) rotate(-180)"/><ellipse class="h" cx="1.018" cy="1.018" rx="1.018" ry="1.018" transform="translate(57.001 474.668) rotate(-180)"/><ellipse class="h" cx="1.018" cy="1.018" rx="1.018" ry="1.018" transform="translate(51.909 474.668) rotate(-180)"/><ellipse class="h" cx="1.018" cy="1.018" rx="1.018" ry="1.018" transform="translate(46.818 474.668) rotate(-180)"/><ellipse class="h" cx="1.018" cy="1.018" rx="1.018" ry="1.018" transform="translate(57.001 470.085) rotate(-180)"/><ellipse class="h" cx="1.018" cy="1.018" rx="1.018" ry="1.018" transform="translate(51.909 470.085) rotate(-180)"/><ellipse class="h" cx="1.018" cy="1.018" rx="1.018" ry="1.018" transform="translate(46.818 470.085) rotate(-180)"/><ellipse class="h" cx="1.018" cy="1.018" rx="1.018" ry="1.018" transform="translate(57.001 465.503) rotate(-180)"/><ellipse class="h" cx="1.018" cy="1.018" rx="1.018" ry="1.018" transform="translate(51.909 465.503) rotate(-180)"/><ellipse class="h" cx="1.018" cy="1.018" rx="1.018" ry="1.018" transform="translate(46.818 465.503) rotate(-180)"/><ellipse class="h" cx="1.018" cy="1.018" rx="1.018" ry="1.018" transform="translate(57.001 460.92) rotate(-180)"/><ellipse class="h" cx="1.018" cy="1.018" rx="1.018" ry="1.018" transform="translate(51.909 460.92) rotate(-180)"/><ellipse class="h" cx="1.018" cy="1.018" rx="1.018" ry="1.018" transform="translate(46.818 460.92) rotate(-180)"/><ellipse class="h" cx="1.018" cy="1.018" rx="1.018" ry="1.018" transform="translate(57.001 456.338) rotate(-180)"/><ellipse class="h" cx="1.018" cy="1.018" rx="1.018" ry="1.018" transform="translate(51.909 456.338) rotate(-180)"/><ellipse class="h" cx="1.018" cy="1.018" rx="1.018" ry="1.018" transform="translate(46.818 456.338) rotate(-180)"/><ellipse class="h" cx="1.018" cy="1.018" rx="1.018" ry="1.018" transform="translate(57.001 451.756) rotate(-180)"/><ellipse class="h" cx="1.018" cy="1.018" rx="1.018" ry="1.018" transform="translate(51.909 451.756) rotate(-180)"/><ellipse class="h" cx="1.018" cy="1.018" rx="1.018" ry="1.018" transform="translate(46.818 451.756) rotate(-180)"/><ellipse class="h" cx="1.018" cy="1.018" rx="1.018" ry="1.018" transform="translate(57.001 447.173) rotate(-180)"/><ellipse class="h" cx="1.018" cy="1.018" rx="1.018" ry="1.018" transform="translate(51.909 447.173) rotate(-180)"/><ellipse class="h" cx="1.018" cy="1.018" rx="1.018" ry="1.018" transform="translate(46.818 447.173) rotate(-180)"/><ellipse class="h" cx="1.018" cy="1.018" rx="1.018" ry="1.018" transform="translate(57.001 442.591) rotate(-180)"/><ellipse class="h" cx="1.018" cy="1.018" rx="1.018" ry="1.018" transform="translate(51.909 442.591) rotate(-180)"/><ellipse class="h" cx="1.018" cy="1.018" rx="1.018" ry="1.018" transform="translate(46.818 442.591) rotate(-180)"/><ellipse class="h" cx="1.018" cy="1.018" rx="1.018" ry="1.018" transform="translate(67.069 479.25) rotate(-180)"/><ellipse class="h" cx="1.018" cy="1.018" rx="1.018" ry="1.018" transform="translate(61.978 479.25) rotate(-180)"/><ellipse class="h" cx="1.018" cy="1.018" rx="1.018" ry="1.018" transform="translate(67.069 474.668) rotate(-180)"/><ellipse class="h" cx="1.018" cy="1.018" rx="1.018" ry="1.018" transform="translate(61.978 474.668) rotate(-180)"/><ellipse class="h" cx="1.018" cy="1.018" rx="1.018" ry="1.018" transform="translate(67.069 470.085) rotate(-180)"/><ellipse class="h" cx="1.018" cy="1.018" rx="1.018" ry="1.018" transform="translate(61.978 470.085) rotate(-180)"/><ellipse class="h" cx="1.018" cy="1.018" rx="1.018" ry="1.018" transform="translate(67.069 465.503) rotate(-180)"/><ellipse class="h" cx="1.018" cy="1.018" rx="1.018" ry="1.018" transform="translate(61.978 465.503) rotate(-180)"/><ellipse class="h" cx="1.018" cy="1.018" rx="1.018" ry="1.018" transform="translate(67.069 460.92) rotate(-180)"/><ellipse class="h" cx="1.018" cy="1.018" rx="1.018" ry="1.018" transform="translate(61.978 460.92) rotate(-180)"/><ellipse class="h" cx="1.018" cy="1.018" rx="1.018" ry="1.018" transform="translate(67.069 456.338) rotate(-180)"/><ellipse class="h" cx="1.018" cy="1.018" rx="1.018" ry="1.018" transform="translate(61.978 456.338) rotate(-180)"/><ellipse class="h" cx="1.018" cy="1.018" rx="1.018" ry="1.018" transform="translate(67.069 451.756) rotate(-180)"/><ellipse class="h" cx="1.018" cy="1.018" rx="1.018" ry="1.018" transform="translate(61.978 451.756) rotate(-180)"/><ellipse class="h" cx="1.018" cy="1.018" rx="1.018" ry="1.018" transform="translate(67.069 447.173) rotate(-180)"/><ellipse class="h" cx="1.018" cy="1.018" rx="1.018" ry="1.018" transform="translate(61.978 447.173) rotate(-180)"/><ellipse class="h" cx="1.018" cy="1.018" rx="1.018" ry="1.018" transform="translate(67.069 442.591) rotate(-180)"/><ellipse class="h" cx="1.018" cy="1.018" rx="1.018" ry="1.018" transform="translate(61.978 442.591) rotate(-180)"/><ellipse class="h" cx="1.018" cy="1.018" rx="1.018" ry="1.018" transform="translate(77.233 479.25) rotate(-180)"/><ellipse class="h" cx="1.018" cy="1.018" rx="1.018" ry="1.018" transform="translate(72.142 479.25) rotate(-180)"/><ellipse class="h" cx="1.018" cy="1.018" rx="1.018" ry="1.018" transform="translate(77.233 474.668) rotate(-180)"/><ellipse class="h" cx="1.018" cy="1.018" rx="1.018" ry="1.018" transform="translate(72.142 474.668) rotate(-180)"/><ellipse class="h" cx="1.018" cy="1.018" rx="1.018" ry="1.018" transform="translate(77.233 470.085) rotate(-180)"/><ellipse class="h" cx="1.018" cy="1.018" rx="1.018" ry="1.018" transform="translate(72.142 470.085) rotate(-180)"/><ellipse class="h" cx="1.018" cy="1.018" rx="1.018" ry="1.018" transform="translate(77.233 465.503) rotate(-180)"/><ellipse class="h" cx="1.018" cy="1.018" rx="1.018" ry="1.018" transform="translate(72.142 465.503) rotate(-180)"/><ellipse class="h" cx="1.018" cy="1.018" rx="1.018" ry="1.018" transform="translate(77.233 460.92) rotate(-180)"/><ellipse class="h" cx="1.018" cy="1.018" rx="1.018" ry="1.018" transform="translate(72.142 460.92) rotate(-180)"/><ellipse class="h" cx="1.018" cy="1.018" rx="1.018" ry="1.018" transform="translate(77.233 456.338) rotate(-180)"/><ellipse class="h" cx="1.018" cy="1.018" rx="1.018" ry="1.018" transform="translate(72.142 456.338) rotate(-180)"/><ellipse class="h" cx="1.018" cy="1.018" rx="1.018" ry="1.018" transform="translate(77.233 451.756) rotate(-180)"/><ellipse class="h" cx="1.018" cy="1.018" rx="1.018" ry="1.018" transform="translate(72.142 451.756) rotate(-180)"/><ellipse class="h" cx="1.018" cy="1.018" rx="1.018" ry="1.018" transform="translate(77.233 447.173) rotate(-180)"/><ellipse class="h" cx="1.018" cy="1.018" rx="1.018" ry="1.018" transform="translate(72.142 447.173) rotate(-180)"/><ellipse class="h" cx="1.018" cy="1.018" rx="1.018" ry="1.018" transform="translate(77.233 442.591) rotate(-180)"/><ellipse class="h" cx="1.018" cy="1.018" rx="1.018" ry="1.018" transform="translate(72.142 442.591) rotate(-180)"/><ellipse class="h" cx="1.018" cy="1.018" rx="1.018" ry="1.018" transform="translate(57.001 438.366) rotate(-180)"/><ellipse class="h" cx="1.018" cy="1.018" rx="1.018" ry="1.018" transform="translate(51.909 438.366) rotate(-180)"/><ellipse class="h" cx="1.018" cy="1.018" rx="1.018" ry="1.018" transform="translate(46.818 438.366) rotate(-180)"/><ellipse class="h" cx="1.018" cy="1.018" rx="1.018" ry="1.018" transform="translate(57.001 433.784) rotate(-180)"/><ellipse class="h" cx="1.018" cy="1.018" rx="1.018" ry="1.018" transform="translate(51.909 433.784) rotate(-180)"/><ellipse class="h" cx="1.018" cy="1.018" rx="1.018" ry="1.018" transform="translate(46.818 433.784) rotate(-180)"/><ellipse class="h" cx="1.018" cy="1.018" rx="1.018" ry="1.018" transform="translate(57.001 429.201) rotate(-180)"/><ellipse class="h" cx="1.018" cy="1.018" rx="1.018" ry="1.018" transform="translate(51.909 429.201) rotate(-180)"/><ellipse class="h" cx="1.018" cy="1.018" rx="1.018" ry="1.018" transform="translate(46.818 429.201) rotate(-180)"/><ellipse class="h" cx="1.018" cy="1.018" rx="1.018" ry="1.018" transform="translate(57.001 424.619) rotate(-180)"/><ellipse class="h" cx="1.018" cy="1.018" rx="1.018" ry="1.018" transform="translate(51.909 424.619) rotate(-180)"/><ellipse class="h" cx="1.018" cy="1.018" rx="1.018" ry="1.018" transform="translate(46.818 424.619) rotate(-180)"/><ellipse class="h" cx="1.018" cy="1.018" rx="1.018" ry="1.018" transform="translate(57.001 420.037) rotate(-180)"/><ellipse class="h" cx="1.018" cy="1.018" rx="1.018" ry="1.018" transform="translate(51.909 420.037) rotate(-180)"/><ellipse class="h" cx="1.018" cy="1.018" rx="1.018" ry="1.018" transform="translate(46.818 420.037) rotate(-180)"/><ellipse class="h" cx="1.018" cy="1.018" rx="1.018" ry="1.018" transform="translate(67.069 438.366) rotate(-180)"/><ellipse class="h" cx="1.018" cy="1.018" rx="1.018" ry="1.018" transform="translate(61.978 438.366) rotate(-180)"/><ellipse class="h" cx="1.018" cy="1.018" rx="1.018" ry="1.018" transform="translate(67.069 433.784) rotate(-180)"/><ellipse class="h" cx="1.018" cy="1.018" rx="1.018" ry="1.018" transform="translate(61.978 433.784) rotate(-180)"/><ellipse class="h" cx="1.018" cy="1.018" rx="1.018" ry="1.018" transform="translate(67.069 429.201) rotate(-180)"/><ellipse class="h" cx="1.018" cy="1.018" rx="1.018" ry="1.018" transform="translate(61.978 429.201) rotate(-180)"/><ellipse class="h" cx="1.018" cy="1.018" rx="1.018" ry="1.018" transform="translate(67.069 424.619) rotate(-180)"/><ellipse class="h" cx="1.018" cy="1.018" rx="1.018" ry="1.018" transform="translate(61.978 424.619) rotate(-180)"/><ellipse class="h" cx="1.018" cy="1.018" rx="1.018" ry="1.018" transform="translate(67.069 420.037) rotate(-180)"/><ellipse class="h" cx="1.018" cy="1.018" rx="1.018" ry="1.018" transform="translate(61.978 420.037) rotate(-180)"/><ellipse class="h" cx="1.018" cy="1.018" rx="1.018" ry="1.018" transform="translate(77.233 438.366) rotate(-180)"/><ellipse class="h" cx="1.018" cy="1.018" rx="1.018" ry="1.018" transform="translate(72.142 438.366) rotate(-180)"/><ellipse class="h" cx="1.018" cy="1.018" rx="1.018" ry="1.018" transform="translate(77.233 433.784) rotate(-180)"/><ellipse class="h" cx="1.018" cy="1.018" rx="1.018" ry="1.018" transform="translate(72.142 433.784) rotate(-180)"/><ellipse class="h" cx="1.018" cy="1.018" rx="1.018" ry="1.018" transform="translate(77.233 429.201) rotate(-180)"/><ellipse class="h" cx="1.018" cy="1.018" rx="1.018" ry="1.018" transform="translate(72.142 429.201) rotate(-180)"/><ellipse class="h" cx="1.018" cy="1.018" rx="1.018" ry="1.018" transform="translate(77.233 424.619) rotate(-180)"/><ellipse class="h" cx="1.018" cy="1.018" rx="1.018" ry="1.018" transform="translate(72.142 424.619) rotate(-180)"/><ellipse class="h" cx="1.018" cy="1.018" rx="1.018" ry="1.018" transform="translate(77.233 420.037) rotate(-180)"/><ellipse class="h" cx="1.018" cy="1.018" rx="1.018" ry="1.018" transform="translate(72.142 420.037) rotate(-180)"/><ellipse class="h" cx="1.018" cy="1.018" rx="1.018" ry="1.018" transform="translate(57.001 510.969) rotate(-180)"/><ellipse class="h" cx="1.018" cy="1.018" rx="1.018" ry="1.018" transform="translate(51.909 510.969) rotate(-180)"/><ellipse class="h" cx="1.018" cy="1.018" rx="1.018" ry="1.018" transform="translate(46.818 510.969) rotate(-180)"/><ellipse class="h" cx="1.018" cy="1.018" rx="1.018" ry="1.018" transform="translate(67.069 510.969) rotate(-180)"/><ellipse class="h" cx="1.018" cy="1.018" rx="1.018" ry="1.018" transform="translate(61.978 510.969) rotate(-180)"/><ellipse class="h" cx="1.018" cy="1.018" rx="1.018" ry="1.018" transform="translate(77.233 510.969) rotate(-180)"/><ellipse class="h" cx="1.018" cy="1.018" rx="1.018" ry="1.018" transform="translate(72.141 510.969) rotate(-180)"/><ellipse class="h" cx="1.018" cy="1.018" rx="1.018" ry="1.018" transform="translate(57.001 520.134) rotate(-180)"/><ellipse class="h" cx="1.018" cy="1.018" rx="1.018" ry="1.018" transform="translate(51.909 520.134) rotate(-180)"/><ellipse class="h" cx="1.018" cy="1.018" rx="1.018" ry="1.018" transform="translate(46.818 520.134) rotate(-180)"/><ellipse class="h" cx="1.018" cy="1.018" rx="1.018" ry="1.018" transform="translate(57.001 515.552) rotate(-180)"/><ellipse class="h" cx="1.018" cy="1.018" rx="1.018" ry="1.018" transform="translate(51.909 515.552) rotate(-180)"/><ellipse class="h" cx="1.018" cy="1.018" rx="1.018" ry="1.018" transform="translate(46.818 515.552) rotate(-180)"/><ellipse class="h" cx="1.018" cy="1.018" rx="1.018" ry="1.018" transform="translate(67.069 520.134) rotate(-180)"/><ellipse class="h" cx="1.018" cy="1.018" rx="1.018" ry="1.018" transform="translate(61.978 520.134) rotate(-180)"/><ellipse class="h" cx="1.018" cy="1.018" rx="1.018" ry="1.018" transform="translate(67.069 515.552) rotate(-180)"/><ellipse class="h" cx="1.018" cy="1.018" rx="1.018" ry="1.018" transform="translate(61.978 515.552) rotate(-180)"/><ellipse class="h" cx="1.018" cy="1.018" rx="1.018" ry="1.018" transform="translate(77.233 520.134) rotate(-180)"/><ellipse class="h" cx="1.018" cy="1.018" rx="1.018" ry="1.018" transform="translate(72.141 520.134) rotate(-180)"/><ellipse class="h" cx="1.018" cy="1.018" rx="1.018" ry="1.018" transform="translate(77.233 515.552) rotate(-180)"/><ellipse class="h" cx="1.018" cy="1.018" rx="1.018" ry="1.018" transform="translate(72.141 515.552) rotate(-180)"/></g><g transform="translate(60.219 -418)"><ellipse class="h" cx="1.018" cy="1.018" rx="1.018" ry="1.018" transform="translate(57.001 506.387) rotate(-180)"/><ellipse class="h" cx="1.018" cy="1.018" rx="1.018" ry="1.018" transform="translate(51.909 506.387) rotate(-180)"/><ellipse class="h" cx="1.018" cy="1.018" rx="1.018" ry="1.018" transform="translate(46.818 506.387) rotate(-180)"/><ellipse class="h" cx="1.018" cy="1.018" rx="1.018" ry="1.018" transform="translate(57.001 501.804) rotate(-180)"/><ellipse class="h" cx="1.018" cy="1.018" rx="1.018" ry="1.018" transform="translate(51.909 501.804) rotate(-180)"/><ellipse class="h" cx="1.018" cy="1.018" rx="1.018" ry="1.018" transform="translate(46.818 501.804) rotate(-180)"/><ellipse class="h" cx="1.018" cy="1.018" rx="1.018" ry="1.018" transform="translate(57.001 497.222) rotate(-180)"/><ellipse class="h" cx="1.018" cy="1.018" rx="1.018" ry="1.018" transform="translate(51.909 497.222) rotate(-180)"/><ellipse class="h" cx="1.018" cy="1.018" rx="1.018" ry="1.018" transform="translate(46.818 497.222) rotate(-180)"/><ellipse class="h" cx="1.018" cy="1.018" rx="1.018" ry="1.018" transform="translate(57.001 492.64) rotate(-180)"/><ellipse class="h" cx="1.018" cy="1.018" rx="1.018" ry="1.018" transform="translate(51.909 492.64) rotate(-180)"/><ellipse class="h" cx="1.018" cy="1.018" rx="1.018" ry="1.018" transform="translate(46.818 492.64) rotate(-180)"/><ellipse class="h" cx="1.018" cy="1.018" rx="1.018" ry="1.018" transform="translate(57.001 488.057) rotate(-180)"/><ellipse class="h" cx="1.018" cy="1.018" rx="1.018" ry="1.018" transform="translate(51.909 488.057) rotate(-180)"/><ellipse class="h" cx="1.018" cy="1.018" rx="1.018" ry="1.018" transform="translate(46.818 488.057) rotate(-180)"/><ellipse class="h" cx="1.018" cy="1.018" rx="1.018" ry="1.018" transform="translate(57.001 483.475) rotate(-180)"/><ellipse class="h" cx="1.018" cy="1.018" rx="1.018" ry="1.018" transform="translate(51.909 483.475) rotate(-180)"/><ellipse class="h" cx="1.018" cy="1.018" rx="1.018" ry="1.018" transform="translate(46.818 483.475) rotate(-180)"/><ellipse class="h" cx="1.018" cy="1.018" rx="1.018" ry="1.018" transform="translate(67.069 506.387) rotate(-180)"/><ellipse class="h" cx="1.018" cy="1.018" rx="1.018" ry="1.018" transform="translate(61.978 506.387) rotate(-180)"/><ellipse class="h" cx="1.018" cy="1.018" rx="1.018" ry="1.018" transform="translate(67.069 501.804) rotate(-180)"/><ellipse class="h" cx="1.018" cy="1.018" rx="1.018" ry="1.018" transform="translate(61.978 501.804) rotate(-180)"/><ellipse class="h" cx="1.018" cy="1.018" rx="1.018" ry="1.018" transform="translate(67.069 497.222) rotate(-180)"/><ellipse class="h" cx="1.018" cy="1.018" rx="1.018" ry="1.018" transform="translate(61.978 497.222) rotate(-180)"/><ellipse class="h" cx="1.018" cy="1.018" rx="1.018" ry="1.018" transform="translate(67.069 492.64) rotate(-180)"/><ellipse class="h" cx="1.018" cy="1.018" rx="1.018" ry="1.018" transform="translate(61.978 492.64) rotate(-180)"/><ellipse class="h" cx="1.018" cy="1.018" rx="1.018" ry="1.018" transform="translate(67.069 488.057) rotate(-180)"/><ellipse class="h" cx="1.018" cy="1.018" rx="1.018" ry="1.018" transform="translate(61.978 488.057) rotate(-180)"/><ellipse class="h" cx="1.018" cy="1.018" rx="1.018" ry="1.018" transform="translate(67.069 483.475) rotate(-180)"/><ellipse class="h" cx="1.018" cy="1.018" rx="1.018" ry="1.018" transform="translate(61.978 483.475) rotate(-180)"/><ellipse class="h" cx="1.018" cy="1.018" rx="1.018" ry="1.018" transform="translate(77.233 506.387) rotate(-180)"/><ellipse class="h" cx="1.018" cy="1.018" rx="1.018" ry="1.018" transform="translate(72.142 506.387) rotate(-180)"/><ellipse class="h" cx="1.018" cy="1.018" rx="1.018" ry="1.018" transform="translate(77.233 501.804) rotate(-180)"/><ellipse class="h" cx="1.018" cy="1.018" rx="1.018" ry="1.018" transform="translate(72.142 501.804) rotate(-180)"/><ellipse class="h" cx="1.018" cy="1.018" rx="1.018" ry="1.018" transform="translate(77.233 497.222) rotate(-180)"/><ellipse class="h" cx="1.018" cy="1.018" rx="1.018" ry="1.018" transform="translate(72.142 497.222) rotate(-180)"/><ellipse class="h" cx="1.018" cy="1.018" rx="1.018" ry="1.018" transform="translate(77.233 492.64) rotate(-180)"/><ellipse class="h" cx="1.018" cy="1.018" rx="1.018" ry="1.018" transform="translate(72.142 492.64) rotate(-180)"/><ellipse class="h" cx="1.018" cy="1.018" rx="1.018" ry="1.018" transform="translate(77.233 488.057) rotate(-180)"/><ellipse class="h" cx="1.018" cy="1.018" rx="1.018" ry="1.018" transform="translate(72.142 488.057) rotate(-180)"/><ellipse class="h" cx="1.018" cy="1.018" rx="1.018" ry="1.018" transform="translate(77.233 483.475) rotate(-180)"/><ellipse class="h" cx="1.018" cy="1.018" rx="1.018" ry="1.018" transform="translate(72.142 483.475) rotate(-180)"/><ellipse class="h" cx="1.018" cy="1.018" rx="1.018" ry="1.018" transform="translate(57.001 479.25) rotate(-180)"/><ellipse class="h" cx="1.018" cy="1.018" rx="1.018" ry="1.018" transform="translate(51.909 479.25) rotate(-180)"/><ellipse class="h" cx="1.018" cy="1.018" rx="1.018" ry="1.018" transform="translate(46.818 479.25) rotate(-180)"/><ellipse class="h" cx="1.018" cy="1.018" rx="1.018" ry="1.018" transform="translate(57.001 474.668) rotate(-180)"/><ellipse class="h" cx="1.018" cy="1.018" rx="1.018" ry="1.018" transform="translate(51.909 474.668) rotate(-180)"/><ellipse class="h" cx="1.018" cy="1.018" rx="1.018" ry="1.018" transform="translate(46.818 474.668) rotate(-180)"/><ellipse class="h" cx="1.018" cy="1.018" rx="1.018" ry="1.018" transform="translate(57.001 470.085) rotate(-180)"/><ellipse class="h" cx="1.018" cy="1.018" rx="1.018" ry="1.018" transform="translate(51.909 470.085) rotate(-180)"/><ellipse class="h" cx="1.018" cy="1.018" rx="1.018" ry="1.018" transform="translate(46.818 470.085) rotate(-180)"/><ellipse class="h" cx="1.018" cy="1.018" rx="1.018" ry="1.018" transform="translate(57.001 465.503) rotate(-180)"/><ellipse class="h" cx="1.018" cy="1.018" rx="1.018" ry="1.018" transform="translate(51.909 465.503) rotate(-180)"/><ellipse class="h" cx="1.018" cy="1.018" rx="1.018" ry="1.018" transform="translate(46.818 465.503) rotate(-180)"/><ellipse class="h" cx="1.018" cy="1.018" rx="1.018" ry="1.018" transform="translate(57.001 460.92) rotate(-180)"/><ellipse class="h" cx="1.018" cy="1.018" rx="1.018" ry="1.018" transform="translate(51.909 460.92) rotate(-180)"/><ellipse class="h" cx="1.018" cy="1.018" rx="1.018" ry="1.018" transform="translate(46.818 460.92) rotate(-180)"/><ellipse class="h" cx="1.018" cy="1.018" rx="1.018" ry="1.018" transform="translate(57.001 456.338) rotate(-180)"/><ellipse class="h" cx="1.018" cy="1.018" rx="1.018" ry="1.018" transform="translate(51.909 456.338) rotate(-180)"/><ellipse class="h" cx="1.018" cy="1.018" rx="1.018" ry="1.018" transform="translate(46.818 456.338) rotate(-180)"/><ellipse class="h" cx="1.018" cy="1.018" rx="1.018" ry="1.018" transform="translate(57.001 451.756) rotate(-180)"/><ellipse class="h" cx="1.018" cy="1.018" rx="1.018" ry="1.018" transform="translate(51.909 451.756) rotate(-180)"/><ellipse class="h" cx="1.018" cy="1.018" rx="1.018" ry="1.018" transform="translate(46.818 451.756) rotate(-180)"/><ellipse class="h" cx="1.018" cy="1.018" rx="1.018" ry="1.018" transform="translate(57.001 447.173) rotate(-180)"/><ellipse class="h" cx="1.018" cy="1.018" rx="1.018" ry="1.018" transform="translate(51.909 447.173) rotate(-180)"/><ellipse class="h" cx="1.018" cy="1.018" rx="1.018" ry="1.018" transform="translate(46.818 447.173) rotate(-180)"/><ellipse class="h" cx="1.018" cy="1.018" rx="1.018" ry="1.018" transform="translate(57.001 442.591) rotate(-180)"/><ellipse class="h" cx="1.018" cy="1.018" rx="1.018" ry="1.018" transform="translate(51.909 442.591) rotate(-180)"/><ellipse class="h" cx="1.018" cy="1.018" rx="1.018" ry="1.018" transform="translate(46.818 442.591) rotate(-180)"/><ellipse class="h" cx="1.018" cy="1.018" rx="1.018" ry="1.018" transform="translate(67.069 479.25) rotate(-180)"/><ellipse class="h" cx="1.018" cy="1.018" rx="1.018" ry="1.018" transform="translate(61.978 479.25) rotate(-180)"/><ellipse class="h" cx="1.018" cy="1.018" rx="1.018" ry="1.018" transform="translate(67.069 474.668) rotate(-180)"/><ellipse class="h" cx="1.018" cy="1.018" rx="1.018" ry="1.018" transform="translate(61.978 474.668) rotate(-180)"/><ellipse class="h" cx="1.018" cy="1.018" rx="1.018" ry="1.018" transform="translate(67.069 470.085) rotate(-180)"/><ellipse class="h" cx="1.018" cy="1.018" rx="1.018" ry="1.018" transform="translate(61.978 470.085) rotate(-180)"/><ellipse class="h" cx="1.018" cy="1.018" rx="1.018" ry="1.018" transform="translate(67.069 465.503) rotate(-180)"/><ellipse class="h" cx="1.018" cy="1.018" rx="1.018" ry="1.018" transform="translate(61.978 465.503) rotate(-180)"/><ellipse class="h" cx="1.018" cy="1.018" rx="1.018" ry="1.018" transform="translate(67.069 460.92) rotate(-180)"/><ellipse class="h" cx="1.018" cy="1.018" rx="1.018" ry="1.018" transform="translate(61.978 460.92) rotate(-180)"/><ellipse class="h" cx="1.018" cy="1.018" rx="1.018" ry="1.018" transform="translate(67.069 456.338) rotate(-180)"/><ellipse class="h" cx="1.018" cy="1.018" rx="1.018" ry="1.018" transform="translate(61.978 456.338) rotate(-180)"/><ellipse class="h" cx="1.018" cy="1.018" rx="1.018" ry="1.018" transform="translate(67.069 451.756) rotate(-180)"/><ellipse class="h" cx="1.018" cy="1.018" rx="1.018" ry="1.018" transform="translate(61.978 451.756) rotate(-180)"/><ellipse class="h" cx="1.018" cy="1.018" rx="1.018" ry="1.018" transform="translate(67.069 447.173) rotate(-180)"/><ellipse class="h" cx="1.018" cy="1.018" rx="1.018" ry="1.018" transform="translate(61.978 447.173) rotate(-180)"/><ellipse class="h" cx="1.018" cy="1.018" rx="1.018" ry="1.018" transform="translate(67.069 442.591) rotate(-180)"/><ellipse class="h" cx="1.018" cy="1.018" rx="1.018" ry="1.018" transform="translate(61.978 442.591) rotate(-180)"/><ellipse class="h" cx="1.018" cy="1.018" rx="1.018" ry="1.018" transform="translate(77.233 479.25) rotate(-180)"/><ellipse class="h" cx="1.018" cy="1.018" rx="1.018" ry="1.018" transform="translate(72.142 479.25) rotate(-180)"/><ellipse class="h" cx="1.018" cy="1.018" rx="1.018" ry="1.018" transform="translate(77.233 474.668) rotate(-180)"/><ellipse class="h" cx="1.018" cy="1.018" rx="1.018" ry="1.018" transform="translate(72.142 474.668) rotate(-180)"/><ellipse class="h" cx="1.018" cy="1.018" rx="1.018" ry="1.018" transform="translate(77.233 470.085) rotate(-180)"/><ellipse class="h" cx="1.018" cy="1.018" rx="1.018" ry="1.018" transform="translate(72.142 470.085) rotate(-180)"/><ellipse class="h" cx="1.018" cy="1.018" rx="1.018" ry="1.018" transform="translate(77.233 465.503) rotate(-180)"/><ellipse class="h" cx="1.018" cy="1.018" rx="1.018" ry="1.018" transform="translate(72.142 465.503) rotate(-180)"/><ellipse class="h" cx="1.018" cy="1.018" rx="1.018" ry="1.018" transform="translate(77.233 460.92) rotate(-180)"/><ellipse class="h" cx="1.018" cy="1.018" rx="1.018" ry="1.018" transform="translate(72.142 460.92) rotate(-180)"/><ellipse class="h" cx="1.018" cy="1.018" rx="1.018" ry="1.018" transform="translate(77.233 456.338) rotate(-180)"/><ellipse class="h" cx="1.018" cy="1.018" rx="1.018" ry="1.018" transform="translate(72.142 456.338) rotate(-180)"/><ellipse class="h" cx="1.018" cy="1.018" rx="1.018" ry="1.018" transform="translate(77.233 451.756) rotate(-180)"/><ellipse class="h" cx="1.018" cy="1.018" rx="1.018" ry="1.018" transform="translate(72.142 451.756) rotate(-180)"/><ellipse class="h" cx="1.018" cy="1.018" rx="1.018" ry="1.018" transform="translate(77.233 447.173) rotate(-180)"/><ellipse class="h" cx="1.018" cy="1.018" rx="1.018" ry="1.018" transform="translate(72.142 447.173) rotate(-180)"/><ellipse class="h" cx="1.018" cy="1.018" rx="1.018" ry="1.018" transform="translate(77.233 442.591) rotate(-180)"/><ellipse class="h" cx="1.018" cy="1.018" rx="1.018" ry="1.018" transform="translate(72.142 442.591) rotate(-180)"/><ellipse class="h" cx="1.018" cy="1.018" rx="1.018" ry="1.018" transform="translate(57.001 438.366) rotate(-180)"/><ellipse class="h" cx="1.018" cy="1.018" rx="1.018" ry="1.018" transform="translate(51.909 438.366) rotate(-180)"/><ellipse class="h" cx="1.018" cy="1.018" rx="1.018" ry="1.018" transform="translate(46.818 438.366) rotate(-180)"/><ellipse class="h" cx="1.018" cy="1.018" rx="1.018" ry="1.018" transform="translate(57.001 433.784) rotate(-180)"/><ellipse class="h" cx="1.018" cy="1.018" rx="1.018" ry="1.018" transform="translate(51.909 433.784) rotate(-180)"/><ellipse class="h" cx="1.018" cy="1.018" rx="1.018" ry="1.018" transform="translate(46.818 433.784) rotate(-180)"/><ellipse class="h" cx="1.018" cy="1.018" rx="1.018" ry="1.018" transform="translate(57.001 429.201) rotate(-180)"/><ellipse class="h" cx="1.018" cy="1.018" rx="1.018" ry="1.018" transform="translate(51.909 429.201) rotate(-180)"/><ellipse class="h" cx="1.018" cy="1.018" rx="1.018" ry="1.018" transform="translate(46.818 429.201) rotate(-180)"/><ellipse class="h" cx="1.018" cy="1.018" rx="1.018" ry="1.018" transform="translate(57.001 424.619) rotate(-180)"/><ellipse class="h" cx="1.018" cy="1.018" rx="1.018" ry="1.018" transform="translate(51.909 424.619) rotate(-180)"/><ellipse class="h" cx="1.018" cy="1.018" rx="1.018" ry="1.018" transform="translate(46.818 424.619) rotate(-180)"/><ellipse class="h" cx="1.018" cy="1.018" rx="1.018" ry="1.018" transform="translate(57.001 420.037) rotate(-180)"/><ellipse class="h" cx="1.018" cy="1.018" rx="1.018" ry="1.018" transform="translate(51.909 420.037) rotate(-180)"/><ellipse class="h" cx="1.018" cy="1.018" rx="1.018" ry="1.018" transform="translate(46.818 420.037) rotate(-180)"/><ellipse class="h" cx="1.018" cy="1.018" rx="1.018" ry="1.018" transform="translate(67.069 438.366) rotate(-180)"/><ellipse class="h" cx="1.018" cy="1.018" rx="1.018" ry="1.018" transform="translate(61.978 438.366) rotate(-180)"/><ellipse class="h" cx="1.018" cy="1.018" rx="1.018" ry="1.018" transform="translate(67.069 433.784) rotate(-180)"/><ellipse class="h" cx="1.018" cy="1.018" rx="1.018" ry="1.018" transform="translate(61.978 433.784) rotate(-180)"/><ellipse class="h" cx="1.018" cy="1.018" rx="1.018" ry="1.018" transform="translate(67.069 429.201) rotate(-180)"/><ellipse class="h" cx="1.018" cy="1.018" rx="1.018" ry="1.018" transform="translate(61.978 429.201) rotate(-180)"/><ellipse class="h" cx="1.018" cy="1.018" rx="1.018" ry="1.018" transform="translate(67.069 424.619) rotate(-180)"/><ellipse class="h" cx="1.018" cy="1.018" rx="1.018" ry="1.018" transform="translate(61.978 424.619) rotate(-180)"/><ellipse class="h" cx="1.018" cy="1.018" rx="1.018" ry="1.018" transform="translate(67.069 420.037) rotate(-180)"/><ellipse class="h" cx="1.018" cy="1.018" rx="1.018" ry="1.018" transform="translate(61.978 420.037) rotate(-180)"/><ellipse class="h" cx="1.018" cy="1.018" rx="1.018" ry="1.018" transform="translate(77.233 438.366) rotate(-180)"/><ellipse class="h" cx="1.018" cy="1.018" rx="1.018" ry="1.018" transform="translate(72.142 438.366) rotate(-180)"/><ellipse class="h" cx="1.018" cy="1.018" rx="1.018" ry="1.018" transform="translate(77.233 433.784) rotate(-180)"/><ellipse class="h" cx="1.018" cy="1.018" rx="1.018" ry="1.018" transform="translate(72.142 433.784) rotate(-180)"/><ellipse class="h" cx="1.018" cy="1.018" rx="1.018" ry="1.018" transform="translate(77.233 429.201) rotate(-180)"/><ellipse class="h" cx="1.018" cy="1.018" rx="1.018" ry="1.018" transform="translate(72.142 429.201) rotate(-180)"/><ellipse class="h" cx="1.018" cy="1.018" rx="1.018" ry="1.018" transform="translate(77.233 424.619) rotate(-180)"/><ellipse class="h" cx="1.018" cy="1.018" rx="1.018" ry="1.018" transform="translate(72.142 424.619) rotate(-180)"/><ellipse class="h" cx="1.018" cy="1.018" rx="1.018" ry="1.018" transform="translate(77.233 420.037) rotate(-180)"/><ellipse class="h" cx="1.018" cy="1.018" rx="1.018" ry="1.018" transform="translate(72.142 420.037) rotate(-180)"/><ellipse class="h" cx="1.018" cy="1.018" rx="1.018" ry="1.018" transform="translate(57.001 510.969) rotate(-180)"/><ellipse class="h" cx="1.018" cy="1.018" rx="1.018" ry="1.018" transform="translate(51.909 510.969) rotate(-180)"/><ellipse class="h" cx="1.018" cy="1.018" rx="1.018" ry="1.018" transform="translate(46.818 510.969) rotate(-180)"/><ellipse class="h" cx="1.018" cy="1.018" rx="1.018" ry="1.018" transform="translate(67.069 510.969) rotate(-180)"/><ellipse class="h" cx="1.018" cy="1.018" rx="1.018" ry="1.018" transform="translate(61.978 510.969) rotate(-180)"/><ellipse class="h" cx="1.018" cy="1.018" rx="1.018" ry="1.018" transform="translate(77.233 510.969) rotate(-180)"/><ellipse class="h" cx="1.018" cy="1.018" rx="1.018" ry="1.018" transform="translate(72.141 510.969) rotate(-180)"/><ellipse class="h" cx="1.018" cy="1.018" rx="1.018" ry="1.018" transform="translate(57.001 520.134) rotate(-180)"/><ellipse class="h" cx="1.018" cy="1.018" rx="1.018" ry="1.018" transform="translate(51.909 520.134) rotate(-180)"/><ellipse class="h" cx="1.018" cy="1.018" rx="1.018" ry="1.018" transform="translate(46.818 520.134) rotate(-180)"/><ellipse class="h" cx="1.018" cy="1.018" rx="1.018" ry="1.018" transform="translate(57.001 515.552) rotate(-180)"/><ellipse class="h" cx="1.018" cy="1.018" rx="1.018" ry="1.018" transform="translate(51.909 515.552) rotate(-180)"/><ellipse class="h" cx="1.018" cy="1.018" rx="1.018" ry="1.018" transform="translate(46.818 515.552) rotate(-180)"/><ellipse class="h" cx="1.018" cy="1.018" rx="1.018" ry="1.018" transform="translate(67.069 520.134) rotate(-180)"/><ellipse class="h" cx="1.018" cy="1.018" rx="1.018" ry="1.018" transform="translate(61.978 520.134) rotate(-180)"/><ellipse class="h" cx="1.018" cy="1.018" rx="1.018" ry="1.018" transform="translate(67.069 515.552) rotate(-180)"/><ellipse class="h" cx="1.018" cy="1.018" rx="1.018" ry="1.018" transform="translate(61.978 515.552) rotate(-180)"/><ellipse class="h" cx="1.018" cy="1.018" rx="1.018" ry="1.018" transform="translate(77.233 520.134) rotate(-180)"/><ellipse class="h" cx="1.018" cy="1.018" rx="1.018" ry="1.018" transform="translate(72.141 520.134) rotate(-180)"/><ellipse class="h" cx="1.018" cy="1.018" rx="1.018" ry="1.018" transform="translate(77.233 515.552) rotate(-180)"/><ellipse class="h" cx="1.018" cy="1.018" rx="1.018" ry="1.018" transform="translate(72.141 515.552) rotate(-180)"/></g></g></g></svg>