<svg xmlns="http://www.w3.org/2000/svg" xmlns:xlink="http://www.w3.org/1999/xlink" viewBox="0 0 611 548"><defs><style>.a{clip-path:url(#b);}.b{opacity:0.25;}.c,.d{fill:#b4b4b4;}.c{opacity:0.53;}.d{opacity:0.35;}.e,.f,.g,.i{fill:none;}.e{stroke:#de5caa;opacity:0.68;}.e,.f,.g{stroke-width:56px;}.f{stroke:#ffbb54;opacity:0.6;}.g{stroke:#b1dee5;opacity:0.38;}.h{stroke:none;}</style><clipPath id="b"><rect width="611" height="548"/></clipPath></defs><g id="a" class="a"><g class="b" transform="translate(1027.662 1051.411) rotate(-180)"><circle class="c" cx="3.338" cy="3.338" r="3.338" transform="translate(1055 593.506) rotate(90)"/><circle class="c" cx="3.338" cy="3.338" r="3.338" transform="translate(1055 610.194) rotate(90)"/><circle class="c" cx="3.338" cy="3.338" r="3.338" transform="translate(1055 626.882) rotate(90)"/><circle class="c" cx="3.338" cy="3.338" r="3.338" transform="translate(1055 643.57) rotate(90)"/><circle class="c" cx="3.338" cy="3.338" r="3.338" transform="translate(1055 660.258) rotate(90)"/><circle class="c" cx="3.338" cy="3.338" r="3.338" transform="translate(1055 676.946) rotate(90)"/><circle class="c" cx="3.338" cy="3.338" r="3.338" transform="translate(1039.981 593.506) rotate(90)"/><circle class="c" cx="3.338" cy="3.338" r="3.338" transform="translate(1039.981 610.194) rotate(90)"/><circle class="c" cx="3.338" cy="3.338" r="3.338" transform="translate(1039.981 626.882) rotate(90)"/><circle class="c" cx="3.338" cy="3.338" r="3.338" transform="translate(1039.981 643.57) rotate(90)"/><circle class="c" cx="3.338" cy="3.338" r="3.338" transform="translate(1039.981 660.258) rotate(90)"/><circle class="c" cx="3.338" cy="3.338" r="3.338" transform="translate(1039.981 676.946) rotate(90)"/><circle class="c" cx="3.338" cy="3.338" r="3.338" transform="translate(1024.962 593.506) rotate(90)"/><circle class="c" cx="3.338" cy="3.338" r="3.338" transform="translate(1024.962 610.194) rotate(90)"/><circle class="c" cx="3.338" cy="3.338" r="3.338" transform="translate(1024.962 626.882) rotate(90)"/><circle class="c" cx="3.338" cy="3.338" r="3.338" transform="translate(1024.962 643.57) rotate(90)"/><circle class="c" cx="3.338" cy="3.338" r="3.338" transform="translate(1024.962 660.258) rotate(90)"/><circle class="c" cx="3.338" cy="3.338" r="3.338" transform="translate(1024.962 676.946) rotate(90)"/><circle class="c" cx="3.338" cy="3.338" r="3.338" transform="translate(1009.943 593.506) rotate(90)"/><circle class="c" cx="3.338" cy="3.338" r="3.338" transform="translate(1009.943 610.194) rotate(90)"/><circle class="c" cx="3.338" cy="3.338" r="3.338" transform="translate(1009.943 626.882) rotate(90)"/><circle class="c" cx="3.338" cy="3.338" r="3.338" transform="translate(1009.943 643.57) rotate(90)"/><circle class="c" cx="3.338" cy="3.338" r="3.338" transform="translate(1009.943 660.258) rotate(90)"/><circle class="c" cx="3.338" cy="3.338" r="3.338" transform="translate(1009.943 676.946) rotate(90)"/><circle class="c" cx="3.338" cy="3.338" r="3.338" transform="translate(994.924 593.506) rotate(90)"/><circle class="c" cx="3.338" cy="3.338" r="3.338" transform="translate(994.924 610.194) rotate(90)"/><circle class="c" cx="3.338" cy="3.338" r="3.338" transform="translate(994.924 626.882) rotate(90)"/><circle class="c" cx="3.338" cy="3.338" r="3.338" transform="translate(994.924 643.57) rotate(90)"/><circle class="c" cx="3.338" cy="3.338" r="3.338" transform="translate(994.924 660.258) rotate(90)"/><circle class="c" cx="3.338" cy="3.338" r="3.338" transform="translate(994.924 676.946) rotate(90)"/><circle class="c" cx="3.338" cy="3.338" r="3.338" transform="translate(979.904 593.506) rotate(90)"/><circle class="c" cx="3.338" cy="3.338" r="3.338" transform="translate(979.904 610.194) rotate(90)"/><circle class="c" cx="3.338" cy="3.338" r="3.338" transform="translate(979.904 626.882) rotate(90)"/><circle class="c" cx="3.338" cy="3.338" r="3.338" transform="translate(979.904 643.57) rotate(90)"/><circle class="c" cx="3.338" cy="3.338" r="3.338" transform="translate(979.904 660.258) rotate(90)"/><circle class="c" cx="3.338" cy="3.338" r="3.338" transform="translate(979.904 676.946) rotate(90)"/><circle class="c" cx="3.338" cy="3.338" r="3.338" transform="translate(964.885 593.506) rotate(90)"/><circle class="c" cx="3.338" cy="3.338" r="3.338" transform="translate(964.885 610.194) rotate(90)"/><circle class="c" cx="3.338" cy="3.338" r="3.338" transform="translate(964.885 626.882) rotate(90)"/><circle class="c" cx="3.338" cy="3.338" r="3.338" transform="translate(964.885 643.57) rotate(90)"/><circle class="c" cx="3.338" cy="3.338" r="3.338" transform="translate(964.885 660.258) rotate(90)"/><circle class="c" cx="3.338" cy="3.338" r="3.338" transform="translate(964.885 676.946) rotate(90)"/><circle class="c" cx="3.338" cy="3.338" r="3.338" transform="translate(949.866 593.506) rotate(90)"/><circle class="c" cx="3.338" cy="3.338" r="3.338" transform="translate(949.866 610.194) rotate(90)"/><circle class="c" cx="3.338" cy="3.338" r="3.338" transform="translate(949.866 626.882) rotate(90)"/><circle class="c" cx="3.338" cy="3.338" r="3.338" transform="translate(949.866 643.57) rotate(90)"/><circle class="c" cx="3.338" cy="3.338" r="3.338" transform="translate(949.866 660.258) rotate(90)"/><circle class="c" cx="3.338" cy="3.338" r="3.338" transform="translate(949.866 676.946) rotate(90)"/><circle class="c" cx="3.338" cy="3.338" r="3.338" transform="translate(934.847 593.506) rotate(90)"/><circle class="c" cx="3.338" cy="3.338" r="3.338" transform="translate(934.847 610.194) rotate(90)"/><circle class="c" cx="3.338" cy="3.338" r="3.338" transform="translate(934.847 626.882) rotate(90)"/><circle class="c" cx="3.338" cy="3.338" r="3.338" transform="translate(934.847 643.57) rotate(90)"/><circle class="c" cx="3.338" cy="3.338" r="3.338" transform="translate(934.847 660.258) rotate(90)"/><circle class="c" cx="3.338" cy="3.338" r="3.338" transform="translate(934.847 676.946) rotate(90)"/><circle class="d" cx="3.338" cy="3.338" r="3.338" transform="translate(919.828 646.506) rotate(90)"/><circle class="d" cx="3.338" cy="3.338" r="3.338" transform="translate(919.828 663.194) rotate(90)"/><circle class="d" cx="3.338" cy="3.338" r="3.338" transform="translate(919.828 679.882) rotate(90)"/><circle class="d" cx="3.338" cy="3.338" r="3.338" transform="translate(919.828 696.57) rotate(90)"/><circle class="d" cx="3.338" cy="3.338" r="3.338" transform="translate(919.828 713.258) rotate(90)"/><circle class="d" cx="3.338" cy="3.338" r="3.338" transform="translate(919.828 729.946) rotate(90)"/><circle class="d" cx="3.338" cy="3.338" r="3.338" transform="translate(904.809 646.506) rotate(90)"/><circle class="d" cx="3.338" cy="3.338" r="3.338" transform="translate(904.809 663.194) rotate(90)"/><circle class="d" cx="3.338" cy="3.338" r="3.338" transform="translate(904.809 679.882) rotate(90)"/><circle class="d" cx="3.338" cy="3.338" r="3.338" transform="translate(904.809 696.57) rotate(90)"/><circle class="d" cx="3.338" cy="3.338" r="3.338" transform="translate(904.809 713.258) rotate(90)"/><circle class="d" cx="3.338" cy="3.338" r="3.338" transform="translate(904.809 729.946) rotate(90)"/><circle class="d" cx="3.338" cy="3.338" r="3.338" transform="translate(889.79 646.506) rotate(90)"/><circle class="d" cx="3.338" cy="3.338" r="3.338" transform="translate(889.79 663.194) rotate(90)"/><circle class="d" cx="3.338" cy="3.338" r="3.338" transform="translate(889.79 679.882) rotate(90)"/><circle class="d" cx="3.338" cy="3.338" r="3.338" transform="translate(889.79 696.57) rotate(90)"/><circle class="d" cx="3.338" cy="3.338" r="3.338" transform="translate(889.79 713.258) rotate(90)"/><circle class="d" cx="3.338" cy="3.338" r="3.338" transform="translate(889.79 729.946) rotate(90)"/><circle class="d" cx="3.338" cy="3.338" r="3.338" transform="translate(874.771 646.506) rotate(90)"/><circle class="d" cx="3.338" cy="3.338" r="3.338" transform="translate(874.771 663.194) rotate(90)"/><circle class="d" cx="3.338" cy="3.338" r="3.338" transform="translate(874.771 679.882) rotate(90)"/><circle class="d" cx="3.338" cy="3.338" r="3.338" transform="translate(874.771 696.57) rotate(90)"/><circle class="d" cx="3.338" cy="3.338" r="3.338" transform="translate(874.771 713.258) rotate(90)"/><circle class="d" cx="3.338" cy="3.338" r="3.338" transform="translate(874.771 729.946) rotate(90)"/><circle class="d" cx="3.338" cy="3.338" r="3.338" transform="translate(859.752 646.506) rotate(90)"/><circle class="d" cx="3.338" cy="3.338" r="3.338" transform="translate(859.752 663.194) rotate(90)"/><circle class="d" cx="3.338" cy="3.338" r="3.338" transform="translate(859.752 679.882) rotate(90)"/><circle class="d" cx="3.338" cy="3.338" r="3.338" transform="translate(859.752 696.57) rotate(90)"/><circle class="d" cx="3.338" cy="3.338" r="3.338" transform="translate(859.752 713.258) rotate(90)"/><circle class="d" cx="3.338" cy="3.338" r="3.338" transform="translate(859.752 729.946) rotate(90)"/><circle class="d" cx="3.338" cy="3.338" r="3.338" transform="translate(844.732 646.506) rotate(90)"/><circle class="d" cx="3.338" cy="3.338" r="3.338" transform="translate(844.732 663.194) rotate(90)"/><circle class="d" cx="3.338" cy="3.338" r="3.338" transform="translate(844.732 679.882) rotate(90)"/><circle class="d" cx="3.338" cy="3.338" r="3.338" transform="translate(844.732 696.57) rotate(90)"/><circle class="d" cx="3.338" cy="3.338" r="3.338" transform="translate(844.732 713.258) rotate(90)"/><circle class="d" cx="3.338" cy="3.338" r="3.338" transform="translate(844.732 729.946) rotate(90)"/><circle class="d" cx="3.338" cy="3.338" r="3.338" transform="translate(829.713 646.506) rotate(90)"/><circle class="d" cx="3.338" cy="3.338" r="3.338" transform="translate(829.713 663.194) rotate(90)"/><circle class="d" cx="3.338" cy="3.338" r="3.338" transform="translate(829.713 679.882) rotate(90)"/><circle class="d" cx="3.338" cy="3.338" r="3.338" transform="translate(829.713 696.57) rotate(90)"/><circle class="d" cx="3.338" cy="3.338" r="3.338" transform="translate(829.713 713.258) rotate(90)"/><circle class="d" cx="3.338" cy="3.338" r="3.338" transform="translate(829.713 729.946) rotate(90)"/><circle class="d" cx="3.338" cy="3.338" r="3.338" transform="translate(814.694 646.506) rotate(90)"/><circle class="d" cx="3.338" cy="3.338" r="3.338" transform="translate(814.694 663.194) rotate(90)"/><circle class="d" cx="3.338" cy="3.338" r="3.338" transform="translate(814.694 679.882) rotate(90)"/><circle class="d" cx="3.338" cy="3.338" r="3.338" transform="translate(814.694 696.57) rotate(90)"/><circle class="d" cx="3.338" cy="3.338" r="3.338" transform="translate(814.694 713.258) rotate(90)"/><circle class="d" cx="3.338" cy="3.338" r="3.338" transform="translate(814.694 729.946) rotate(90)"/><circle class="d" cx="3.338" cy="3.338" r="3.338" transform="translate(799.675 646.506) rotate(90)"/><circle class="d" cx="3.338" cy="3.338" r="3.338" transform="translate(799.675 663.194) rotate(90)"/><circle class="d" cx="3.338" cy="3.338" r="3.338" transform="translate(799.675 679.882) rotate(90)"/><circle class="d" cx="3.338" cy="3.338" r="3.338" transform="translate(799.675 696.57) rotate(90)"/><circle class="d" cx="3.338" cy="3.338" r="3.338" transform="translate(799.675 713.258) rotate(90)"/><circle class="d" cx="3.338" cy="3.338" r="3.338" transform="translate(799.675 729.946) rotate(90)"/></g><g class="b" transform="translate(581.819 356.695)"><g class="e" transform="translate(-239.486 -89.499) rotate(-22)"><circle class="h" cx="143.819" cy="143.819" r="143.819"/><circle class="i" cx="143.819" cy="143.819" r="115.819"/></g><g class="f" transform="translate(-178.76 -100.944) rotate(-22)"><circle class="h" cx="143.819" cy="143.819" r="143.819"/><circle class="i" cx="143.819" cy="143.819" r="115.819"/></g><g class="g" transform="translate(-91.679 -49.613) rotate(-22)"><circle class="h" cx="82.781" cy="82.781" r="82.781"/><circle class="i" cx="82.781" cy="82.781" r="54.781"/></g></g></g></svg>